<svg width="578" height="578" viewBox="0 0 578 578" fill="none" xmlns="http://www.w3.org/2000/svg">
<circle cx="289" cy="289" r="289" fill="#FB923C"/>
<ellipse cx="284.5" cy="257.689" rx="32.5" ry="31.6892" fill="white"/>
<path opacity="0.1" fill-rule="evenodd" clip-rule="evenodd" d="M284.5 289.378C302.449 289.378 317 275.191 317 257.689C317 240.188 302.449 226 284.5 226C266.551 226 252 240.188 252 257.689C252 275.191 266.551 289.378 284.5 289.378ZM311.268 257.689C311.268 271.89 299.421 283.647 284.5 283.647C269.579 283.647 257.732 271.89 257.732 257.689C257.732 243.489 269.579 231.732 284.5 231.732C299.421 231.732 311.268 243.489 311.268 257.689Z" fill="#2F2E41"/>
<path d="M204.665 159.394C203.096 156.948 196.868 168.73 189.224 173.633C181.581 178.537 161.278 182.371 162.847 184.817C164.416 187.263 173.371 190.717 181.015 185.813C188.658 180.909 206.235 161.839 204.665 159.394Z" fill="#3F3D56"/>
<path d="M201.835 163.222C202.638 164.379 203.049 161.214 205.22 159.707C207.391 158.2 210.5 158.921 209.697 157.764C208.893 156.607 206.482 156.89 204.311 158.397C202.14 159.904 201.031 162.064 201.835 163.222Z" fill="#3F3D56"/>
<path d="M153.007 185.391C156.105 186.646 158.737 188.246 163.462 187.402C168.187 186.559 172.188 186.333 171.66 183.378C171.132 180.422 166.778 181.148 162.053 181.992C157.328 182.835 154.754 183.324 153.007 185.391Z" fill="#3F3D56"/>
<path d="M162.071 191.516C164.138 191.142 166.004 191.079 168.597 189.189C171.189 187.298 173.484 185.931 172.574 184.683C171.664 183.435 169.264 185.152 166.671 187.043C164.078 188.934 162.672 189.977 162.071 191.516Z" fill="#3F3D56"/>
<path d="M167.617 197.589C169.251 196.268 170.858 195.318 172.224 192.414C173.591 189.511 174.948 187.21 173.55 186.552C172.153 185.894 170.872 188.553 169.505 191.456C168.139 194.36 167.406 195.951 167.617 197.589Z" fill="#3F3D56"/>
<path d="M207.751 169.651C206.057 169.16 204.677 168.608 201.788 168.553C198.898 168.498 196.506 168.328 196.491 169.102C196.477 169.876 199.134 169.94 202.023 169.995C204.912 170.05 206.489 170.073 207.751 169.651Z" fill="#3F3D56"/>
<path d="M203.516 171.184C202.418 170.482 201.552 169.76 199.527 169.33C197.501 168.899 195.848 168.421 195.687 169.178C195.526 169.936 197.386 170.345 199.412 170.775C201.438 171.206 202.545 171.433 203.516 171.184Z" fill="#3F3D56"/>
<path d="M171.628 194.056C173.413 192.947 175.125 192.203 176.84 189.491C178.556 186.779 180.187 184.664 178.881 183.838C177.576 183.012 174.965 185.583 175.427 187.958C173.711 190.67 171.621 192.404 171.628 194.056Z" fill="#3F3D56"/>
<path d="M176.133 193.376C177.585 191.857 180.298 190.58 181.283 187.526C182.268 184.472 182.08 182.147 180.61 181.672C179.139 181.198 177.252 184.338 178.291 186.524C177.306 189.578 175.714 191.778 176.133 193.376Z" fill="#3F3D56"/>
<path d="M184.073 189.163C185.07 187.423 187.007 185.697 187.587 182.541C188.167 179.385 187.918 177.147 186.813 176.944C185.708 176.741 184.467 180.141 185.336 182.091C184.756 185.247 183.689 187.677 184.073 189.163Z" fill="#3F3D56"/>
<path d="M185.624 190.196C186.621 188.457 187.493 191.094 188.073 187.938C188.653 184.782 189.468 178.18 188.363 177.977C187.258 177.774 186.018 181.174 186.887 183.124C186.307 186.28 185.24 188.71 185.624 190.196Z" fill="#3F3D56"/>
<path d="M190.704 186.976C191.641 185.349 193.62 184.49 193.284 181.988C192.948 179.486 191.585 174.399 189.67 174.656C187.755 174.914 187.097 177.834 189.339 178.93C189.675 181.432 189.456 186.038 190.704 186.976Z" fill="#3F3D56"/>
<path d="M194.3 178.043C194.811 176.746 196.481 180.538 196.206 178.491C195.932 176.445 194.967 172.263 193.831 172.415C192.696 172.568 192.39 174.926 193.761 175.885C194.036 177.932 193.527 177.243 194.3 178.043Z" fill="#3F3D56"/>
<path d="M198.27 175.696C197.896 174.353 201.514 176.372 200.062 174.905C198.609 173.437 195.319 170.681 194.504 171.487C193.69 172.293 194.867 174.359 196.539 174.298C197.992 175.766 197.171 175.523 198.27 175.696Z" fill="#3F3D56"/>
<path d="M202.088 172.821C201.243 171.712 202.078 172.368 200.184 171.545C198.29 170.721 196.195 169.896 195.738 170.947C195.28 171.998 197.14 173.48 198.67 172.803C200.564 173.627 201.003 173.068 202.088 172.821Z" fill="#3F3D56"/>
<path d="M254.525 131.637C253.006 129.16 266.324 128.679 274.065 123.931C281.806 119.184 294.093 102.572 295.612 105.049C297.132 107.526 296.345 117.092 288.604 121.839C280.862 126.587 256.044 134.115 254.525 131.637Z" fill="#3F3D56"/>
<path d="M259.204 130.756C259.896 131.983 256.868 130.976 254.566 132.275C252.265 133.574 251.561 136.687 250.869 135.46C250.177 134.233 251.481 132.186 253.783 130.887C256.084 129.588 258.512 129.529 259.204 130.756Z" fill="#3F3D56"/>
<path d="M300.412 96.4401C300.193 99.7752 300.489 102.841 297.673 106.728C294.858 110.615 292.914 114.12 290.482 112.358C288.051 110.597 290.599 106.992 293.415 103.105C296.231 99.218 297.791 97.1131 300.412 96.4401Z" fill="#3F3D56"/>
<path d="M301.983 107.264C300.746 108.963 299.878 110.616 297.047 112.127C294.217 113.639 291.987 115.11 291.26 113.748C290.532 112.385 293.123 110.972 295.953 109.46C298.784 107.948 300.336 107.136 301.983 107.264Z" fill="#3F3D56"/>
<path d="M305.036 114.902C303.135 115.799 301.581 116.832 298.372 116.799C295.163 116.766 292.501 116.986 292.517 115.441C292.533 113.897 295.484 113.901 298.693 113.934C301.902 113.967 303.653 113.999 305.036 114.902Z" fill="#3F3D56"/>
<path d="M262.416 138.881C262.711 137.142 262.815 135.659 264.022 133.034C265.23 130.409 266.118 128.181 266.822 128.505C267.525 128.829 266.426 131.248 265.219 133.874C264.011 136.499 263.345 137.928 262.416 138.881Z" fill="#3F3D56"/>
<path d="M265.642 135.733C265.488 134.438 265.215 133.345 265.709 131.334C266.202 129.323 266.491 127.626 267.243 127.811C267.995 127.995 267.554 129.848 267.06 131.859C266.566 133.87 266.29 134.966 265.642 135.733Z" fill="#3F3D56"/>
<path d="M300.111 116.977C298.336 118.101 296.921 119.318 293.733 119.683C290.545 120.048 287.931 120.596 287.755 119.061C287.58 117.526 291.03 116.294 292.968 117.743C296.156 117.379 298.627 116.251 300.111 116.977Z" fill="#3F3D56"/>
<path d="M297.539 120.735C295.539 121.381 293.209 123.268 290.031 122.826C286.853 122.385 284.84 121.203 285.053 119.673C285.266 118.143 288.915 117.81 290.43 119.696C293.609 120.138 296.282 119.663 297.539 120.735Z" fill="#3F3D56"/>
<path d="M290.29 126.052C288.289 126.192 285.892 127.185 282.798 126.333C279.704 125.482 277.798 124.284 278.096 123.201C278.394 122.118 281.995 122.481 283.373 124.112C286.467 124.963 289.119 125.059 290.29 126.052Z" fill="#3F3D56"/>
<path d="M290.546 127.899C288.545 128.04 290.541 129.972 287.447 129.121C284.353 128.27 278.054 126.132 278.352 125.049C278.65 123.965 282.251 124.328 283.629 125.959C286.723 126.81 289.375 126.906 290.546 127.899Z" fill="#3F3D56"/>
<path d="M285.434 131.072C283.561 131.208 281.927 132.616 279.821 131.224C277.714 129.833 273.727 126.392 274.792 124.78C275.857 123.168 278.773 123.846 278.784 126.342C280.89 127.733 285.133 129.541 285.434 131.072Z" fill="#3F3D56"/>
<path d="M275.829 130.42C274.439 130.316 277.126 133.47 275.403 132.332C273.679 131.194 270.334 128.505 270.966 127.549C271.597 126.593 273.853 127.344 274.12 128.995C275.843 130.134 275.444 129.376 275.829 130.42Z" fill="#3F3D56"/>
<path d="M271.987 132.972C270.941 132.052 271.185 136.188 270.495 134.241C269.806 132.295 268.757 128.133 269.837 127.751C270.917 127.368 272.265 129.327 271.482 130.806C272.172 132.753 272.31 131.908 271.987 132.972Z" fill="#3F3D56"/>
<path d="M267.737 135.16C267.107 133.917 267.334 134.954 267.416 132.891C267.499 130.827 267.668 128.582 268.813 128.627C269.958 128.673 270.484 130.992 269.208 132.075C269.126 134.138 268.431 134.291 267.737 135.16Z" fill="#3F3D56"/>
<path d="M233.496 437.212L243.749 443.131L195.013 525.682C193.671 527.957 190.747 528.725 188.46 527.404V527.404C186.178 526.087 185.379 523.181 186.666 520.883L233.496 437.212Z" fill="#2F2E41"/>
<path d="M248.209 406.651L262.855 415.107L244.22 443.405L233.774 437.373L248.209 406.651Z" fill="white"/>
<path d="M251.487 380.263C252.025 376.256 254.064 372.483 258.064 373.07C261.457 373.569 266.751 375.369 274.921 380.086C282.492 384.457 286.626 387.922 288.85 390.527C291.759 393.934 289.168 397.865 285.409 400.302L262.703 415.018L247.959 406.505L251.487 380.263Z" fill="#2F2E41"/>
<path d="M116.305 298.428L169.484 419.188L158.213 424.151L105.586 309.533L69.4703 299.52C69.432 299.51 69.3961 299.492 69.3643 299.468C69.12 299.285 69.2472 298.897 69.5524 298.894L116.305 298.428Z" fill="#D9D9D9"/>
<path opacity="0.2" d="M116.305 298.428L169.484 419.188L158.213 424.151L105.586 309.533L69.4703 299.52C69.432 299.51 69.3961 299.492 69.3643 299.468C69.12 299.285 69.2472 298.897 69.5524 298.894L116.305 298.428Z" fill="#2F2E41"/>
<path d="M62.035 284.213L110.961 285.333C127.917 315.855 142.679 347.544 155.136 380.162L170.918 421.483L159.281 426.607L128.824 347.978L101.708 295.867L61.9333 284.905C61.8866 284.893 61.8431 284.87 61.8054 284.84C61.5436 284.628 61.6986 284.205 62.035 284.213Z" fill="#D9D9D9"/>
<path d="M137.976 168.977L137.178 177.765L145.495 163.886L153.511 154.905C154.477 153.823 155.647 152.942 156.955 152.314L183.629 139.502C186.785 137.987 186.962 133.56 183.937 131.797C182.653 131.048 181.075 131.005 179.752 131.682L155.469 144.103C152.898 145.418 150.494 147.034 148.305 148.916C142.386 154.007 138.682 161.202 137.976 168.977Z" fill="#3F3D56"/>
<path d="M281.725 80.7832L289.921 84.0534L273.78 85.1798L262.142 88.2567C260.74 88.6275 259.424 89.2721 258.272 90.1533L234.765 108.128C231.985 110.255 227.958 108.407 227.757 104.912C227.671 103.428 228.347 102.002 229.551 101.129L251.625 85.1083C253.962 83.4127 256.492 82.0009 259.161 80.9027C266.381 77.9327 274.474 77.8899 281.725 80.7832Z" fill="#3F3D56"/>
<rect width="27.78" height="59.9176" rx="7" transform="matrix(0.5 -0.866025 -0.866025 -0.5 406.889 164.017)" fill="#2F2E41"/>
<path d="M483.257 196.785C484.692 197.614 486.527 197.122 487.355 195.687L488.441 193.808C489.269 192.373 488.778 190.538 487.343 189.709L415.879 148.45L411.794 155.526L483.257 196.785Z" fill="#2F2E41"/>
<path d="M516.888 213.582C517.827 214.124 519.027 213.802 519.569 212.863V212.863C520.112 211.924 519.79 210.723 518.851 210.181L487.681 192.185L485.718 195.586L516.888 213.582Z" fill="#2F2E41"/>
<path d="M491.49 195.258L493.941 191.012C494.242 190.491 494.064 189.825 493.543 189.524V189.524C493.022 189.223 492.355 189.402 492.054 189.923L489.603 194.168L491.49 195.258Z" fill="#2F2E41"/>
<path d="M495.262 197.437L497.713 193.191C498.014 192.67 497.835 192.004 497.314 191.703V191.703C496.793 191.402 496.127 191.581 495.826 192.102L493.375 196.347L495.262 197.437Z" fill="#2F2E41"/>
<path d="M499.037 199.615L501.488 195.37C501.789 194.849 501.611 194.183 501.09 193.882V193.882C500.568 193.581 499.902 193.759 499.601 194.281L497.15 198.526L499.037 199.615Z" fill="#2F2E41"/>
<path d="M502.811 201.794L505.262 197.549C505.563 197.027 505.384 196.361 504.863 196.06V196.06C504.342 195.76 503.676 195.938 503.375 196.459L500.924 200.705L502.811 201.794Z" fill="#2F2E41"/>
<path d="M506.584 203.973L509.035 199.727C509.336 199.206 509.157 198.54 508.636 198.239V198.239C508.115 197.938 507.449 198.117 507.148 198.638L504.697 202.884L506.584 203.973Z" fill="#2F2E41"/>
<path d="M510.357 206.152L512.809 201.906C513.109 201.385 512.931 200.719 512.41 200.418V200.418C511.889 200.117 511.223 200.296 510.922 200.817L508.471 205.062L510.357 206.152Z" fill="#2F2E41"/>
<path d="M514.133 208.331L516.584 204.085C516.885 203.564 516.706 202.898 516.185 202.597V202.597C515.664 202.296 514.998 202.475 514.697 202.996L512.246 207.241L514.133 208.331Z" fill="#2F2E41"/>
<path d="M517.906 210.509L520.357 206.264C520.658 205.743 520.48 205.077 519.959 204.776V204.776C519.438 204.475 518.771 204.653 518.471 205.174L516.019 209.42L517.906 210.509Z" fill="#2F2E41"/>
<path d="M519.357 212.61L524.093 211.342C524.674 211.186 525.019 210.589 524.863 210.007V210.007C524.707 209.426 524.11 209.081 523.529 209.237L518.794 210.506L519.357 212.61Z" fill="#2F2E41"/>
<path d="M518.973 212.623L520.241 217.358C520.397 217.939 520.052 218.537 519.471 218.692V218.692C518.89 218.848 518.293 218.503 518.137 217.922L516.868 213.187L518.973 212.623Z" fill="#2F2E41"/>
<path d="M519.521 211.433L523.767 213.885C524.288 214.185 524.467 214.852 524.166 215.373V215.373C523.865 215.894 523.199 216.072 522.678 215.772L518.432 213.32L519.521 211.433Z" fill="#2F2E41"/>
<path d="M490.561 196.869L488.109 201.115C487.809 201.636 487.142 201.815 486.621 201.514V201.514C486.1 201.213 485.922 200.547 486.222 200.026L488.674 195.78L490.561 196.869Z" fill="#2F2E41"/>
<path d="M494.332 199.048L491.881 203.294C491.58 203.815 490.914 203.993 490.393 203.693V203.693C489.872 203.392 489.693 202.725 489.994 202.204L492.445 197.959L494.332 199.048Z" fill="#2F2E41"/>
<path d="M498.105 201.227L495.654 205.473C495.353 205.994 494.687 206.172 494.166 205.871V205.871C493.645 205.571 493.467 204.904 493.767 204.383L496.219 200.138L498.105 201.227Z" fill="#2F2E41"/>
<path d="M501.881 203.406L499.43 207.651C499.129 208.172 498.463 208.351 497.942 208.05V208.05C497.42 207.749 497.242 207.083 497.543 206.562L499.994 202.316L501.881 203.406Z" fill="#2F2E41"/>
<path d="M505.654 205.585L503.203 209.83C502.902 210.351 502.236 210.53 501.715 210.229V210.229C501.194 209.928 501.015 209.262 501.316 208.741L503.767 204.495L505.654 205.585Z" fill="#2F2E41"/>
<path d="M509.428 207.763L506.977 212.009C506.676 212.53 506.009 212.709 505.488 212.408V212.408C504.967 212.107 504.789 211.441 505.09 210.92L507.541 206.674L509.428 207.763Z" fill="#2F2E41"/>
<path d="M513.201 209.942L510.75 214.188C510.449 214.709 509.783 214.887 509.262 214.587V214.587C508.741 214.286 508.562 213.619 508.863 213.098L511.314 208.853L513.201 209.942Z" fill="#2F2E41"/>
<path d="M516.973 212.121L514.521 216.367C514.221 216.888 513.554 217.066 513.033 216.765V216.765C512.512 216.465 512.334 215.798 512.635 215.277L515.086 211.032L516.973 212.121Z" fill="#2F2E41"/>
<path d="M372.543 354.471L478.692 248.587C483.691 243.6 491.786 243.611 496.772 248.61V248.61C501.759 253.609 501.749 261.703 496.75 266.69L390.601 372.574L372.543 354.471Z" fill="#FED8D7"/>
<path opacity="0.1" fill-rule="evenodd" clip-rule="evenodd" d="M499.098 251.801C501.569 256.614 500.784 262.665 496.749 266.691L391.918 371.26L385.19 364.515L496.922 253.061C497.548 252.437 498.301 252.017 499.098 251.801Z" fill="black"/>
<path d="M474.78 477.962C476.713 488.832 448.904 501.216 413.576 507.499C378.248 513.782 348.552 511.626 346.619 500.756C344.686 489.886 369.659 465.493 404.987 459.21C440.315 452.926 472.846 467.092 474.78 477.962Z" fill="#FF6884"/>
<rect x="342.059" y="475.124" width="130.172" height="26.4993" transform="rotate(-10.0851 342.059 475.124)" fill="#FF6884"/>
<ellipse cx="407.686" cy="472.424" rx="65.086" ry="19.9907" transform="rotate(-10.0851 407.686 472.424)" fill="#FF95A8"/>
<path d="M463.414 410.779L471.043 455.546C471.966 460.959 468.356 466.101 462.949 467.062C449.941 469.373 426.469 473.523 408.451 476.593C390.452 479.661 367.039 483.501 354.043 485.622C348.624 486.506 343.515 482.846 342.593 477.433C339.921 461.756 338.001 450.487 334.964 432.669C334.964 432.669 374.911 435.31 400.186 431.069C426.215 426.702 463.414 410.779 463.414 410.779Z" fill="#FF95A8"/>
<ellipse cx="398.457" cy="417.874" rx="61.3668" ry="20.9205" transform="rotate(-10.0851 398.457 417.874)" fill="white"/>
<path d="M466.201 427.074C467.82 436.174 440.828 451.419 405.311 457.736C369.794 464.053 339.634 460.154 338.015 451.053C336.397 441.953 363.444 428.351 398.961 422.034C434.478 415.717 464.582 417.973 466.201 427.074Z" fill="#FF6884"/>
<path d="M335.323 434.769L463.512 411.969L466.606 429.363L338.283 452.186L335.323 434.769Z" fill="#FF6884"/>
<ellipse cx="398.457" cy="417.874" rx="61.3668" ry="20.9205" transform="rotate(-10.0851 398.457 417.874)" fill="white"/>
<path opacity="0.1" fill-rule="evenodd" clip-rule="evenodd" d="M387.929 398.498L395.209 439.429C364.867 443.627 339.899 439.073 338.017 428.489C336.134 417.904 358.001 405.02 387.929 398.498Z" fill="black"/>
<path d="M435.672 418.474C438.954 418.016 442.436 420.286 441.515 423.469C439.507 430.414 429.225 433.65 402.807 438.349C373.13 443.627 360.958 443.881 349.164 441.814C346.761 441.393 344.587 439.272 345.72 437.111C349.661 429.595 371.587 429.027 400.242 423.931C426.567 419.249 429.344 419.356 435.672 418.474Z" fill="#FFEACB"/>
<path opacity="0.1" fill-rule="evenodd" clip-rule="evenodd" d="M361.013 430.2C362.459 429.969 363.98 429.739 365.567 429.5C368.578 429.046 371.824 428.557 375.236 427.95C375.915 427.829 376.565 427.714 377.185 427.605C377.573 427.549 377.963 427.493 378.357 427.436C383.331 426.719 388.72 425.943 394.425 425.006C396.164 424.991 397.862 425.672 399.023 426.99C403.694 432.298 405.801 435.687 406.048 437.844C404.918 438.051 403.756 438.26 402.561 438.473C394.322 439.938 387.432 441.016 381.525 441.765C380.684 441.846 379.844 441.947 379.008 442.071C371.002 443.001 364.877 443.282 359.577 443.081C358.207 442.874 356.942 442.618 355.672 442.361C353.884 442 352.087 441.636 349.973 441.406C347.729 441.162 345.348 439.78 345.242 437.838C345.292 437.638 345.369 437.437 345.475 437.235C347.271 433.809 352.806 431.826 361.013 430.2Z" fill="black"/>
<path fill-rule="evenodd" clip-rule="evenodd" d="M402.936 443.048C439.085 436.619 466.494 420.751 464.156 407.606C461.818 394.461 430.618 389.016 394.469 395.446C358.32 401.875 330.911 417.744 333.249 430.889C335.587 444.034 366.787 449.478 402.936 443.048ZM402.123 438.471C435.462 432.541 460.848 418.513 458.825 407.137C456.802 395.762 428.135 391.347 394.796 397.276C361.458 403.206 336.071 417.235 338.095 428.61C340.118 439.986 368.784 444.401 402.123 438.471Z" fill="#FF6884"/>
<path opacity="0.1" fill-rule="evenodd" clip-rule="evenodd" d="M436.682 429.26L424.47 421.229L420.193 420.619C425.899 419.734 428.981 419.365 431.603 419.052C432.959 418.889 434.192 418.742 435.601 418.546C438.883 418.088 442.365 420.358 441.444 423.541C440.799 425.773 439.298 427.622 436.682 429.26Z" fill="black"/>
<path fill-rule="evenodd" clip-rule="evenodd" d="M402.895 442.819C439.044 436.39 464.205 421.158 461.867 408.012C459.529 394.867 430.699 389.474 394.55 395.903C358.401 402.333 332.742 417.418 335.08 430.563C337.418 443.708 366.746 449.249 402.895 442.819ZM402.121 438.471C435.46 432.541 460.846 418.513 458.823 407.137C456.8 395.761 428.133 391.347 394.794 397.276C361.456 403.206 336.069 417.234 338.093 428.61C340.116 439.986 368.782 444.4 402.121 438.471Z" fill="#FF95A8"/>
<path d="M371.397 423.615L351.098 433.031L440.077 418.262L432.095 415.916L419.189 417.05L405.376 415.25L400.145 394.506L403.708 373.358C409.594 365.99 423.164 349.23 430.36 341.138C437.557 333.046 434.079 324.478 431.441 321.206L419.203 315.255L413.424 306.607C411.133 308.175 404.354 314.567 395.567 327.587C386.78 340.606 366.282 355.115 357.131 360.742C357.131 364.355 359.533 374.249 369.142 384.925C378.751 395.601 374.649 415.167 371.397 423.615Z" fill="#FFEACB"/>
<path d="M371.397 423.615L351.098 433.031L440.077 418.262L432.095 415.916L419.189 417.05L405.376 415.25L400.145 394.506L403.708 373.358C409.594 365.99 423.164 349.23 430.36 341.138C437.557 333.046 434.079 324.478 431.441 321.206L419.203 315.255L413.424 306.607C411.133 308.175 404.354 314.567 395.567 327.587C386.78 340.606 366.282 355.115 357.131 360.742C357.131 364.355 359.533 374.249 369.142 384.925C378.751 395.601 374.649 415.167 371.397 423.615Z" fill="#FFEACB"/>
<path opacity="0.1" fill-rule="evenodd" clip-rule="evenodd" d="M351.103 433.031L371.402 423.615C373.656 417.761 376.317 406.568 374.542 396.695L374.612 396.617L374.497 396.449C373.693 392.165 372.042 388.141 369.147 384.925C365.155 380.489 362.406 376.188 360.557 372.417L359.614 370.364C357.753 366.02 357.136 362.573 357.136 360.742C358.148 360.119 359.299 359.388 360.557 358.563C361.063 359.039 361.431 359.679 361.566 360.435L362.176 363.868C362.511 365.748 363.726 367.352 365.445 368.183L368.787 369.799C372.596 371.639 377.055 371.546 380.783 369.548L383.303 368.198C385.127 367.22 386.777 365.949 388.187 364.434L429.381 320.202L431.446 321.206C432.736 322.806 434.227 325.672 434.572 329.13L383.989 380.311L380.546 383.52C380.287 383.695 380 383.839 379.707 383.986C377.849 384.917 375.737 385.976 378.96 395.843C381.585 403.879 390.138 415.954 397.553 425.321L351.103 433.031Z" fill="black"/>
<path opacity="0.1" fill-rule="evenodd" clip-rule="evenodd" d="M405.644 415.284L405.642 418.383L423.766 420.97L440.08 418.262L432.098 415.916L419.192 417.05L405.644 415.284Z" fill="black"/>
</svg>
