<svg width="382" height="1273" viewBox="0 0 382 1273" fill="none" xmlns="http://www.w3.org/2000/svg">
<g clip-path="url(#clip0_359_315)">
<path d="M0 765C0 748.431 13.4315 735 30 735H351C367.569 735 381 748.431 381 765V1273H0V765Z" fill="#FAF3EB"/>
<path d="M238.499 952.5L243.357 883.732L163.719 892.242L168.499 952.5H238.499Z" fill="#FFDDAA"/>
<path d="M279.901 1223.59V1273.28L278.182 1272.52H70.4453L76.4438 1236.39L77.4555 1230.29L78.2523 1225.52L116.088 1225.16L116.123 1225.15L131.227 1225.01L135.068 1224.98L138.067 1224.94L183.423 1224.52L245.252 1223.92L279.901 1223.59Z" fill="#3F3D56"/>
<path d="M162.629 933.728L248.813 941.174L307.59 999.069L285.36 1138.49L279.905 1239.55L74.8086 1236.36L98.8093 1118.28L87.8999 957.661L162.629 933.728Z" fill="white"/>
<path d="M179.538 926.813C219.906 926.813 252.631 894.905 252.631 855.544C252.631 816.183 219.906 784.274 179.538 784.274C139.17 784.274 106.445 816.183 106.445 855.544C106.445 894.905 139.17 926.813 179.538 926.813Z" fill="#FFDDAA"/>
<path opacity="0.7" d="M179.537 919.45C215.632 919.45 166 920.195 166 885C166 849.805 215.632 791.997 179.537 791.997C143.441 791.997 114.18 820.528 114.18 855.723C114.18 890.919 143.441 919.45 179.537 919.45Z" fill="white"/>
<path d="M103.718 958.193C103.718 958.193 69.8986 951.811 55.7164 982.659C41.5341 1013.51 32.8066 1058.18 32.8066 1058.18L109.172 1061.37L103.718 958.193Z" fill="white"/>
<path d="M275.429 967.543C275.429 967.543 309.086 961.205 323.2 991.837C337.314 1022.47 346 1066.83 346 1066.83L270 1070L275.429 967.543Z" fill="white"/>
<path d="M193.227 1272.52H126.008L112.534 1260.06L112.498 1260.09L112.722 1259.87L134.281 1238.66L135.65 1237.3L141.918 1231.15L142.079 1230.98L144.666 1233.63L148.453 1237.5L148.65 1237.71L169.35 1258.87C177.989 1261.31 185.895 1265.75 192.412 1271.78C192.69 1272.02 192.959 1272.28 193.227 1272.52Z" fill="#FFDDAA"/>
<path d="M148.958 1237.51L137.514 1227.18L133.533 1223.59L117.583 1209.2L109.008 1200.5L96.8115 1188.14L90.7677 1182.01L86.6876 1177.88L82.9893 1174.13L84.4839 1159L87.5713 1127.84L91.5314 1087.81L94.6187 1056.61L94.9897 1052.86L81.833 1034.34L32.5915 1057.91L19.4749 1153.26L17.2493 1163.53C15.4059 1172.04 18.4603 1180.84 25.2178 1186.51L70.4435 1224.42L76.2473 1229.28L84.8657 1236.52L113.187 1260.26L148.958 1237.51Z" fill="white"/>
<path d="M154.094 988.89C154.094 988.89 216.298 928.973 240.899 939.689C265.5 950.404 307.39 1001.1 307.39 1001.1L246.98 1048.8L154.094 988.89Z" fill="white"/>
<ellipse cx="234.5" cy="895.113" rx="15.5" ry="15.1133" fill="white"/>
<path opacity="0.1" fill-rule="evenodd" clip-rule="evenodd" d="M234.5 910.227C243.06 910.227 250 903.46 250 895.113C250 886.766 243.06 880 234.5 880C225.94 880 219 886.766 219 895.113C219 903.46 225.94 910.227 234.5 910.227ZM247.266 895.113C247.266 901.886 241.616 907.493 234.5 907.493C227.384 907.493 221.734 901.886 221.734 895.113C221.734 888.341 227.384 882.734 234.5 882.734C241.616 882.734 247.266 888.341 247.266 895.113Z" fill="#2F2E41"/>
<path d="M340.908 853.035L299.159 861.754C289.987 859.825 280.442 859.933 271.325 862.068C248.424 867.127 232.72 882.026 236.239 895.349C239.758 908.672 261.169 915.372 284.06 910.312C293.241 908.405 301.789 904.514 308.988 898.966L330.5 895.349L320.033 857.394L340.908 853.035Z" fill="#FF95A8"/>
<path d="M272.691 1232.06L234.197 1245.73C225.263 1244.85 216.229 1246.07 207.851 1249.29C186.77 1257.06 173.731 1273.95 178.719 1287C183.707 1300.06 204.833 1304.34 225.906 1296.57C234.372 1293.57 241.993 1288.64 248.129 1282.2L285.952 1270.84L272.683 1232.03L272.691 1232.06Z" fill="#FFDDAA"/>
<path d="M243.5 1242.98L255 1237.5L262.017 1234.91L276.439 1219.01L284.097 1209.5L294.991 1196L300.389 1189.3L304.034 1184.79L307.337 1180.69L304.358 1165.78L298.213 1135.06L290.326 1095.6L284.177 1064.85L283.439 1061.16L294.678 1041.42L345.919 1060.03L368.366 1153.65L371.592 1163.66C374.263 1171.94 372.098 1181.01 365.946 1187.31L324.767 1229.52L319.482 1234.93L311.636 1242.98L285.849 1269.4L243.5 1242.98Z" fill="white"/>
<path d="M130.62 849.05L127.609 853.105L135.757 848.837L141.387 847.138C142.782 846.717 144.246 846.577 145.696 846.727L161.446 848.355C163.431 848.56 164.839 846.464 163.898 844.704C163.498 843.955 162.743 843.462 161.896 843.396L146.465 842.192C144.828 842.065 143.181 842.133 141.559 842.396C137.186 843.105 133.261 845.492 130.62 849.05Z" fill="#3F3D56"/>
<path d="M226.488 849.05L229.498 853.105L221.35 848.837L215.721 847.138C214.326 846.717 212.861 846.577 211.412 846.727L195.661 848.355C193.676 848.56 192.268 846.464 193.209 844.704C193.61 843.955 194.364 843.462 195.211 843.396L210.642 842.192C212.28 842.065 213.927 842.133 215.548 842.396C219.922 843.105 223.846 845.492 226.488 849.05Z" fill="#3F3D56"/>
<path d="M119.445 902.259L124.057 906.085L92.7204 943.127C91.8571 944.147 90.3329 944.282 89.3041 943.428V943.428C88.2779 942.577 88.1262 941.06 88.9636 940.022L119.445 902.259Z" fill="#2F2E41"/>
<path d="M129.385 888.263L135.973 893.728L124.268 906.262L119.57 902.364L129.385 888.263Z" fill="white"/>
<path d="M132.364 878.263C133.568 874.404 136.397 871.591 139.89 873.625C141.258 874.421 142.932 875.59 144.972 877.281C146.697 878.713 148.002 879.953 148.985 881.022C152.018 884.319 149.515 887.816 145.4 889.586L135.905 893.671L129.272 888.169L132.364 878.263Z" fill="#2F2E41"/>
<path d="M69.6348 871.747L86.5359 888.517C94.6685 891.423 102.028 896.193 108 902.428C123.157 917.838 127.593 937.843 117.914 947.119C108.235 956.395 88.1065 951.427 72.9569 936.021C66.8172 929.943 62.2035 922.538 59.5016 914.425L39.8415 895.265L69.6348 871.747Z" fill="#FF95A8"/>
<path d="M380.5 848.5V799.5L347.5 833.5L320 857L330.5 894.5L380.5 848.5Z" fill="#FFDDAA"/>
<path d="M46.5 902L-1 861V752.5L4.97581 745.911C13.2944 736.739 26.0057 732.925 38 736L25.5 797.5L26.0926 801.018C30.8513 829.273 46.1939 854.655 69 872L46.5 902Z" fill="#FFDDAA"/>
<path d="M223.5 814.858C223.5 814.858 193.952 812.478 165.38 814.858C136.807 817.238 112.5 822.5 112.5 822.5C112.5 822.5 113.273 788.023 153.204 775.672C153.204 775.672 102.432 732.967 162.88 712.019C223.329 691.07 257.154 717.788 257.154 717.788C257.154 717.788 301.898 755.901 245.544 784.388C245.544 784.388 287.389 832.415 236.726 872C236.726 872 252.324 828.093 240.5 834C228.676 839.907 223.5 814.858 223.5 814.858Z" fill="#2F2E41"/>
<path d="M261.465 815.693C264.312 814.943 266.974 813.635 266.885 812.341C266.781 810.804 262.828 809.774 259.419 809.617C261.99 807.605 264.353 804.824 263.631 803.566C262.966 802.409 259.876 802.857 257.024 803.876C258.712 801.463 259.898 798.745 258.995 797.815C257.869 796.656 253.875 798.656 251.149 800.867C251.679 797.422 251.411 793.074 249.866 792.681C248.574 792.352 246.742 794.881 245.486 797.636C244.931 794.745 243.807 792 242.51 792C240.663 792 239.165 797.57 239.165 801.199C239.165 801.404 239.17 801.597 239.18 801.782C238.994 801.567 238.782 801.342 238.54 801.107C235.936 798.579 230.897 795.772 229.61 797.098C228.706 798.028 229.893 800.747 231.58 803.159C228.729 802.141 225.638 801.693 224.974 802.849C224.081 804.403 227.897 808.282 230.998 810.163C230.812 810.141 230.616 810.122 230.408 810.108C226.787 809.861 221.128 810.976 221.002 812.819C220.914 814.113 223.576 815.421 226.423 816.171C223.589 817.237 220.94 818.892 221.181 820.204C221.473 821.796 225.922 822.354 229.42 822.027C226.807 824.535 223.973 829.027 225.155 830.343C226.022 831.308 228.815 830.31 231.337 828.79C230.127 831.566 229.469 834.619 230.578 835.36C232.043 836.34 236.061 832.93 238.179 829.995C237.963 833.585 238.823 838.518 240.527 838.712C241.816 838.86 243.244 836.26 244.123 833.45C245.058 836.33 246.591 839.051 247.913 838.87C249.631 838.636 250.38 833.58 250.06 829.987C252.245 832.801 255.922 835.811 257.31 834.882C258.418 834.141 257.761 831.088 256.551 828.312C259.072 829.832 261.865 830.83 262.732 829.866C263.915 828.549 261.081 824.057 258.467 821.549C261.966 821.876 266.415 821.318 266.707 819.726C266.947 818.414 264.299 816.759 261.465 815.693ZM246.136 825.849C245.404 825.949 244.735 826.092 244.226 826.456C243.686 825.919 242.896 825.756 242.018 825.656C241.035 825.544 240.142 825.533 239.461 826.1C239.212 825.407 238.599 824.915 237.885 824.437C237.271 824.027 236.675 823.69 236.053 823.625C236.004 822.864 235.522 822.218 234.932 821.561C234.555 821.142 234.178 820.767 233.76 820.517C234.363 819.782 234.294 818.854 234.107 817.836C233.974 817.109 233.801 816.447 233.414 815.956C233.926 815.391 234.053 814.595 234.113 813.713C234.179 812.751 234.152 811.878 233.596 811.228C235.032 811.411 235.725 810.516 236.369 809.395C236.737 808.755 237.032 808.138 237.055 807.513C237.81 807.412 238.422 806.887 239.037 806.253C239.563 805.712 240.01 805.176 240.178 804.559C240.781 805.065 241.603 805.142 242.51 805.142C243.394 805.142 244.197 805.069 244.795 804.597C245.259 805.016 245.908 805.234 246.623 805.416C247.307 805.59 247.951 805.707 248.538 805.59C248.752 806.078 249.132 806.523 249.567 806.97C250.183 807.604 250.794 808.129 251.549 808.23C251.572 808.855 251.868 809.472 252.236 810.112C252.669 810.866 253.124 811.518 253.812 811.809C253.731 812.246 253.74 812.728 253.774 813.236C253.835 814.117 253.962 814.913 254.473 815.478C254.086 815.969 253.913 816.631 253.78 817.358C253.594 818.376 253.524 819.304 254.127 820.039C253.709 820.289 253.333 820.664 252.956 821.083C252.366 821.741 251.883 822.387 251.834 823.147C251.212 823.212 250.617 823.549 250.003 823.959C249.164 824.52 248.466 825.102 248.332 826.004C247.703 825.699 246.95 825.738 246.136 825.849Z" fill="#FF6884"/>
<path d="M238.153 983L243.876 952.998C245.757 943.137 238.198 934 228.159 934H170.5C169 934.5 160.5 932.5 160.5 943.5C160.5 952.709 168.333 972.833 170.5 983C176.167 990.333 175.8 996.3 179 1003.5C183 1012.5 220.5 1003.5 227 1003.5C232.2 1003.5 237.32 994.167 238.153 983Z" fill="#FFDDAA"/>
<circle cx="244" cy="815" r="13" fill="#FF95A8"/>
<path d="M204 892.721C203.269 896.078 192.791 894.735 179.866 894.735C166.941 894.735 156.5 895.406 154.5 892.721C154.5 891.238 167.433 887.35 179.866 890.035C192.298 887.35 204 891.238 204 892.721Z" fill="#FF95A8"/>
<path d="M203 894.765C203 896.487 192.58 903 179.727 903C166.874 903 155 896.487 155 894.765C155 893.043 166.874 894.765 179.727 894.765C192.58 894.765 203 893.044 203 894.765Z" fill="#FF6884"/>
<path d="M246.5 782.881C246.5 787.851 219.457 780.881 193.5 780.881C167.543 780.881 152 780.851 152 775.881C152 770.91 169.043 773.881 195 773.881C220.957 773.881 246.5 777.91 246.5 782.881Z" fill="#FF95A8"/>
<path d="M162.912 859.652C163.154 858.279 157.125 860.408 152.834 859.652C148.543 858.895 140.135 853.644 139.893 855.017C139.651 856.39 141.686 860.521 145.977 861.277C150.267 862.034 162.67 861.025 162.912 859.652Z" fill="#3F3D56"/>
<path d="M160.668 860.082C160.575 860.752 161.749 859.769 163.005 859.944C164.261 860.118 165.123 861.384 165.216 860.714C165.309 860.045 164.367 859.36 163.111 859.186C161.855 859.011 160.761 859.412 160.668 860.082Z" fill="#3F3D56"/>
<path d="M136.234 852.019C136.918 853.469 137.326 854.89 139.267 856.129C141.208 857.368 142.692 858.59 143.468 857.376C144.243 856.162 142.471 855.001 140.53 853.762C138.589 852.523 137.522 851.858 136.234 852.019Z" fill="#3F3D56"/>
<path d="M137.439 857.127C138.291 857.667 138.969 858.252 140.498 858.429C142.028 858.605 143.282 858.869 143.367 858.133C143.452 857.397 142.047 857.222 140.517 857.046C138.988 856.869 138.152 856.78 137.439 857.127Z" fill="#3F3D56"/>
<path d="M137.421 861.074C138.428 861.139 139.303 861.326 140.73 860.747C142.156 860.167 143.383 859.797 143.104 859.11C142.825 858.424 141.509 858.945 140.082 859.525C138.656 860.104 137.88 860.427 137.421 861.074Z" fill="#3F3D56"/>
<path d="M160.663 864.274C160.226 863.55 159.919 862.906 158.917 861.947C157.916 860.988 157.128 860.15 156.871 860.418C156.614 860.687 157.53 861.573 158.531 862.532C159.532 863.491 160.081 864.012 160.663 864.274Z" fill="#3F3D56"/>
<path d="M158.669 863.436C158.51 862.831 158.44 862.295 157.865 861.485C157.291 860.674 156.863 859.967 156.56 860.182C156.257 860.397 156.78 861.146 157.355 861.957C157.929 862.768 158.245 863.208 158.669 863.436Z" fill="#3F3D56"/>
<path d="M139.984 861.132C140.975 861.321 141.82 861.616 143.308 861.217C144.795 860.819 146.058 860.603 145.866 859.887C145.674 859.171 143.917 859.229 143.308 860.217C141.82 860.615 140.519 860.547 139.984 861.132Z" fill="#3F3D56"/>
<path d="M141.795 862.357C142.801 862.293 144.173 862.725 145.514 861.969C146.855 861.212 147.545 860.331 147.181 859.685C146.816 859.04 145.129 859.533 144.785 860.642C143.444 861.399 142.167 861.657 141.795 862.357Z" fill="#3F3D56"/>
<path d="M145.965 863.454C146.882 863.165 148.127 863.185 149.358 862.261C150.589 861.336 151.229 860.466 150.905 860.035C150.582 859.604 149.038 860.4 148.711 861.37C147.48 862.295 146.313 862.805 145.965 863.454Z" fill="#3F3D56"/>
<path d="M146.176 864.323C147.093 864.034 146.543 865.248 147.774 864.323C149.005 863.399 151.44 861.336 151.116 860.905C150.793 860.474 149.249 861.269 148.922 862.24C147.69 863.164 146.524 863.674 146.176 864.323Z" fill="#3F3D56"/>
<path d="M149.017 864.84C149.877 864.571 150.854 864.911 151.549 863.92C152.244 862.928 153.418 860.69 152.659 860.158C151.9 859.626 150.718 860.442 151.152 861.558C150.457 862.55 148.882 864.103 149.017 864.84Z" fill="#3F3D56"/>
<path d="M153.19 862.858C153.792 862.567 153.148 864.448 153.717 863.636C154.285 862.825 155.305 861.036 154.855 860.721C154.405 860.405 153.53 861.137 153.702 861.921C153.133 862.733 153.178 862.324 153.19 862.858Z" fill="#3F3D56"/>
<path d="M155.352 863.321C155.657 862.726 156.277 864.615 156.242 863.625C156.207 862.635 155.943 860.592 155.393 860.612C154.844 860.631 154.587 861.743 155.196 862.265C155.232 863.255 155.021 862.903 155.352 863.321Z" fill="#3F3D56"/>
<path d="M157.635 863.55C157.697 862.884 157.778 863.387 157.378 862.48C156.979 861.574 156.508 860.601 156.005 860.823C155.502 861.045 155.675 862.172 156.435 862.432C156.835 863.338 157.172 863.284 157.635 863.55Z" fill="#3F3D56"/>
<path d="M196.022 861.652C195.78 860.279 201.809 862.408 206.1 861.652C210.39 860.895 218.799 855.644 219.041 857.017C219.283 858.39 217.248 862.521 212.957 863.277C208.666 864.034 196.264 863.025 196.022 861.652Z" fill="#3F3D56"/>
<path d="M198.266 862.082C198.359 862.752 197.184 861.769 195.928 861.944C194.672 862.118 193.81 863.384 193.717 862.714C193.624 862.045 194.567 861.36 195.823 861.186C197.079 861.011 198.172 861.412 198.266 862.082Z" fill="#3F3D56"/>
<path d="M222.7 854.019C222.015 855.469 221.608 856.89 219.667 858.129C217.726 859.368 216.241 860.59 215.466 859.376C214.691 858.162 216.463 857.001 218.404 855.762C220.345 854.523 221.411 853.858 222.7 854.019Z" fill="#3F3D56"/>
<path d="M221.494 859.127C220.643 859.667 219.965 860.252 218.435 860.429C216.906 860.605 215.652 860.869 215.567 860.133C215.482 859.397 216.887 859.222 218.417 859.046C219.946 858.869 220.782 858.78 221.494 859.127Z" fill="#3F3D56"/>
<path d="M221.512 863.074C220.506 863.139 219.63 863.326 218.204 862.747C216.778 862.167 215.551 861.797 215.83 861.11C216.109 860.424 217.425 860.945 218.851 861.525C220.278 862.104 221.054 862.427 221.512 863.074Z" fill="#3F3D56"/>
<path d="M198.27 866.274C198.708 865.55 199.015 864.906 200.016 863.947C201.017 862.988 201.806 862.15 202.063 862.418C202.32 862.687 201.404 863.573 200.402 864.532C199.401 865.491 198.852 866.012 198.27 866.274Z" fill="#3F3D56"/>
<path d="M200.265 865.436C200.423 864.831 200.494 864.295 201.068 863.485C201.643 862.674 202.07 861.967 202.373 862.182C202.677 862.397 202.153 863.146 201.579 863.957C201.005 864.768 200.688 865.208 200.265 865.436Z" fill="#3F3D56"/>
<path d="M218.949 863.132C217.959 863.321 217.113 863.616 215.626 863.217C214.139 862.819 212.876 862.603 213.067 861.887C213.259 861.171 215.016 861.229 215.626 862.217C217.113 862.615 218.414 862.547 218.949 863.132Z" fill="#3F3D56"/>
<path d="M217.139 864.357C216.132 864.293 214.76 864.725 213.42 863.969C212.079 863.212 211.389 862.331 211.753 861.685C212.117 861.04 213.804 861.533 214.149 862.642C215.489 863.399 216.766 863.657 217.139 864.357Z" fill="#3F3D56"/>
<path d="M212.969 865.454C212.051 865.165 210.807 865.185 209.576 864.261C208.344 863.336 207.704 862.466 208.028 862.035C208.352 861.604 209.895 862.4 210.223 863.37C211.454 864.295 212.621 864.805 212.969 865.454Z" fill="#3F3D56"/>
<path d="M212.758 866.323C211.84 866.034 212.391 867.248 211.159 866.323C209.928 865.399 207.494 863.336 207.817 862.905C208.141 862.474 209.684 863.269 210.012 864.24C211.243 865.164 212.41 865.674 212.758 866.323Z" fill="#3F3D56"/>
<path d="M209.917 866.84C209.057 866.571 208.08 866.911 207.385 865.92C206.689 864.928 205.515 862.69 206.274 862.158C207.033 861.626 208.215 862.442 207.781 863.558C208.477 864.55 210.052 866.103 209.917 866.84Z" fill="#3F3D56"/>
<path d="M205.744 864.858C205.142 864.567 205.786 866.448 205.217 865.636C204.648 864.825 203.628 863.036 204.078 862.721C204.529 862.405 205.403 863.137 205.232 863.921C205.801 864.733 205.756 864.324 205.744 864.858Z" fill="#3F3D56"/>
<path d="M203.581 865.321C203.276 864.726 202.657 866.615 202.692 865.625C202.727 864.635 202.991 862.592 203.54 862.612C204.09 862.631 204.347 863.743 203.737 864.265C203.702 865.255 203.913 864.903 203.581 865.321Z" fill="#3F3D56"/>
<path d="M201.299 865.55C201.236 864.884 201.155 865.387 201.555 864.48C201.955 863.574 202.426 862.601 202.929 862.823C203.432 863.045 203.258 864.172 202.498 864.432C202.099 865.338 201.762 865.284 201.299 865.55Z" fill="#3F3D56"/>
</g>
<defs>
<clipPath id="clip0_359_315">
<rect width="382" height="1273" fill="white"/>
</clipPath>
</defs>
</svg>
