<svg width="382" height="1022" viewBox="0 0 382 1022" fill="none" xmlns="http://www.w3.org/2000/svg">
<g clip-path="url(#clip0_359_315)">
<path d="M0 514C0 497.431 13.4315 484 30 484H351C367.569 484 381 497.431 381 514V1022H0V514Z" fill="#FAF3EB"/>
<path d="M238.499 701.5L243.357 632.732L163.719 641.242L168.499 701.5H238.499Z" fill="#FFDDAA"/>
<path d="M279.901 972.59V1022.28L278.182 1021.52H70.4453L76.4438 985.388L77.4555 979.294L78.2523 974.519L116.088 974.161L116.123 974.152L131.227 974.013L135.068 973.978L138.067 973.943L183.423 973.515L245.252 972.922L279.901 972.59Z" fill="#3F3D56"/>
<path d="M162.629 682.728L248.813 690.174L307.59 748.069L285.36 887.494L279.905 988.548L74.8086 985.357L98.8093 867.284L87.8999 706.661L162.629 682.728Z" fill="white"/>
<path d="M179.538 675.813C219.906 675.813 252.631 643.905 252.631 604.544C252.631 565.183 219.906 533.274 179.538 533.274C139.17 533.274 106.445 565.183 106.445 604.544C106.445 643.905 139.17 675.813 179.538 675.813Z" fill="#FFDDAA"/>
<path opacity="0.7" d="M179.537 668.45C215.632 668.45 166 669.195 166 634C166 598.805 215.632 540.997 179.537 540.997C143.441 540.997 114.18 569.528 114.18 604.723C114.18 639.919 143.441 668.45 179.537 668.45Z" fill="white"/>
<path d="M103.718 707.193C103.718 707.193 69.8986 700.811 55.7164 731.659C41.5341 762.507 32.8066 807.183 32.8066 807.183L109.172 810.374L103.718 707.193Z" fill="white"/>
<path d="M275.429 716.543C275.429 716.543 309.086 710.205 323.2 740.837C337.314 771.468 346 815.831 346 815.831L270 819L275.429 716.543Z" fill="white"/>
<path d="M193.227 1021.52H126.008L112.534 1009.06L112.498 1009.09L112.722 1008.87L134.281 987.657L135.65 986.304L141.918 980.15L142.079 979.984L144.666 982.629L148.453 986.505L148.65 986.706L169.35 1007.87C177.989 1010.31 185.895 1014.75 192.412 1020.78C192.69 1021.02 192.959 1021.28 193.227 1021.52Z" fill="#FFDDAA"/>
<path d="M148.958 986.506L137.514 976.177L133.533 972.592L117.583 958.2L109.008 949.499L96.8115 937.138L90.7677 931.011L86.6876 926.884L82.9893 923.129L84.4839 908.003L87.5713 876.836L91.5314 836.808L94.6187 805.609L94.9897 801.865L81.833 783.34L32.5915 806.91L19.4749 902.259L17.2493 912.534C15.4059 921.036 18.4603 929.842 25.2178 935.507L70.4435 973.422L76.2473 978.283L84.8657 985.517L113.187 1009.26L148.958 986.506Z" fill="white"/>
<path d="M154.094 737.89C154.094 737.89 216.298 677.973 240.899 688.689C265.5 699.404 307.39 750.103 307.39 750.103L246.98 797.802L154.094 737.89Z" fill="white"/>
<ellipse cx="234.5" cy="644.113" rx="15.5" ry="15.1133" fill="white"/>
<path opacity="0.1" fill-rule="evenodd" clip-rule="evenodd" d="M234.5 659.227C243.06 659.227 250 652.46 250 644.113C250 635.766 243.06 629 234.5 629C225.94 629 219 635.766 219 644.113C219 652.46 225.94 659.227 234.5 659.227ZM247.266 644.113C247.266 650.886 241.616 656.493 234.5 656.493C227.384 656.493 221.734 650.886 221.734 644.113C221.734 637.341 227.384 631.734 234.5 631.734C241.616 631.734 247.266 637.341 247.266 644.113Z" fill="#2F2E41"/>
<path d="M340.908 602.035L299.159 610.754C289.987 608.825 280.442 608.933 271.325 611.068C248.424 616.127 232.72 631.026 236.239 644.349C239.758 657.672 261.169 664.372 284.06 659.312C293.241 657.405 301.789 653.514 308.988 647.966L330.5 644.349L320.033 606.394L340.908 602.035Z" fill="#FF95A8"/>
<path d="M272.691 981.063L234.197 994.731C225.263 993.848 216.229 995.067 207.851 998.286C186.77 1006.06 173.731 1022.95 178.719 1036C183.707 1049.06 204.833 1053.34 225.906 1045.57C234.372 1042.57 241.993 1037.64 248.129 1031.2L285.952 1019.84L272.683 981.028L272.691 981.063Z" fill="#FFDDAA"/>
<path d="M243.5 991.977L255 986.5L262.017 983.908L276.439 968.009L284.097 958.502L294.991 944.996L300.389 938.301L304.034 933.79L307.337 929.688L304.358 914.777L298.213 884.056L290.326 844.599L284.177 813.846L283.439 810.155L294.678 790.418L345.919 809.027L368.366 902.652L371.592 912.661C374.263 920.943 372.098 930.009 365.946 936.315L324.767 978.516L319.482 983.927L311.636 991.977L285.849 1018.4L243.5 991.977Z" fill="white"/>
<path d="M130.62 598.05L127.609 602.105L135.757 597.837L141.387 596.138C142.782 595.717 144.246 595.577 145.696 595.727L161.446 597.355C163.431 597.56 164.839 595.464 163.898 593.704C163.498 592.955 162.743 592.462 161.896 592.396L146.465 591.192C144.828 591.065 143.181 591.133 141.559 591.396C137.186 592.105 133.261 594.492 130.62 598.05Z" fill="#3F3D56"/>
<path d="M226.488 598.05L229.498 602.105L221.35 597.837L215.721 596.138C214.326 595.717 212.861 595.577 211.412 595.727L195.661 597.355C193.676 597.56 192.268 595.464 193.209 593.704C193.61 592.955 194.364 592.462 195.211 592.396L210.642 591.192C212.28 591.065 213.927 591.133 215.548 591.396C219.922 592.105 223.846 594.492 226.488 598.05Z" fill="#3F3D56"/>
<path d="M119.445 651.259L124.057 655.085L92.7204 692.127C91.8571 693.147 90.3329 693.282 89.3041 692.428V692.428C88.2779 691.577 88.1262 690.06 88.9636 689.022L119.445 651.259Z" fill="#2F2E41"/>
<path d="M129.385 637.263L135.973 642.728L124.268 655.262L119.57 651.364L129.385 637.263Z" fill="white"/>
<path d="M132.364 627.263C133.568 623.404 136.397 620.591 139.89 622.625C141.258 623.421 142.932 624.59 144.972 626.281C146.697 627.713 148.002 628.953 148.985 630.022C152.018 633.319 149.515 636.816 145.4 638.586L135.905 642.671L129.272 637.169L132.364 627.263Z" fill="#2F2E41"/>
<path d="M69.6348 620.747L86.5359 637.517C94.6685 640.423 102.028 645.193 108 651.428C123.157 666.838 127.593 686.843 117.914 696.119C108.235 705.395 88.1065 700.427 72.9569 685.021C66.8172 678.943 62.2035 671.538 59.5016 663.425L39.8415 644.265L69.6348 620.747Z" fill="#FF95A8"/>
<path d="M380.5 597.5V548.5L347.5 582.5L320 606L330.5 643.5L380.5 597.5Z" fill="#FFDDAA"/>
<path d="M46.5 651L-1 610V501.5L4.97581 494.911C13.2944 485.739 26.0057 481.925 38 485L25.5 546.5L26.0926 550.018C30.8513 578.273 46.1939 603.655 69 621L46.5 651Z" fill="#FFDDAA"/>
<path d="M223.5 563.858C223.5 563.858 193.952 561.478 165.38 563.858C136.807 566.238 112.5 571.5 112.5 571.5C112.5 571.5 113.273 537.023 153.204 524.672C153.204 524.672 102.432 481.967 162.88 461.019C223.329 440.07 257.154 466.788 257.154 466.788C257.154 466.788 301.898 504.901 245.544 533.388C245.544 533.388 287.389 581.415 236.726 621C236.726 621 252.324 577.093 240.5 583C228.676 588.907 223.5 563.858 223.5 563.858Z" fill="#2F2E41"/>
<path d="M261.465 564.693C264.312 563.943 266.974 562.635 266.885 561.341C266.781 559.804 262.828 558.774 259.419 558.617C261.99 556.605 264.353 553.824 263.631 552.566C262.966 551.409 259.876 551.857 257.024 552.876C258.712 550.463 259.898 547.745 258.995 546.815C257.869 545.656 253.875 547.656 251.149 549.867C251.679 546.422 251.411 542.074 249.866 541.681C248.574 541.352 246.742 543.881 245.486 546.636C244.931 543.745 243.807 541 242.51 541C240.663 541 239.165 546.57 239.165 550.199C239.165 550.404 239.17 550.597 239.18 550.782C238.994 550.567 238.782 550.342 238.54 550.107C235.936 547.579 230.897 544.772 229.61 546.098C228.706 547.028 229.893 549.747 231.58 552.159C228.729 551.141 225.638 550.693 224.974 551.849C224.081 553.403 227.897 557.282 230.998 559.163C230.812 559.141 230.616 559.122 230.408 559.108C226.787 558.861 221.128 559.976 221.002 561.819C220.914 563.113 223.576 564.421 226.423 565.171C223.589 566.237 220.94 567.892 221.181 569.204C221.473 570.796 225.922 571.354 229.42 571.027C226.807 573.535 223.973 578.027 225.155 579.343C226.022 580.308 228.815 579.31 231.337 577.79C230.127 580.566 229.469 583.619 230.578 584.36C232.043 585.34 236.061 581.93 238.179 578.995C237.963 582.585 238.823 587.518 240.527 587.712C241.816 587.86 243.244 585.26 244.123 582.45C245.058 585.33 246.591 588.051 247.913 587.87C249.631 587.636 250.38 582.58 250.06 578.987C252.245 581.801 255.922 584.811 257.31 583.882C258.418 583.141 257.761 580.088 256.551 577.312C259.072 578.832 261.865 579.83 262.732 578.866C263.915 577.549 261.081 573.057 258.467 570.549C261.966 570.876 266.415 570.318 266.707 568.726C266.947 567.414 264.299 565.759 261.465 564.693ZM246.136 574.849C245.404 574.949 244.735 575.092 244.226 575.456C243.686 574.919 242.896 574.756 242.018 574.656C241.035 574.544 240.142 574.533 239.461 575.1C239.212 574.407 238.599 573.915 237.885 573.437C237.271 573.027 236.675 572.69 236.053 572.625C236.004 571.864 235.522 571.218 234.932 570.561C234.555 570.142 234.178 569.767 233.76 569.517C234.363 568.782 234.294 567.854 234.107 566.836C233.974 566.109 233.801 565.447 233.414 564.956C233.926 564.391 234.053 563.595 234.113 562.713C234.179 561.751 234.152 560.878 233.596 560.228C235.032 560.411 235.725 559.516 236.369 558.395C236.737 557.755 237.032 557.138 237.055 556.513C237.81 556.412 238.422 555.887 239.037 555.253C239.563 554.712 240.01 554.176 240.178 553.559C240.781 554.065 241.603 554.142 242.51 554.142C243.394 554.142 244.197 554.069 244.795 553.597C245.259 554.016 245.908 554.234 246.623 554.416C247.307 554.59 247.951 554.707 248.538 554.59C248.752 555.078 249.132 555.523 249.567 555.97C250.183 556.604 250.794 557.129 251.549 557.23C251.572 557.855 251.868 558.472 252.236 559.112C252.669 559.866 253.124 560.518 253.812 560.809C253.731 561.246 253.74 561.728 253.774 562.236C253.835 563.117 253.962 563.913 254.473 564.478C254.086 564.969 253.913 565.631 253.78 566.358C253.594 567.376 253.524 568.304 254.127 569.039C253.709 569.289 253.333 569.664 252.956 570.083C252.366 570.741 251.883 571.387 251.834 572.147C251.212 572.212 250.617 572.549 250.003 572.959C249.164 573.52 248.466 574.102 248.332 575.004C247.703 574.699 246.95 574.738 246.136 574.849Z" fill="#FF6884"/>
<path d="M238.153 732L243.876 701.998C245.757 692.137 238.198 683 228.159 683H170.5C169 683.5 160.5 681.5 160.5 692.5C160.5 701.709 168.333 721.833 170.5 732C176.167 739.333 175.8 745.3 179 752.5C183 761.5 220.5 752.5 227 752.5C232.2 752.5 237.32 743.167 238.153 732Z" fill="#FFDDAA"/>
<circle cx="244" cy="564" r="13" fill="#FF95A8"/>
<path d="M204 641.721C203.269 645.078 192.791 643.735 179.866 643.735C166.941 643.735 156.5 644.406 154.5 641.721C154.5 640.238 167.433 636.35 179.866 639.035C192.298 636.35 204 640.238 204 641.721Z" fill="#FF95A8"/>
<path d="M203 643.765C203 645.487 192.58 652 179.727 652C166.874 652 155 645.487 155 643.765C155 642.043 166.874 643.765 179.727 643.765C192.58 643.765 203 642.044 203 643.765Z" fill="#FF6884"/>
<path d="M246.5 531.881C246.5 536.851 219.457 529.881 193.5 529.881C167.543 529.881 152 529.851 152 524.881C152 519.91 169.043 522.881 195 522.881C220.957 522.881 246.5 526.91 246.5 531.881Z" fill="#FF95A8"/>
<path d="M162.912 608.652C163.154 607.279 157.125 609.408 152.834 608.652C148.543 607.895 140.135 602.644 139.893 604.017C139.651 605.39 141.686 609.521 145.977 610.277C150.267 611.034 162.67 610.025 162.912 608.652Z" fill="#3F3D56"/>
<path d="M160.668 609.082C160.575 609.752 161.749 608.769 163.005 608.944C164.261 609.118 165.123 610.384 165.216 609.714C165.309 609.045 164.367 608.36 163.111 608.186C161.855 608.011 160.761 608.412 160.668 609.082Z" fill="#3F3D56"/>
<path d="M136.234 601.019C136.918 602.469 137.326 603.89 139.267 605.129C141.208 606.368 142.692 607.59 143.468 606.376C144.243 605.162 142.471 604.001 140.53 602.762C138.589 601.523 137.522 600.858 136.234 601.019Z" fill="#3F3D56"/>
<path d="M137.439 606.127C138.291 606.667 138.969 607.252 140.498 607.429C142.028 607.605 143.282 607.869 143.367 607.133C143.452 606.397 142.047 606.222 140.517 606.046C138.988 605.869 138.152 605.78 137.439 606.127Z" fill="#3F3D56"/>
<path d="M137.421 610.074C138.428 610.139 139.303 610.326 140.73 609.747C142.156 609.167 143.383 608.797 143.104 608.11C142.825 607.424 141.509 607.945 140.082 608.525C138.656 609.104 137.88 609.427 137.421 610.074Z" fill="#3F3D56"/>
<path d="M160.663 613.274C160.226 612.55 159.919 611.906 158.917 610.947C157.916 609.988 157.128 609.15 156.871 609.418C156.614 609.687 157.53 610.573 158.531 611.532C159.532 612.491 160.081 613.012 160.663 613.274Z" fill="#3F3D56"/>
<path d="M158.669 612.436C158.51 611.831 158.44 611.295 157.865 610.485C157.291 609.674 156.863 608.967 156.56 609.182C156.257 609.397 156.78 610.146 157.355 610.957C157.929 611.768 158.245 612.208 158.669 612.436Z" fill="#3F3D56"/>
<path d="M139.984 610.132C140.975 610.321 141.82 610.616 143.308 610.217C144.795 609.819 146.058 609.603 145.866 608.887C145.674 608.171 143.917 608.229 143.308 609.217C141.82 609.615 140.519 609.547 139.984 610.132Z" fill="#3F3D56"/>
<path d="M141.795 611.357C142.801 611.293 144.173 611.725 145.514 610.969C146.855 610.212 147.545 609.331 147.181 608.685C146.816 608.04 145.129 608.533 144.785 609.642C143.444 610.399 142.167 610.657 141.795 611.357Z" fill="#3F3D56"/>
<path d="M145.965 612.454C146.882 612.165 148.127 612.185 149.358 611.261C150.589 610.336 151.229 609.466 150.905 609.035C150.582 608.604 149.038 609.4 148.711 610.37C147.48 611.295 146.313 611.805 145.965 612.454Z" fill="#3F3D56"/>
<path d="M146.176 613.323C147.093 613.034 146.543 614.248 147.774 613.323C149.005 612.399 151.44 610.336 151.116 609.905C150.793 609.474 149.249 610.269 148.922 611.24C147.69 612.164 146.524 612.674 146.176 613.323Z" fill="#3F3D56"/>
<path d="M149.017 613.84C149.877 613.571 150.854 613.911 151.549 612.92C152.244 611.928 153.418 609.69 152.659 609.158C151.9 608.626 150.718 609.442 151.152 610.558C150.457 611.55 148.882 613.103 149.017 613.84Z" fill="#3F3D56"/>
<path d="M153.19 611.858C153.792 611.567 153.148 613.448 153.717 612.636C154.285 611.825 155.305 610.036 154.855 609.721C154.405 609.405 153.53 610.137 153.702 610.921C153.133 611.733 153.178 611.324 153.19 611.858Z" fill="#3F3D56"/>
<path d="M155.352 612.321C155.657 611.726 156.277 613.615 156.242 612.625C156.207 611.635 155.943 609.592 155.393 609.612C154.844 609.631 154.587 610.743 155.196 611.265C155.232 612.255 155.021 611.903 155.352 612.321Z" fill="#3F3D56"/>
<path d="M157.635 612.55C157.697 611.884 157.778 612.387 157.378 611.48C156.979 610.574 156.508 609.601 156.005 609.823C155.502 610.045 155.675 611.172 156.435 611.432C156.835 612.338 157.172 612.284 157.635 612.55Z" fill="#3F3D56"/>
<path d="M196.022 610.652C195.78 609.279 201.809 611.408 206.1 610.652C210.39 609.895 218.799 604.644 219.041 606.017C219.283 607.39 217.248 611.521 212.957 612.277C208.666 613.034 196.264 612.025 196.022 610.652Z" fill="#3F3D56"/>
<path d="M198.266 611.082C198.359 611.752 197.184 610.769 195.928 610.944C194.672 611.118 193.81 612.384 193.717 611.714C193.624 611.045 194.567 610.36 195.823 610.186C197.079 610.011 198.172 610.412 198.266 611.082Z" fill="#3F3D56"/>
<path d="M222.7 603.019C222.015 604.469 221.608 605.89 219.667 607.129C217.726 608.368 216.241 609.59 215.466 608.376C214.691 607.162 216.463 606.001 218.404 604.762C220.345 603.523 221.411 602.858 222.7 603.019Z" fill="#3F3D56"/>
<path d="M221.494 608.127C220.643 608.667 219.965 609.252 218.435 609.429C216.906 609.605 215.652 609.869 215.567 609.133C215.482 608.397 216.887 608.222 218.417 608.046C219.946 607.869 220.782 607.78 221.494 608.127Z" fill="#3F3D56"/>
<path d="M221.512 612.074C220.506 612.139 219.63 612.326 218.204 611.747C216.778 611.167 215.551 610.797 215.83 610.11C216.109 609.424 217.425 609.945 218.851 610.525C220.278 611.104 221.054 611.427 221.512 612.074Z" fill="#3F3D56"/>
<path d="M198.27 615.274C198.708 614.55 199.015 613.906 200.016 612.947C201.017 611.988 201.806 611.15 202.063 611.418C202.32 611.687 201.404 612.573 200.402 613.532C199.401 614.491 198.852 615.012 198.27 615.274Z" fill="#3F3D56"/>
<path d="M200.265 614.436C200.423 613.831 200.494 613.295 201.068 612.485C201.643 611.674 202.07 610.967 202.373 611.182C202.677 611.397 202.153 612.146 201.579 612.957C201.005 613.768 200.688 614.208 200.265 614.436Z" fill="#3F3D56"/>
<path d="M218.949 612.132C217.959 612.321 217.113 612.616 215.626 612.217C214.139 611.819 212.876 611.603 213.067 610.887C213.259 610.171 215.016 610.229 215.626 611.217C217.113 611.615 218.414 611.547 218.949 612.132Z" fill="#3F3D56"/>
<path d="M217.139 613.357C216.132 613.293 214.76 613.725 213.42 612.969C212.079 612.212 211.389 611.331 211.753 610.685C212.117 610.04 213.804 610.533 214.149 611.642C215.489 612.399 216.766 612.657 217.139 613.357Z" fill="#3F3D56"/>
<path d="M212.969 614.454C212.051 614.165 210.807 614.185 209.576 613.261C208.344 612.336 207.704 611.466 208.028 611.035C208.352 610.604 209.895 611.4 210.223 612.37C211.454 613.295 212.621 613.805 212.969 614.454Z" fill="#3F3D56"/>
<path d="M212.758 615.323C211.84 615.034 212.391 616.248 211.159 615.323C209.928 614.399 207.494 612.336 207.817 611.905C208.141 611.474 209.684 612.269 210.012 613.24C211.243 614.164 212.41 614.674 212.758 615.323Z" fill="#3F3D56"/>
<path d="M209.917 615.84C209.057 615.571 208.08 615.911 207.385 614.92C206.689 613.928 205.515 611.69 206.274 611.158C207.033 610.626 208.215 611.442 207.781 612.558C208.477 613.55 210.052 615.103 209.917 615.84Z" fill="#3F3D56"/>
<path d="M205.744 613.858C205.142 613.567 205.786 615.448 205.217 614.636C204.648 613.825 203.628 612.036 204.078 611.721C204.529 611.405 205.403 612.137 205.232 612.921C205.801 613.733 205.756 613.324 205.744 613.858Z" fill="#3F3D56"/>
<path d="M203.581 614.321C203.276 613.726 202.657 615.615 202.692 614.625C202.727 613.635 202.991 611.592 203.54 611.612C204.09 611.631 204.347 612.743 203.737 613.265C203.702 614.255 203.913 613.903 203.581 614.321Z" fill="#3F3D56"/>
<path d="M201.299 614.55C201.236 613.884 201.155 614.387 201.555 613.48C201.955 612.574 202.426 611.601 202.929 611.823C203.432 612.045 203.258 613.172 202.498 613.432C202.099 614.338 201.762 614.284 201.299 614.55Z" fill="#3F3D56"/>
</g>
<defs>
<clipPath id="clip0_359_315">
<rect width="382" height="1022" fill="white"/>
</clipPath>
</defs>
</svg>
