<svg width="227" height="227" viewBox="0 0 227 227" fill="none" xmlns="http://www.w3.org/2000/svg">
<circle cx="113.5" cy="113.5" r="110.5" stroke="#FB923C" stroke-width="6"/>
<path fill-rule="evenodd" clip-rule="evenodd" d="M73.2998 38.232L199.095 104.108C202.03 105.645 203.164 109.271 201.627 112.207L162.658 186.621C161.12 189.556 157.495 190.69 154.559 189.152L28.764 123.277C25.8285 121.739 24.695 118.113 26.2322 115.178L65.201 40.7638C66.7383 37.8283 70.3643 36.6948 73.2998 38.232ZM58.9999 37.5164C62.3306 31.1561 70.1868 28.7001 76.5472 32.0309L202.342 97.9067C208.703 101.237 211.158 109.094 207.828 115.454L168.859 189.868C165.528 196.228 157.672 198.684 151.312 195.354L25.5166 129.478C19.1563 126.147 16.7003 118.291 20.0311 111.93L58.9999 37.5164Z" fill="#FB923C"/>
<rect x="33" y="59" width="161" height="101" fill="white"/>
<path d="M157.359 143.359C156.422 142.513 156.188 141.758 156.656 141.094L158.004 139.18C158.447 138.555 159.124 138.62 160.035 139.375C160.738 139.961 161.572 140.41 162.535 140.723C163.512 141.022 164.352 141.217 165.055 141.309V133.047C164.026 132.669 162.926 132.155 161.754 131.504C161.155 131.165 160.497 130.638 159.781 129.922C159.078 129.193 158.512 128.353 158.082 127.402C157.652 126.452 157.438 125.273 157.438 123.867C157.438 122.018 157.958 120.501 159 119.316C160.042 118.132 161.018 117.409 161.93 117.148C162.841 116.875 163.883 116.693 165.055 116.602V114.609C165.055 113.828 165.38 113.438 166.031 113.438H167.594C168.245 113.438 168.57 113.828 168.57 114.609V116.602C169.508 116.719 170.484 116.979 171.5 117.383C172.516 117.786 173.342 118.223 173.98 118.691C174.736 119.251 174.911 119.837 174.508 120.449L173.18 122.48C172.711 123.184 172.151 123.236 171.5 122.637C171.005 122.181 170.497 121.842 169.977 121.621C169.456 121.4 168.987 121.23 168.57 121.113V128.73C169.651 129.108 170.758 129.59 171.891 130.176C172.724 130.605 173.44 131.126 174.039 131.738C174.638 132.35 175.139 133.112 175.543 134.023C175.96 134.935 176.168 136.165 176.168 137.715C176.168 139.447 175.784 140.892 175.016 142.051C174.26 143.21 173.368 144.056 172.34 144.59C171.311 145.124 170.055 145.469 168.57 145.625V147.93C168.57 148.711 168.245 149.102 167.594 149.102H166.031C165.38 149.102 165.055 148.711 165.055 147.93V145.625C163.727 145.56 162.32 145.358 160.836 145.02C159.365 144.694 158.206 144.141 157.359 143.359ZM162.438 123.828C162.438 124.766 162.633 125.475 163.023 125.957C163.414 126.439 163.818 126.777 164.234 126.973C164.456 127.077 164.729 127.194 165.055 127.324V120.996C164.339 121.126 163.72 121.445 163.199 121.953C162.691 122.448 162.438 123.073 162.438 123.828ZM168.57 141.25C169.052 141.107 169.592 140.814 170.191 140.371C170.79 139.915 171.09 139.076 171.09 137.852C171.09 137.005 170.953 136.341 170.68 135.859C170.419 135.365 169.938 134.948 169.234 134.609C169.026 134.505 168.805 134.401 168.57 134.297V141.25Z" fill="#FB923C"/>
<path fill-rule="evenodd" clip-rule="evenodd" d="M186 62H42C39.2386 62 37 64.2386 37 67V153C37 155.761 39.2386 158 42 158H186C188.761 158 191 155.761 191 153V67C191 64.2386 188.761 62 186 62ZM42 55C35.3726 55 30 60.3726 30 67V153C30 159.627 35.3726 165 42 165H186C192.627 165 198 159.627 198 153V67C198 60.3726 192.627 55 186 55H42Z" fill="#FB923C"/>
<path fill-rule="evenodd" clip-rule="evenodd" d="M79 62V160H87V62H79Z" fill="#FB923C"/>
<path fill-rule="evenodd" clip-rule="evenodd" d="M192 97H35V105H192V97Z" fill="#FB923C"/>
<path fill-rule="evenodd" clip-rule="evenodd" d="M111.153 73.6888C111.205 73.8272 111.27 74.0466 111.321 74.3717C111.446 75.1725 111.436 76.3316 111.135 77.7631C110.534 80.6233 108.886 84.0428 105.964 86.9645C102.98 89.9494 98.6343 92.4499 94.6809 93.7944C92.7111 94.4642 91.0754 94.7651 89.9428 94.7928C89.8254 94.7957 89.7206 94.7957 89.6274 94.7936C89.6156 94.699 89.605 94.5912 89.5969 94.4691C89.5311 93.4868 89.6651 92.0647 90.1297 90.3366C91.0618 86.8694 93.1085 82.9626 96.0355 80.0355C98.9626 77.1085 102.869 75.0618 106.337 74.1296C108.065 73.665 109.487 73.531 110.469 73.5968C110.788 73.6181 111.009 73.6557 111.153 73.6888ZM109.5 90.5C116.725 83.2753 117.968 73.3297 114.648 70.0103C111.329 66.6908 99.7247 69.2753 92.5 76.5C85.2753 83.7247 82.691 95.3286 86.0104 98.6481C89.3299 101.968 102.275 97.7247 109.5 90.5Z" fill="#FB923C"/>
<path fill-rule="evenodd" clip-rule="evenodd" d="M54.1658 73.5077C54.114 73.646 54.0492 73.8654 53.9982 74.1905C53.8724 74.9914 53.8833 76.1504 54.1839 77.582C54.7846 80.4422 56.4327 83.8617 59.3544 86.7833C62.3393 89.7683 66.6845 92.2687 70.638 93.6132C72.6077 94.2831 74.2435 94.584 75.376 94.6117C75.4934 94.6145 75.5983 94.6145 75.6915 94.6124C75.7032 94.5179 75.7138 94.4101 75.722 94.2879C75.7877 93.3057 75.6537 91.8836 75.1892 90.1555C74.257 86.6883 72.2104 82.7815 69.2833 79.8544C66.3562 76.9273 62.4494 74.8806 58.9821 73.9485C57.254 73.4839 55.8319 73.3499 54.8496 73.4156C54.5305 73.437 54.3094 73.4746 54.1658 73.5077ZM55.8188 90.3188C48.5941 83.0941 47.3512 73.1486 50.6706 69.8291C53.9901 66.5097 65.5941 69.0941 72.8188 76.3188C80.0435 83.5435 82.6279 95.1475 79.3084 98.4669C75.989 101.786 63.0435 97.5435 55.8188 90.3188Z" fill="#FB923C"/>
<path d="M79.1321 101.446L75.5138 103.902C66.6542 109.915 66.9685 117.71 65 128.235L64.5 134.297C-nan -nan -nan -nan 66.7712 133.047L-nan -nanC-nan -nan -nan -nan -nan -nanC-nan -nan -nan -nan -nan -nanC-nan -nan -nan -nan -nan -nanL-nan -nanC-nan -nan -nan -nan -nan -nanC-nan -nan -nan -nan -nan -nanC-nan -nan -nan -nan -nan -nanL66.7712 133.047C-nan -nan -nan -nan -nan -nanC-nan -nan -nan -nan 64.5 134.297V134.297V134.297C71.6923 130.339 75.0388 124.395 74.5617 116.199C74.4922 115.004 74.9076 113.809 76.3237 112.5L83.2066 104.114L79.1321 101.446Z" fill="#FB923C"/>
<path d="M89 99.8759V99.8759C92.3941 102.3 92.1203 108.454 93.7937 112.275C95.4991 116.169 99.6801 120.646 99.6881 126.195C99.6901 127.557 99.2128 128.861 98.6449 130.099L97 133.685C-nan -nan -nan -nan 96 133.46L-nan -nanC-nan -nan -nan -nan -nan -nanC-nan -nan -nan -nan -nan -nanC-nan -nan -nan -nan -nan -nanL-nan -nanC-nan -nan -nan -nan -nan -nanC-nan -nan -nan -nan -nan -nanC-nan -nan -nan -nan -nan -nanL96 133.46C-nan -nan -nan -nan -nan -nanC-nan -nan -nan -nan 97 133.685V133.685V133.685C94.0098 130.426 93.7231 125.085 91.6382 121.185C90.3619 118.797 88.3636 116.594 87.3646 114.559C85.9663 111.711 87.2027 107.812 86 104.876V104.876L89 99.8759Z" fill="#FB923C"/>
</svg>
