<svg width="578" height="578" viewBox="0 0 578 578" fill="none" xmlns="http://www.w3.org/2000/svg">
<circle cx="289" cy="289" r="289" fill="#FB923C"/>
<path d="M443.834 388.684C431.535 395.194 423.92 395.497 417.847 394.195C411.773 392.893 399.716 398.948 399.716 398.948C293.2 435.461 289 452.688 289 452.688L412.317 409.06C436.037 398.645 436.491 402.309 436.491 402.309C454.621 419.384 477.707 407.819 477.707 407.819C477.707 407.819 509.647 392.681 500.249 378.118C490.852 363.555 456.162 382.296 443.834 388.684ZM495.203 385.96C495.203 385.96 486.138 410.18 453.533 406.244C453.533 406.244 437.518 403.883 444.287 391.924C444.287 391.924 477.526 377.936 486.319 378.935C495.112 379.935 495.112 386.081 495.112 386.081L495.203 385.96Z" fill="white"/>
<path opacity="0.1" d="M443.834 390.528C431.535 397.038 423.92 397.341 417.847 396.039C411.773 394.737 399.716 400.792 399.716 400.792C293.2 437.305 289 454.532 289 454.532L412.317 410.904C436.037 400.489 436.491 404.153 436.491 404.153C454.621 421.228 477.707 409.663 477.707 409.663C477.707 409.663 509.647 394.525 500.249 379.962C490.852 365.399 456.162 384.14 443.834 390.528ZM495.203 387.804C495.203 387.804 486.138 412.024 453.533 408.088C453.533 408.088 437.518 405.727 444.287 393.768C444.287 393.768 477.526 379.78 486.319 380.779C495.112 381.779 495.112 387.925 495.112 387.925L495.203 387.804Z" fill="black"/>
<path d="M450.605 323.012C432.172 323.618 428.335 337.424 428.335 337.424C424.645 341.836 422.482 347.328 422.172 353.077C421.861 358.825 423.419 364.519 426.612 369.304L393.887 401.912C387.686 404.309 382.356 408.531 378.597 414.022C378.597 414.022 306.74 477.602 307.798 483.385C307.798 483.385 319.522 489.44 393.887 421.531L413.407 404.213C413.407 404.213 417.728 371.848 448.217 365.702C448.217 365.702 451.239 367.034 452.841 359.828C454.55 356.372 456.828 353.23 459.579 350.533C463.628 346.779 469.037 322.376 450.605 323.012ZM455.772 344.902C455.772 344.902 445.891 370.455 431.809 363.068C417.728 355.68 431.417 338.635 431.417 338.635C455.832 314.838 455.772 344.902 455.772 344.902Z" fill="white"/>
<path opacity="0.1" d="M394.518 414.628C396.671 414.628 398.416 412.879 398.416 410.722C398.416 408.565 396.671 406.817 394.518 406.817C392.365 406.817 390.62 408.565 390.62 410.722C390.62 412.879 392.365 414.628 394.518 414.628Z" fill="black"/>
<path d="M173.776 305.864L237.853 318.495L237.723 319.156C235.902 328.395 232.574 337.272 227.872 345.432L172.448 333.339C171.419 324.818 171.741 316.189 173.401 307.769L173.776 305.864Z" fill="#2F2E41"/>
<rect x="193.339" y="292.359" width="2.43112" height="13.0238" rx="1" transform="rotate(11.1514 193.339 292.359)" fill="#D9D9D9"/>
<rect x="206.116" y="294.877" width="2.43112" height="13.0238" rx="1" transform="rotate(11.1514 206.116 294.877)" fill="#D9D9D9"/>
<rect x="218.895" y="297.396" width="2.43112" height="13.0238" rx="1" transform="rotate(11.1514 218.895 297.396)" fill="#D9D9D9"/>
<rect x="231.672" y="299.915" width="2.43112" height="13.0238" rx="1" transform="rotate(11.1514 231.672 299.915)" fill="#D9D9D9"/>
<rect x="184.82" y="290.679" width="2.43112" height="13.0238" rx="1" transform="rotate(11.1514 184.82 290.679)" fill="#D9D9D9"/>
<rect x="197.599" y="293.198" width="2.43112" height="13.0238" rx="1" transform="rotate(11.1514 197.599 293.198)" fill="#D9D9D9"/>
<rect x="210.376" y="295.717" width="2.43112" height="13.0238" rx="1" transform="rotate(11.1514 210.376 295.717)" fill="#D9D9D9"/>
<rect x="223.154" y="298.236" width="2.43112" height="13.0238" rx="1" transform="rotate(11.1514 223.154 298.236)" fill="#D9D9D9"/>
<rect x="189.079" y="291.519" width="2.43112" height="13.0238" rx="1" transform="rotate(11.1514 189.079 291.519)" fill="#D9D9D9"/>
<rect x="201.857" y="294.038" width="2.43112" height="13.0238" rx="1" transform="rotate(11.1514 201.857 294.038)" fill="#D9D9D9"/>
<rect x="214.636" y="296.557" width="2.43112" height="13.0238" rx="1" transform="rotate(11.1514 214.636 296.557)" fill="#D9D9D9"/>
<rect x="227.413" y="299.075" width="2.43112" height="13.0238" rx="1" transform="rotate(11.1514 227.413 299.075)" fill="#D9D9D9"/>
<path d="M172.448 333.339L227.591 345.376C227.591 345.376 230.272 349.894 231.269 354.86C232.348 360.234 228.554 368.631 228.554 368.631L200.937 451.359L196.434 480.467C194.395 493.645 181.797 502.475 168.714 499.896C155.703 497.331 147.403 484.499 150.4 471.58L157.095 442.717L165.32 356.166C165.32 356.166 163.574 346.775 166.386 342.07C168.728 338.152 172.448 333.339 172.448 333.339Z" fill="#2F2E41"/>
<rect x="191.659" y="300.877" width="2.60477" height="8.68256" transform="rotate(11.1514 191.659 300.877)" fill="#2F2E41"/>
<rect x="204.438" y="303.396" width="2.60477" height="8.68256" transform="rotate(11.1514 204.438 303.396)" fill="#2F2E41"/>
<rect x="217.216" y="305.915" width="2.60477" height="8.68256" transform="rotate(11.1514 217.216 305.915)" fill="#2F2E41"/>
<rect x="229.993" y="308.434" width="2.60477" height="8.68256" transform="rotate(11.1514 229.993 308.434)" fill="#2F2E41"/>
<rect x="183.141" y="299.198" width="2.60477" height="8.68256" transform="rotate(11.1514 183.141 299.198)" fill="#2F2E41"/>
<rect x="195.919" y="301.717" width="2.60477" height="8.68256" transform="rotate(11.1514 195.919 301.717)" fill="#2F2E41"/>
<rect x="208.696" y="304.236" width="2.60477" height="8.68256" transform="rotate(11.1514 208.696 304.236)" fill="#2F2E41"/>
<rect x="221.475" y="306.754" width="2.60477" height="8.68256" transform="rotate(11.1514 221.475 306.754)" fill="#2F2E41"/>
<rect x="187.4" y="300.038" width="2.60477" height="8.68256" transform="rotate(11.1514 187.4 300.038)" fill="#2F2E41"/>
<rect x="200.179" y="302.556" width="2.60477" height="8.68256" transform="rotate(11.1514 200.179 302.556)" fill="#2F2E41"/>
<rect x="212.956" y="305.075" width="2.60477" height="8.68256" transform="rotate(11.1514 212.956 305.075)" fill="#2F2E41"/>
<rect x="225.734" y="307.594" width="2.60477" height="8.68256" transform="rotate(11.1514 225.734 307.594)" fill="#2F2E41"/>
<path d="M173.771 306.321L177.5 307.056C180.209 307.59 181.973 310.219 181.439 312.928L180.245 318.982L171.611 317.28L173.771 306.321Z" fill="#D9D9D9"/>
<path d="M174.557 302.336C175.063 299.768 177.555 298.097 180.123 298.603L178.421 307.237L173.772 306.321L174.557 302.336Z" fill="#D9D9D9"/>
<path d="M237.777 318.938L234.049 318.203C231.34 317.669 228.71 319.432 228.176 322.141L226.983 328.194L235.617 329.896L237.777 318.938Z" fill="#D9D9D9"/>
<path d="M238.563 314.953C239.069 312.385 237.398 309.893 234.83 309.387L233.128 318.021L237.778 318.938L238.563 314.953Z" fill="#D9D9D9"/>
<rect x="201.428" y="323.157" width="6.0778" height="20.8382" rx="1" transform="rotate(11.1514 201.428 323.157)" fill="#D9D9D9"/>
<path opacity="0.8" d="M179.508 340.075L219.545 347.967L213.668 377.783L173.631 369.89L179.508 340.075Z" fill="#D9D9D9"/>
<path opacity="0.8" d="M173.631 369.89L213.668 377.783L192.146 415.134L178.942 412.531L173.631 369.89Z" fill="#D9D9D9"/>
<path d="M179.332 406.065C179.759 403.897 181.863 402.487 184.03 402.914L191.515 404.389C193.682 404.817 195.093 406.92 194.665 409.087L191.343 425.943C190.916 428.11 188.812 429.521 186.645 429.093L179.16 427.618C176.993 427.191 175.582 425.087 176.009 422.92L179.332 406.065Z" fill="#D9D9D9"/>
<path d="M179.251 419.94C179.465 418.856 180.516 418.151 181.6 418.364L187.898 419.606C188.982 419.82 189.687 420.871 189.473 421.955L189.071 423.994C188.858 425.077 187.806 425.783 186.722 425.569L180.424 424.328C179.341 424.114 178.635 423.062 178.849 421.978L179.251 419.94Z" fill="#2F2E41"/>
<path d="M359.217 206.858C348.041 206.597 346.251 236.61 346.007 249.951C345.939 253.663 348.459 256.868 352.045 257.829L365.269 208.479C365.269 208.479 361.698 206.916 359.217 206.858Z" fill="#2F2E41"/>
<path d="M530.754 252.821C540.564 258.184 527.108 285.07 520.648 296.745C518.851 299.995 515.066 301.511 511.48 300.55L524.703 251.2C524.703 251.2 528.577 251.631 530.754 252.821Z" fill="#2F2E41"/>
<path d="M360.73 206.994L529.376 252.182L525.863 265.291C525.863 265.291 473.761 254.368 440.781 245.531C407.801 236.694 357.218 220.103 357.218 220.103L360.73 206.994Z" fill="#2F2E41"/>
<rect x="517.62" y="263.462" width="37.4131" height="4.40154" transform="rotate(105 517.62 263.462)" fill="#2F2E41"/>
<rect x="502.031" y="259.285" width="37.4131" height="4.40154" transform="rotate(105 502.031 259.285)" fill="#2F2E41"/>
<rect x="486.441" y="255.108" width="37.4131" height="4.40154" transform="rotate(105 486.441 255.108)" fill="#2F2E41"/>
<rect x="470.853" y="250.931" width="37.4131" height="4.40154" transform="rotate(105 470.853 250.931)" fill="#2F2E41"/>
<rect x="455.264" y="246.754" width="37.4131" height="4.40154" transform="rotate(105 455.264 246.754)" fill="#2F2E41"/>
<rect x="439.675" y="242.577" width="37.4131" height="4.40154" transform="rotate(105 439.675 242.577)" fill="#2F2E41"/>
<rect x="424.085" y="238.399" width="37.4131" height="4.40154" transform="rotate(105 424.085 238.399)" fill="#2F2E41"/>
<rect x="408.496" y="234.222" width="37.4131" height="4.40154" transform="rotate(105 408.496 234.222)" fill="#2F2E41"/>
<rect x="392.907" y="230.045" width="37.4131" height="4.40154" transform="rotate(105 392.907 230.045)" fill="#2F2E41"/>
<rect x="377.318" y="225.868" width="37.4131" height="4.40154" transform="rotate(105 377.318 225.868)" fill="#2F2E41"/>
<rect x="509.825" y="261.373" width="37.4131" height="4.40154" transform="rotate(105 509.825 261.373)" fill="#2F2E41"/>
<rect x="494.236" y="257.196" width="37.4131" height="4.40154" transform="rotate(105 494.236 257.196)" fill="#2F2E41"/>
<rect x="478.647" y="253.019" width="37.4131" height="4.40154" transform="rotate(105 478.647 253.019)" fill="#2F2E41"/>
<rect x="463.058" y="248.842" width="37.4131" height="4.40154" transform="rotate(105 463.058 248.842)" fill="#2F2E41"/>
<rect x="447.469" y="244.665" width="37.4131" height="4.40154" transform="rotate(105 447.469 244.665)" fill="#2F2E41"/>
<rect x="431.88" y="240.488" width="37.4131" height="4.40154" transform="rotate(105 431.88 240.488)" fill="#2F2E41"/>
<rect x="416.291" y="236.311" width="37.4131" height="4.40154" transform="rotate(105 416.291 236.311)" fill="#2F2E41"/>
<rect x="400.702" y="232.134" width="37.4131" height="4.40154" transform="rotate(105 400.702 232.134)" fill="#2F2E41"/>
<rect x="385.112" y="227.957" width="37.4131" height="4.40154" transform="rotate(105 385.112 227.957)" fill="#2F2E41"/>
<rect x="369.523" y="223.78" width="37.4131" height="4.40154" transform="rotate(105 369.523 223.78)" fill="#2F2E41"/>
<rect x="74.3828" y="137.267" width="21.6729" height="29.9086" transform="rotate(-15.8149 74.3828 137.267)" fill="#D9D9D9"/>
<path d="M57.2842 142.11L81.6816 135.199C78.5802 148.98 80.1005 155.39 89.8327 163.976L69.3972 169.764L57.2842 142.11Z" fill="#2F2E41"/>
<path d="M199.081 101.946C199.081 101.946 270.305 45.0088 299.173 73.5944C334.55 108.625 339.378 145.551 333.431 194.539C330.453 219.071 233.339 222.89 233.339 222.89L199.081 101.946Z" fill="#2F2E41"/>
<path d="M88.9777 133.133L211.691 94.77C211.691 94.77 222.04 123.374 217.252 148.608C212.463 173.841 97.1288 161.909 97.1288 161.909C83.623 153.595 84.1677 146.635 88.9777 133.133Z" fill="#2F2E41"/>
<path d="M232.524 220.015C232.524 220.015 308.25 183.255 286.687 204.673C271.074 220.181 292.063 262.625 304.833 284.866C308.881 291.915 305.382 301.146 297.562 303.361L292.885 304.686C274.287 309.954 254.939 299.148 249.671 280.549L232.524 220.015Z" fill="#2F2E41"/>
<path d="M303.528 262.477L309.169 274.193C309.169 274.193 304.174 283.693 301.891 279.61C299.608 275.526 294.51 265.482 294.333 264.856C294.156 264.231 303.528 262.477 303.528 262.477Z" fill="#D9D9D9"/>
<rect opacity="0.8" x="253.245" y="240.679" width="16.4714" height="35.977" transform="rotate(-15.8149 253.245 240.679)" fill="#D9D9D9"/>
<rect x="259.693" y="258.674" width="13.8707" height="13.8707" transform="rotate(-15.8149 259.693 258.674)" fill="#D9D9D9"/>
<rect x="255.087" y="242.41" width="13.8707" height="13.8707" transform="rotate(-15.8149 255.087 242.41)" fill="#D9D9D9"/>
<path d="M258.672 113.36L263.228 108.672L272.065 119.747L269.875 122L258.672 113.36Z" fill="#D9D9D9"/>
<path d="M254.638 123.105L256.24 116.767L269.43 121.94L268.66 124.985L254.638 123.105Z" fill="#D9D9D9"/>
<path d="M256.202 133.424L254.421 127.134L268.43 125.019L269.286 128.042L256.202 133.424Z" fill="#D9D9D9"/>
<path d="M262.948 141.645L258.26 137.088L269.335 128.252L271.588 130.441L262.948 141.645Z" fill="#D9D9D9"/>
<path d="M272.866 145.092L266.528 143.49L271.701 130.3L274.747 131.07L272.866 145.092Z" fill="#D9D9D9"/>
<path d="M283.479 143.364L277.189 145.146L275.073 131.137L278.096 130.281L283.479 143.364Z" fill="#D9D9D9"/>
<path d="M291.721 136.694L287.164 141.382L278.328 130.308L280.517 128.055L291.721 136.694Z" fill="#D9D9D9"/>
<path d="M295.535 126.87L293.933 133.208L280.743 128.035L281.513 124.989L295.535 126.87Z" fill="#D9D9D9"/>
<path d="M293.823 116.313L295.605 122.603L281.596 124.718L280.739 121.696L293.823 116.313Z" fill="#D9D9D9"/>
<path d="M287.137 108.015L291.825 112.572L280.75 121.408L278.497 119.218L287.137 108.015Z" fill="#D9D9D9"/>
<path d="M277.124 104.736L283.462 106.338L278.289 119.528L275.244 118.758L277.124 104.736Z" fill="#D9D9D9"/>
<path d="M266.635 106.688L272.925 104.906L275.04 118.916L272.017 119.772L266.635 106.688Z" fill="#D9D9D9"/>
<rect x="251.03" y="115.163" width="40.3116" height="1.73383" transform="rotate(-15.8149 251.03 115.163)" fill="white" fill-opacity="0.8"/>
<rect x="252.47" y="110.7" width="35.1101" height="1.73383" transform="rotate(-15.8149 252.47 110.7)" fill="white" fill-opacity="0.8"/>
<rect x="263.103" y="148.234" width="35.1101" height="1.73383" transform="rotate(-15.8149 263.103 148.234)" fill="white" fill-opacity="0.8"/>
<rect x="259.536" y="145.19" width="40.3116" height="1.73383" transform="rotate(-15.8149 259.536 145.19)" fill="white" fill-opacity="0.8"/>
<rect x="258.473" y="141.437" width="40.3116" height="1.73383" transform="rotate(-15.8149 258.473 141.437)" fill="white" fill-opacity="0.8"/>
<rect x="254.908" y="138.392" width="45.0796" height="1.73383" transform="rotate(-15.8149 254.908 138.392)" fill="white" fill-opacity="0.8"/>
<rect x="252.176" y="135.111" width="48.5473" height="1.73383" transform="rotate(-15.8149 252.176 135.111)" fill="white" fill-opacity="0.8"/>
<rect x="251.112" y="131.358" width="48.5473" height="1.73383" transform="rotate(-15.8149 251.112 131.358)" fill="white" fill-opacity="0.8"/>
<rect x="250.05" y="127.604" width="48.5473" height="1.73383" transform="rotate(-15.8149 250.05 127.604)" fill="white" fill-opacity="0.8"/>
<rect x="250.655" y="123.378" width="45.0796" height="1.73383" transform="rotate(-15.8149 250.655 123.378)" fill="white" fill-opacity="0.8"/>
<rect x="252.094" y="118.916" width="40.3116" height="1.73383" transform="rotate(-15.8149 252.094 118.916)" fill="white" fill-opacity="0.8"/>
<rect x="272.924" y="149.507" width="16.038" height="1.73383" transform="rotate(-15.8149 272.924 149.507)" fill="white" fill-opacity="0.8"/>
<rect x="260.165" y="104.466" width="16.038" height="1.73383" transform="rotate(-15.8149 260.165 104.466)" fill="white" fill-opacity="0.8"/>
<circle cx="274.883" cy="124.625" r="26.2413" transform="rotate(-15.8149 274.883 124.625)" stroke="#2F2E41" stroke-width="3"/>
<circle cx="274.883" cy="124.625" r="26.2413" transform="rotate(-15.8149 274.883 124.625)" stroke="white" stroke-opacity="0.4" stroke-width="3"/>
<path d="M195.946 99.2294L204.704 96.7487C205.379 117.463 205.934 133.595 214.475 151.159C215.382 153.025 213.427 155.143 211.539 154.28C202.14 133.357 198.778 121.295 195.946 99.2294Z" fill="#D9D9D9"/>
<path opacity="0.8" d="M57.2842 142.11L63.1229 140.456C69.2726 153.197 68.7823 152.836 71.2739 169.233L69.3971 169.764L57.2842 142.11Z" fill="#D9D9D9"/>
</svg>
