<svg width="455" height="565" viewBox="0 0 455 565" fill="none" xmlns="http://www.w3.org/2000/svg">
<path d="M389.294 195.226C384.252 197.356 379.197 199.494 374.502 202.308C372.369 203.581 370.323 204.988 368.13 206.147C365.769 207.406 363.261 208.358 360.774 209.376C353.909 212.186 347.242 215.458 340.82 219.172C341.375 211.969 340.325 204.143 336.025 198.529C335.393 197.697 334.691 196.921 333.925 196.211C330.883 193.383 326.569 192.653 323.58 190.18C325.399 186.978 329.438 184.07 332.187 181.624C335.156 178.994 338.236 176.499 341.428 174.14C347.808 169.42 354.601 165.287 361.723 161.792C366.244 159.574 370.965 157.591 375.953 156.915C376.582 156.773 377.239 156.831 377.832 157.082C378.608 157.511 378.889 158.476 379.076 159.34C380.006 163.662 380.481 168.097 381.256 172.452C381.636 174.69 382.152 176.903 382.801 179.078C383.635 181.651 384.596 184.18 385.683 186.656C386.891 189.51 388.095 192.367 389.294 195.226Z" fill="#FFDDAA"/>
<path d="M246.184 317.355C246.183 326.249 243.377 334.915 238.168 342.117C232.959 349.319 225.612 354.688 217.177 357.458C208.742 360.228 199.649 360.258 191.196 357.543C182.743 354.828 175.361 349.507 170.105 342.339C164.787 335.099 161.921 326.344 161.927 317.355C161.927 306.16 166.366 295.423 174.266 287.507C182.167 279.591 192.883 275.144 204.056 275.144C215.229 275.144 225.944 279.591 233.845 287.507C241.746 295.423 246.184 306.16 246.184 317.355Z" fill="#FFDDAA"/>
<path d="M188.963 354.554C191.217 358.447 193.49 362.373 194.935 366.614C196.379 370.855 196.941 375.552 195.75 379.887C210.101 372.316 227.18 372.926 242.974 369.093C243.397 369.045 243.786 368.839 244.064 368.517C244.161 368.297 244.21 368.06 244.21 367.82C244.21 367.58 244.161 367.343 244.064 367.123C240.758 354.863 239.486 342.142 240.3 329.469L232.054 334.353C228.445 336.587 224.705 338.601 220.854 340.383C215.404 342.775 209.619 344.222 203.929 345.897C199.422 347.237 190.474 348.973 187.639 352.919C188.151 353.403 188.596 353.953 188.963 354.554Z" fill="#FFDDAA"/>
<path d="M165.752 297.79C163.011 298.896 159.787 300.169 157.266 298.621C155.414 297.475 154.652 295.097 154.765 292.919C154.879 290.742 155.708 288.678 156.364 286.601C157.701 282.333 158.423 277.891 159.914 273.643C161.406 269.395 163.84 265.302 167.705 263.057C174.82 258.93 184.028 262.34 191.925 260.055C195.269 259.097 198.178 257.168 201.287 255.653C204.397 254.139 207.894 252.973 211.251 253.784C215.183 254.702 218.085 258.019 221.75 259.707C225.762 261.556 230.563 261.429 234.214 263.901C236.802 265.657 238.434 268.491 239.885 271.271C244.528 280.207 248.193 289.62 250.818 299.345C251.868 302.827 252.468 306.43 252.604 310.065C252.637 314.715 251.38 319.271 250.136 323.76L248.13 330.862C247.388 333.542 246.626 336.222 245.221 338.648C243.817 341.073 241.65 343.117 238.969 343.82C235.625 344.684 231.733 343.009 230.276 339.874C229.38 337.931 229.42 335.706 229.373 333.569C229.299 329.383 228.851 325.212 228.036 321.107C227.621 319.05 227.066 316.912 225.668 315.358C223.863 313.348 220.987 312.678 218.313 312.631C215.183 312.591 211.753 313.442 209.927 315.981C208.462 318.031 208.208 320.912 206.262 322.514C205.397 323.179 204.369 323.598 203.287 323.726C201.079 324.002 198.843 323.528 196.936 322.38C195.029 321.232 193.562 319.477 192.768 317.395C192.153 315.626 191.852 313.428 190.18 312.598C189.311 312.162 188.274 312.242 187.345 311.961C184.496 311.097 183.747 307.479 183.486 304.511C183.185 301.033 184.342 294.166 180.029 293.931C175.382 293.677 170.025 296.363 165.752 297.79Z" fill="#3F3D56"/>
<path d="M175.856 343.546C174.372 344.263 172.747 345.1 172.165 346.641C171.938 347.244 171.898 347.907 171.69 348.524C170.747 351.251 167.07 351.787 165.17 353.958C164.314 355.055 163.738 356.345 163.492 357.716C162.223 363.124 162.634 368.79 164.669 373.957C165.259 375.595 166.168 377.098 167.344 378.379C170.741 381.85 176.599 381.783 180.832 379.418C185.064 377.053 187.987 372.905 190.468 368.698C191.783 366.58 192.883 364.335 193.751 361.998C194.514 359.62 195.058 357.178 195.376 354.701C196.86 345.046 198.8 334.34 198.131 324.551C196.125 324.424 192.293 324.283 190.521 325.542C188.301 327.124 188.916 330.313 188.114 332.624C186.215 338.186 180.705 341.12 175.856 343.546Z" fill="#3F3D56"/>
<path d="M177.595 344.825C175.087 344.979 170.594 342.199 168.079 342.339C166.368 339.347 164.856 336.245 163.552 333.053C164.89 331.13 167.043 330.661 170.299 333.053C172.914 334.896 176.525 341.267 177.595 344.825Z" fill="#3F3D56"/>
<path d="M215.397 238.964C212.675 240.404 210.99 240.471 209.646 240.183C208.302 239.895 205.634 241.235 205.634 241.235C182.062 249.315 181.132 253.128 181.132 253.128L208.422 243.473C213.672 241.168 213.772 241.979 213.772 241.979C217.784 245.757 222.893 243.198 222.893 243.198C222.893 243.198 229.961 239.848 227.882 236.625C225.802 233.403 218.125 237.55 215.397 238.964ZM226.765 238.361C226.765 238.361 224.759 243.721 217.544 242.85C217.544 242.85 213.999 242.327 215.497 239.68C215.497 239.68 222.853 236.585 224.799 236.806C226.745 237.027 226.745 238.387 226.745 238.387L226.765 238.361Z" fill="white"/>
<path opacity="0.1" d="M215.397 238.964C212.675 240.404 210.99 240.471 209.646 240.183C208.302 239.895 205.634 241.235 205.634 241.235C182.062 249.315 181.132 253.128 181.132 253.128L208.422 243.473C213.672 241.168 213.772 241.979 213.772 241.979C217.784 245.757 222.893 243.198 222.893 243.198C222.893 243.198 229.961 239.848 227.882 236.625C225.802 233.403 218.125 237.55 215.397 238.964ZM226.765 238.361C226.765 238.361 224.759 243.721 217.544 242.85C217.544 242.85 213.999 242.327 215.497 239.68C215.497 239.68 222.853 236.585 224.799 236.806C226.745 237.027 226.745 238.387 226.745 238.387L226.765 238.361Z" fill="black"/>
<path d="M216.895 224.023C212.816 224.157 211.967 227.212 211.967 227.212C211.15 228.188 210.671 229.404 210.603 230.676C210.534 231.948 210.879 233.208 211.585 234.267L204.343 241.483C202.971 242.014 201.791 242.948 200.96 244.163C200.96 244.163 185.058 258.233 185.292 259.513C185.292 259.513 187.886 260.853 204.343 245.825L208.663 241.992C208.663 241.992 209.619 234.83 216.367 233.47C216.367 233.47 217.035 233.765 217.39 232.17C217.768 231.405 218.272 230.71 218.881 230.113C219.777 229.282 220.974 223.882 216.895 224.023ZM218.038 228.867C218.038 228.867 215.852 234.522 212.735 232.887C209.619 231.252 212.649 227.48 212.649 227.48C218.052 222.214 218.038 228.867 218.038 228.867Z" fill="white"/>
<path opacity="0.1" d="M204.484 244.297C204.96 244.297 205.346 243.91 205.346 243.433C205.346 242.955 204.96 242.568 204.484 242.568C204.007 242.568 203.621 242.955 203.621 243.433C203.621 243.91 204.007 244.297 204.484 244.297Z" fill="black"/>
<path d="M279.947 216.103C277.43 214.775 274.817 213.637 272.13 212.7C268.558 211.685 264.889 211.056 261.183 210.824C249.476 209.707 237.734 209.059 225.956 208.881C223.876 208.881 221.75 208.834 219.777 209.551C218.015 210.228 216.419 211.277 215.096 212.626C212.805 214.821 210.984 217.461 209.746 220.385C209.349 221.117 209.23 221.969 209.412 222.783C209.68 223.56 210.749 224.076 211.358 223.527C209.801 224.784 208.658 226.481 208.076 228.397C207.494 230.314 207.501 232.361 208.095 234.274C207.166 234.76 206.379 235.478 205.809 236.358C205.238 237.239 204.904 238.251 204.838 239.299C209.7 240.201 214.704 239.958 219.456 238.589C218.038 238.227 216.574 239.56 216.487 241.021C216.496 241.755 216.708 242.472 217.099 243.092C217.489 243.713 218.044 244.214 218.7 244.538C220.027 245.167 221.488 245.457 222.953 245.383C228.617 245.383 234.127 243.46 239.778 243.212C244.098 243.017 248.551 243.801 252.677 242.542C257.465 241.054 261.738 236.84 266.673 237.718C270.612 238.421 273.18 242.086 275.748 245.155C279.854 250.053 284.929 254.019 289.964 257.952C293.843 260.98 297.895 264.089 302.703 265.114C304.142 265.507 305.668 265.435 307.063 264.907C308.229 264.282 309.208 263.357 309.899 262.227C315.081 254.857 315.088 245.577 314.787 236.941C314.633 232.525 313.67 231.929 309.591 230.1C304.857 227.969 300.14 225.787 295.441 223.554C290.252 221.124 285.087 218.64 279.947 216.103Z" fill="#FFDDAA"/>
<path d="M334.146 232.639C333.349 233.116 332.506 233.513 331.631 233.825C330.167 234.173 328.676 233.55 327.251 233.067C321.233 231.057 314.546 231.533 308.728 229.047C310.636 240.019 308.139 251.302 301.78 260.437C300.577 262.153 298.992 263.908 296.906 264.042C297.835 266.903 300.697 268.632 303.412 269.918C307.748 271.974 312.283 273.577 316.947 274.702C318.284 275.017 319.916 275.171 320.691 274.032C321.16 273.362 321.36 272.216 322.183 272.256C323.44 273.596 323.025 276.343 324.764 276.946C325.306 277.085 325.874 277.085 326.416 276.946L330.294 276.276C331.458 276.175 332.578 275.789 333.557 275.151C334.171 274.617 334.677 273.971 335.049 273.248C339.395 265.831 341.067 257.248 341.736 248.772C342.063 244.565 342.471 240.103 342.184 235.881C341.916 232.263 337.289 231.171 334.146 232.639Z" fill="white"/>
<path opacity="0.1" d="M334.146 232.639C333.349 233.116 332.506 233.513 331.631 233.825C330.167 234.173 328.676 233.55 327.251 233.067C321.233 231.057 314.546 231.533 308.728 229.047C310.636 240.019 308.139 251.302 301.78 260.437C300.577 262.153 298.992 263.908 296.906 264.042C297.835 266.903 300.697 268.632 303.412 269.918C307.748 271.974 312.283 273.577 316.947 274.702C318.284 275.017 319.916 275.171 320.691 274.032C321.16 273.362 321.36 272.216 322.183 272.256C323.44 273.596 323.025 276.343 324.764 276.946C325.306 277.085 325.874 277.085 326.416 276.946L330.294 276.276C331.458 276.175 332.578 275.789 333.557 275.151C334.171 274.617 334.677 273.971 335.049 273.248C339.395 265.831 341.067 257.248 341.736 248.772C342.063 244.565 342.471 240.103 342.184 235.881C341.916 232.263 337.289 231.171 334.146 232.639Z" fill="black"/>
<path d="M109.975 449.97C108.07 447.517 106.11 444.918 103.288 443.625C101.663 442.968 99.951 442.548 98.2062 442.378C88.7975 441.038 79.3687 439.645 69.8731 439.384C66.7703 439.296 63.4401 439.384 60.9124 441.199C58.0169 443.27 56.9002 447.082 56.7397 450.64C56.5669 454.876 57.4064 459.093 59.1883 462.938C60.9702 466.784 63.643 470.148 66.9843 472.75C72.6683 477.092 79.8502 478.907 86.8582 480.341C90.5428 481.098 94.2474 481.775 97.9655 482.351C101.683 482.927 105.468 483.383 109.059 484.535C116.736 487.001 123.51 492.576 131.561 493.038C131.94 493.096 132.327 493.031 132.665 492.85C133.018 492.564 133.256 492.16 133.333 491.711C135.105 485.447 141.251 470.445 133.333 466.063C129.194 463.779 124.6 463.678 120.548 460.777C116.495 457.876 113.051 453.929 109.975 449.97Z" fill="#FFDDAA"/>
<path d="M42.3759 491.557C37.1667 487.015 29.9781 484.609 26.1932 478.827C24.5281 476.281 23.6856 473.293 22.8497 470.358L20.3888 461.501C20.1993 460.956 20.1131 460.381 20.1347 459.805C20.322 457.956 22.4953 457.079 24.3275 456.79C33.6894 455.33 43.4391 459.109 50.4472 465.501C57.4552 471.892 61.9556 480.71 64.597 489.849C64.7828 490.314 64.811 490.827 64.6773 491.309C64.4485 491.738 64.0872 492.082 63.6475 492.288C60.2638 494.298 55.7166 497.226 51.7645 497.842C47.8125 498.458 45.1912 493.983 42.3759 491.557Z" fill="#FFDDAA"/>
<path d="M270.926 453.367L298.343 464.362C300.945 465.404 303.086 467.348 304.376 469.84C305.666 472.332 306.019 475.205 305.371 477.936L284.969 563.918H233.96L242.841 466.097C242.841 466.097 262.233 450.017 270.926 453.367Z" fill="#3F3D56"/>
<path d="M297.407 443.049C296.899 444.161 296.15 445.26 296.264 446.472C296.331 447.196 296.705 447.879 296.651 448.596C296.544 450.003 294.92 450.787 293.515 450.801C292.111 450.814 290.7 450.358 289.316 450.6C287.042 450.988 285.504 453.085 283.538 454.298C280.796 455.987 277.373 455.886 274.176 456.174C267.489 456.777 261.163 459.29 255.111 462.151C250.999 464.094 246.632 466.586 245.081 470.861C242.854 476.891 247.174 483.242 248.13 489.621C248.386 491.768 248.449 493.935 248.317 496.093C247.615 518.619 246.405 541.406 245.121 563.905L0 564.193L12.0701 543.001C23.8394 522.331 35.9229 501.272 53.677 485.467C56.3106 483.085 59.2692 481.091 62.4638 479.544L76.7006 492.274C77.8404 493.41 79.1628 494.345 80.6125 495.041C83.2874 496.133 86.2832 495.51 89.1519 495.604C94.6687 495.785 99.7108 498.606 104.499 501.36C108.011 503.269 111.389 505.416 114.61 507.785C116.495 509.232 119.217 510.137 121.183 511.47L120.722 487.417C120.675 485.246 120.641 483.021 121.29 480.951C122.547 476.931 126.138 474.09 127.863 470.264C128.646 468.542 129.027 466.666 129.682 464.904C130.609 462.639 131.76 460.473 133.119 458.439L141.993 444.154C144.186 440.63 146.373 437.106 148.754 433.709C159.165 418.828 173.182 406.908 186.816 394.949C186.5 391.54 187.285 388.12 189.057 385.193C189.755 384.219 190.334 383.164 190.782 382.051C191.071 380.732 191.154 379.376 191.029 378.031C191.029 377.689 191.029 377.361 191.029 376.999C191.177 374.808 192.091 372.74 193.611 371.157C195.175 369.528 197.268 368.537 199.328 367.612C209.987 362.836 221.069 359.072 232.429 356.37C234.241 355.941 236.16 355.539 237.946 356.081C238.487 357.83 240.333 358.447 242.179 358.889L243.362 359.163C246.497 359.842 249.42 361.272 251.882 363.331C254.469 365.596 256.248 368.624 257.98 371.605C271 394.004 276.998 423.391 297.14 439.665C298.116 440.436 297.915 441.977 297.407 443.049Z" fill="white"/>
<path opacity="0.1" d="M379.544 167.943C372.496 183.467 358.607 198.763 340.472 198.763C338.991 198.764 337.511 198.69 336.038 198.542C335.407 197.71 334.704 196.934 333.938 196.224C330.896 193.396 326.583 192.666 323.594 190.194C325.413 186.991 329.451 184.083 332.2 181.638C335.169 179.007 338.249 176.512 341.441 174.154C347.821 169.433 354.614 165.3 361.737 161.805C366.257 159.588 370.978 157.604 375.967 156.928C376.595 156.786 377.252 156.844 377.846 157.095C378.621 157.524 378.902 158.489 379.09 159.353C380.019 163.641 378.769 163.588 379.544 167.943Z" fill="black"/>
<path d="M340.472 197.417C365.216 197.417 385.275 177.318 385.275 152.526C385.275 127.733 365.216 107.635 340.472 107.635C315.728 107.635 295.668 127.733 295.668 152.526C295.668 177.318 315.728 197.417 340.472 197.417Z" fill="#FFDDAA"/>
<path d="M432.166 301.629C431.437 307.056 430.164 312.396 428.367 317.568C427.699 319.451 426.876 321.287 426.027 323.096C421.045 333.675 418.31 345.113 417.006 356.744C416.906 357.66 416.739 358.567 416.505 359.457C415.522 363.209 413.449 366.559 411.864 370.09C410.248 373.904 408.907 377.83 407.852 381.836C407.47 382.841 407.342 383.925 407.477 384.991C407.724 386.124 408.54 387.001 409.115 388.027C412.084 393.152 408.654 399.417 407.497 405.219C407.103 407.229 406.929 409.413 405.625 410.981C404.515 412.321 402.789 412.938 401.151 413.5C377.799 421.455 353.898 427.689 329.64 432.153C326.022 432.823 322.284 433.447 318.693 432.777C315.102 432.107 311.524 429.882 310.294 426.411C309.585 424.401 309.706 422.217 309.766 420.087C309.899 415.611 309.766 411.108 309.525 406.599C308.749 391.759 306.991 376.864 310.862 362.647C312.019 358.452 313.651 354.406 314.962 350.258C317.523 342.171 318.051 358.647 318.693 350.258C319.221 343.344 312.423 360.067 313.968 353.247C320.724 378.084 313.246 345.485 310.294 325C296.031 320.093 291.5 278.5 318.693 259C319.85 257.291 321.5 254.5 325.5 250.5C330 248.5 335.07 244.464 334.682 241.542C333.705 234.094 334.1 226.53 335.845 219.224C336.394 216.491 337.439 213.881 338.928 211.526C340.593 209.094 342.98 207.258 345.368 205.529C359.227 195.518 374.52 187.668 390.726 182.247C392.217 186.025 393.648 190.441 394.792 194.307C394.946 194.829 395.052 195.493 394.625 195.828C394.197 196.163 393.755 195.982 393.287 195.995C392.804 196.048 392.348 196.245 391.979 196.562C391.611 196.879 391.346 197.3 391.221 197.771C390.987 198.72 391.076 199.719 391.475 200.612C392.384 202.957 394.344 204.705 396.229 206.36L405.712 214.648C406.847 215.712 408.086 216.66 409.41 217.476C410.6 218.146 411.897 218.621 413.121 219.238C418.029 221.724 421.42 226.568 423.312 231.74C425.204 236.913 424.348 243.13 426.816 248.042C435.014 264.323 434.947 283.586 432.166 301.629Z" fill="white"/>
<path d="M427.544 472.181C430.425 483.816 430.354 495.99 427.337 507.591C426.795 509.661 426.16 511.805 426.588 513.902C426.835 515.095 427.417 516.214 427.551 517.426C427.609 518.533 427.49 519.641 427.196 520.709C424.227 534.78 425.291 549.399 426.488 563.758C425.979 563.758 425.819 563.992 425.284 563.992H412.398C412.171 560.22 407.49 557.392 405.203 554.384C402.99 551.435 401.46 548.03 400.723 544.416C399.987 540.802 400.062 537.068 400.943 533.487C402.949 525.446 408.86 519.021 411.89 511.336C415.233 502.88 414.946 493.306 418.496 484.944C420.536 480.114 424.348 476.341 427.544 472.181Z" fill="#3F3D56"/>
<path opacity="0.1" d="M427.544 472.181C430.425 483.816 430.354 495.99 427.337 507.591C426.795 509.661 426.16 511.805 426.588 513.902C426.835 515.095 427.417 516.214 427.551 517.426C427.609 518.533 427.49 519.641 427.196 520.709C424.227 534.78 425.291 549.399 426.488 563.758C425.979 563.758 425.819 563.992 425.284 563.992H412.398C412.171 560.22 407.49 557.392 405.203 554.384C402.99 551.435 401.46 548.03 400.723 544.416C399.987 540.802 400.062 537.068 400.943 533.487C402.949 525.446 408.86 519.021 411.89 511.336C415.233 502.88 414.946 493.306 418.496 484.944C420.536 480.114 424.348 476.341 427.544 472.181Z" fill="black"/>
<path d="M400.717 404.747C386.217 408.747 378.936 411.464 368.357 414.821C352.194 419.947 334.4 420.262 319.468 428.308C318.134 428.952 316.925 429.827 315.897 430.895C314.685 432.398 313.922 434.215 313.697 436.134C313.029 440.378 313.849 444.722 316.017 448.429C316.947 450.01 318.117 451.464 318.839 453.159C320.551 457.179 319.408 461.816 319.113 466.211C318.445 476.026 322.243 485.581 323.005 495.39C323.46 501.172 322.865 507.081 324.222 512.723C325.071 516.261 326.67 519.597 327.332 523.175C327.994 526.753 327.706 530.25 327.927 533.788C328.549 543.925 333.156 553.774 332.033 563.871H413.717C406.47 553.958 410.795 545.104 413.717 533.788C414.731 530.21 430.22 526.579 431.717 523.175C436.562 516.423 442.166 507.971 446.249 499.476C450.463 490.712 454.035 481.302 454.559 471.591C455.319 457.518 450.08 442.56 446.717 433.747C440.208 416.688 425.949 412.166 415.067 407.849C410.446 406.016 405.69 404.747 400.717 404.747V404.747Z" fill="#3F3D56"/>
<path d="M242.205 358.895C238.548 360.068 235.217 362.192 231.66 363.686C225.394 366.306 218.506 366.915 211.933 368.59C205.618 370.288 199.531 372.744 193.804 375.907C193.383 376.135 192.059 377.247 191.003 378.011C191.003 377.669 191.003 377.341 191.003 376.979C191.151 374.788 192.065 372.719 193.584 371.137C195.149 369.508 197.242 368.517 199.301 367.592C209.969 362.821 221.06 359.064 232.429 356.37C234.241 355.941 236.16 355.539 237.946 356.081C238.514 357.83 240.36 358.447 242.205 358.895Z" fill="#3F3D56"/>
<path opacity="0.1" d="M147.403 530.719C154.598 538.759 161.051 547.536 169.423 554.317C159.761 541.459 145.898 532.877 133.367 523.182C130.826 521.212 125.744 518.418 124.205 515.57C121.778 511.108 127.141 514.277 129.368 515.49C136.322 519.275 142.154 524.863 147.403 530.719Z" fill="black"/>
<path opacity="0.1" d="M406.293 296.029C405.951 298.923 404.875 301.67 403.785 304.364C401.11 311.064 398.241 317.697 394.202 323.64C391.42 327.733 388.11 331.432 385.208 335.432C382.229 339.677 379.496 344.091 377.023 348.651C372.463 356.745 368.018 364.906 363.689 373.133C361.623 377.073 359.57 381.046 356.902 384.604C355.029 387.005 353.02 389.296 350.884 391.465C346.203 396.409 341.395 400.979 337.208 406.339C335.135 409.019 331.678 410.051 328.448 410.962C327.368 411.322 326.242 411.525 325.105 411.565C323.96 411.485 322.833 411.234 321.761 410.821C318.154 409.718 314.624 408.375 311.196 406.801C310.42 391.961 308.661 377.066 312.533 362.849C313.69 358.654 315.322 354.608 316.632 350.46C319.194 342.373 319.856 334.011 320.498 325.623C321.293 323.941 322.143 322.273 322.965 320.651C328.542 309.61 333.243 297.449 331.792 285.141C331.422 282.922 331.166 280.686 331.023 278.441C331.037 275.688 331.5 272.957 332.394 270.354C334.395 264.206 337.703 258.567 342.09 253.825C346.477 249.082 351.839 245.349 357.805 242.883C359.689 242.001 361.743 241.544 363.823 241.543C366.498 241.684 369.059 243.078 371.667 242.569C380.5 246.461 387.649 253.108 392.992 261.161C398.335 269.215 398.629 279.975 404.44 287.694C406.159 290.039 406.627 293.141 406.293 296.029Z" fill="black"/>
<path d="M212.943 259.667L212.662 259.057L201.735 264.109L199.91 264.953L198.091 265.791L213.498 299.258L215.317 298.413L217.142 297.569L228.069 292.517L227.788 291.914L216.861 296.966L216.581 296.357L227.507 291.305L227.226 290.695L216.3 295.747L216.019 295.137L226.946 290.085L226.671 289.476L215.738 294.527L215.457 293.924L226.39 288.873L226.11 288.263L215.176 293.315L214.895 292.705L225.829 287.653L225.548 287.043L214.621 292.095L214.34 291.486L225.267 286.434L224.986 285.831L214.06 290.883L213.779 290.273L224.705 285.221L224.425 284.611L213.498 289.663L213.217 289.053L224.15 284.002L223.869 283.392L212.936 288.444L212.655 287.841L223.589 282.782L223.308 282.179L212.374 287.231L212.1 286.621L223.027 281.569L222.746 280.96L211.819 286.012L211.539 285.402L222.465 280.35L222.184 279.74L211.258 284.792L210.977 284.189L221.903 279.137L221.629 278.528L210.696 283.579L210.415 282.97L221.348 277.918L221.068 277.308L210.134 282.36L209.86 281.75L220.787 276.705L220.506 276.095L209.579 281.147L209.298 280.538L220.225 275.486L219.944 274.876L209.017 279.928L208.737 279.318L219.663 274.266L219.389 273.657L208.456 278.715L208.175 278.105L219.108 273.054L218.827 272.444L207.894 277.496L207.613 276.886L218.547 271.834L218.266 271.225L207.339 276.276L207.058 275.667L217.985 270.615L217.704 270.012L206.777 275.064L206.496 274.454L217.423 269.402L217.142 268.792L206.216 273.844L205.935 273.235L216.868 268.183L216.587 267.58L205.654 272.625L205.373 272.022L216.306 266.97L216.026 266.36L205.092 271.412L204.818 270.802L215.745 265.751L215.464 265.141L204.537 270.193L204.256 269.583L215.183 264.531L214.902 263.928L203.975 268.98L203.695 268.37L214.621 263.318L214.347 262.709L203.414 267.761L203.133 267.151L214.066 262.099L213.785 261.489L202.852 266.541L202.571 265.938L213.505 260.886L213.224 260.277L202.29 265.328L202.016 264.719L212.943 259.667Z" fill="black"/>
<path opacity="0.1" d="M247.247 333.274C245.836 335.666 243.677 337.743 240.995 338.447C237.651 339.311 233.76 337.636 232.302 334.5C231.406 332.557 231.446 330.333 231.399 328.196C231.325 324.01 230.878 319.839 230.062 315.733C229.647 313.677 229.092 311.539 227.694 309.985C225.889 307.975 223.014 307.305 220.339 307.258C217.209 307.218 213.779 308.069 211.953 310.608C210.489 312.658 210.235 315.539 208.289 317.14C207.424 317.805 206.396 318.224 205.313 318.353C203.105 318.629 200.869 318.155 198.962 317.007C197.056 315.859 195.588 314.104 194.794 312.022C194.179 310.253 193.878 308.055 192.206 307.224C191.337 306.789 190.3 306.869 189.371 306.588C186.522 305.724 185.773 302.105 185.512 299.137C185.212 295.66 186.368 288.792 182.055 288.558C177.441 288.303 172.085 290.99 167.812 292.417C165.07 293.523 161.847 294.796 159.326 293.248C157.474 292.102 156.711 289.724 156.825 287.546C156.939 285.369 157.768 283.305 158.423 281.228C159.547 277.717 160.222 274.072 161.252 270.508C160.768 271.516 160.337 272.549 159.961 273.603C158.477 277.831 157.781 282.313 156.417 286.561C155.748 288.638 154.933 290.702 154.819 292.879C154.705 295.057 155.488 297.436 157.32 298.581C159.841 300.129 163.064 298.856 165.806 297.75C170.079 296.323 175.435 293.637 180.049 293.891C184.362 294.126 183.205 300.993 183.506 304.471C183.767 307.439 184.516 311.057 187.365 311.921C188.294 312.203 189.331 312.122 190.2 312.558C191.872 313.388 192.206 315.586 192.788 317.355C193.582 319.437 195.049 321.192 196.956 322.34C198.863 323.488 201.099 323.962 203.307 323.686C204.389 323.558 205.417 323.139 206.283 322.474C208.228 320.872 208.483 317.991 209.947 315.941C211.773 313.388 215.203 312.538 218.333 312.591C221.007 312.631 223.916 313.301 225.688 315.318C227.086 316.872 227.641 319.01 228.056 321.067C228.871 325.173 229.319 329.343 229.393 333.529C229.44 335.666 229.393 337.891 230.296 339.834C231.747 342.969 235.645 344.644 238.989 343.78C241.664 343.077 243.83 341 245.241 338.608C246.315 336.655 247.142 334.575 247.702 332.417C247.555 332.725 247.408 333 247.247 333.274Z" fill="black"/>
<path d="M281.646 328.825C276.296 323.68 271.461 317.985 266.66 312.303C262.059 306.869 257.445 301.409 253.741 295.332C251.447 291.573 249.401 287.472 245.877 284.839C243.202 282.829 239.932 281.891 236.976 280.357C234.85 279.251 232.89 277.851 230.791 276.705C226.21 274.225 221.055 273.006 215.852 273.174C213.692 273.248 211.238 273.751 210.128 275.613C209.746 276.25 209.566 276.994 209.178 277.623C207.981 279.633 205.099 280.203 204.116 282.313C202.457 285.864 207.459 289.127 207.774 293.034C207.921 294.99 206.844 296.812 206.53 298.749C205.995 302.099 207.727 305.295 209.399 308.216C212.976 314.474 217.33 321.328 224.358 322.903C226.845 323.459 229.473 323.278 231.901 324.068C233.857 324.811 235.668 325.893 237.25 327.264C243.853 332.479 249.673 338.619 254.53 345.495C256.79 348.691 258.836 352.028 261.116 355.204C268.374 365.265 277.898 373.469 288.915 379.15L297.12 353.02C298.383 348.999 299.38 343.485 295.782 340.35C291.275 336.283 286.079 333.073 281.646 328.825Z" fill="#FFDDAA"/>
<path d="M370.965 239.245C368.357 239.748 365.769 238.361 363.121 238.22C361.041 238.219 358.986 238.677 357.102 239.56C351.137 242.028 345.777 245.761 341.39 250.503C337.003 255.245 333.695 260.884 331.692 267.031C330.806 269.644 330.35 272.384 330.341 275.144C330.381 277.389 330.849 279.6 331.11 281.845C332.561 294.132 327.86 306.3 322.29 317.355C319.207 323.459 315.73 329.898 316.458 336.698C316.552 337.609 316.699 338.634 316.144 339.378C315.476 340.263 314.031 340.31 313.409 341.241C312.787 342.172 313.356 343.579 312.861 344.631C312.192 346.119 310.012 345.938 308.454 345.408C304.183 343.96 300.227 341.709 296.799 338.775C291.242 342.025 285.297 345.897 283.471 352.075C283.042 353.651 282.745 355.26 282.582 356.886L279.713 380.872C279.332 384.048 279.145 387.773 281.539 389.89C285.665 393.548 293.014 388.812 297.427 392.121C298.557 392.966 299.293 394.225 300.102 395.371C304.923 401.997 313.222 404.912 321.006 407.431C322.078 407.839 323.205 408.087 324.349 408.168C325.488 408.136 326.615 407.933 327.693 407.565C330.929 406.654 334.38 405.595 336.453 402.949C340.646 397.589 345.454 393.019 350.135 388.074C352.268 385.902 354.277 383.612 356.153 381.214C358.828 377.649 360.874 373.676 362.94 369.736C367.26 361.509 371.7 353.348 376.261 345.254C378.76 340.713 381.517 336.319 384.519 332.095C387.428 328.075 390.732 324.39 393.514 320.303C397.526 314.353 400.408 307.693 403.096 301.027C404.186 298.347 405.263 295.58 405.61 292.692C405.958 289.804 405.49 286.702 403.738 284.377C397.927 276.652 397.639 265.898 392.297 257.845C386.954 249.791 379.805 243.131 370.965 239.245Z" fill="white"/>
<path d="M213.123 262.414C212.967 262.514 212.835 262.646 212.736 262.802C212.636 262.959 212.572 263.135 212.548 263.319C212.548 263.654 212.822 263.915 212.97 264.217C213.377 265.074 212.722 266.066 211.973 266.655C211.224 267.245 210.315 267.701 209.907 268.565C209.844 268.679 209.816 268.81 209.827 268.94C209.872 269.117 209.976 269.273 210.121 269.382C210.561 269.89 211.133 270.265 211.773 270.468C212.796 270.682 213.779 270.005 214.648 269.449C215.591 268.852 216.595 268.358 217.644 267.975C217.968 267.879 218.274 267.727 218.547 267.526C218.881 267.193 219.087 266.751 219.128 266.28C219.356 264.598 218.46 262.984 217.437 261.59C216.206 259.949 214.173 261.51 213.123 262.414Z" fill="#3F3D56"/>
<path d="M110.53 460.972L41.1177 425.475C40.6112 425.216 39.9909 425.417 39.7323 425.925L22.0425 460.651C21.7839 461.158 21.9849 461.78 22.4915 462.039L91.9039 497.537C92.4104 497.796 93.0307 497.594 93.2893 497.087L110.979 462.36C111.238 461.853 111.037 461.231 110.53 460.972Z" fill="#3F3D56"/>
<path d="M104.14 461.865L44.257 431.241L29.063 461.068L88.9456 491.692L104.14 461.865Z" fill="white"/>
<path d="M35.3427 445.491C35.5257 445.132 35.2341 444.616 34.6913 444.338C34.1486 444.061 33.5602 444.127 33.3772 444.486C33.1942 444.845 33.4858 445.362 34.0286 445.639C34.5714 445.917 35.1597 445.851 35.3427 445.491Z" fill="#494C54"/>
<path d="M100.828 479.068C101.129 478.478 100.647 477.629 99.7521 477.171C98.8574 476.713 97.8884 476.821 97.5879 477.411C97.2874 478.001 97.769 478.85 98.6638 479.307C99.5585 479.765 100.527 479.658 100.828 479.068Z" fill="#494C54"/>
<g opacity="0.1">
<path d="M392.47 154.355C391.079 160.264 388.458 166.04 388.766 172.104C383.211 173.693 377.566 174.944 371.861 175.849C369.186 176.271 366.097 176.519 364.137 174.623C363.309 173.733 362.704 172.658 362.372 171.487C360.252 165.209 360.961 158.04 357.758 152.238C356.419 149.872 354.504 147.884 352.193 146.457C349.882 145.03 347.249 144.212 344.538 144.077C342.438 144.003 340.051 144.519 338.974 146.322C338.561 147.206 338.243 148.131 338.024 149.082C336.54 153.564 330.461 155.782 326.456 153.283C324.45 152.023 323.079 149.933 321.267 148.365C318.966 146.389 316.017 145.37 313.436 143.776C311.109 142.342 309.992 140.895 309.517 139.4C308.929 142.623 308.762 145.585 313.436 148.466C316.017 150.06 318.966 151.079 321.267 153.055C323.079 154.61 324.423 156.713 326.456 157.973C330.468 160.459 336.54 158.254 338.024 153.772C338.243 152.821 338.561 151.896 338.974 151.012C340.051 149.209 342.438 148.693 344.538 148.767C347.249 148.902 349.882 149.72 352.193 151.147C354.504 152.574 356.419 154.562 357.758 156.928C360.961 162.73 360.252 169.899 362.372 176.177C362.708 177.358 363.323 178.44 364.164 179.333C366.123 181.209 369.219 180.981 371.888 180.559C377.593 179.654 383.238 178.403 388.793 176.814C388.465 170.75 391.106 164.975 392.497 159.065C393.568 154.229 393.998 149.273 393.774 144.325C393.668 147.703 393.231 151.062 392.47 154.355Z" fill="black"/>
<path d="M309.919 132.506C310.408 130.302 310.173 127.999 309.25 125.94C308.407 124.171 306.02 123.005 304.415 124.124C302.81 125.243 303.038 127.742 302.643 129.752C301.881 133.705 297.962 136.399 293.95 137.029C292.071 137.33 289.978 137.21 288.52 135.99C287.581 135.089 286.89 133.961 286.514 132.714C285.487 129.927 284.863 127.008 284.662 124.044C284.322 128.579 284.954 133.134 286.514 137.404C286.89 138.651 287.581 139.779 288.52 140.68C289.978 141.9 292.071 142.02 293.95 141.719C297.915 141.089 301.854 138.369 302.643 134.442C303.024 132.432 302.763 130 304.422 128.848C306.08 127.695 308.434 128.895 309.257 130.664C309.543 131.252 309.765 131.87 309.919 132.506Z" fill="black"/>
</g>
<path d="M300.59 175.642C307.196 170.616 312.52 164.096 316.125 156.615C319.731 149.134 321.516 140.905 321.334 132.601C321.152 124.297 319.009 116.154 315.08 108.838C311.151 101.522 305.547 95.2416 298.728 90.5098C305.384 93.5213 311.34 97.8883 316.216 103.332C321.091 108.776 324.78 115.178 327.047 122.128C329.314 129.079 330.108 136.426 329.38 143.701C328.652 150.976 326.417 158.02 322.818 164.382C319.219 170.744 314.335 176.286 308.477 180.654C302.619 185.021 295.916 188.119 288.795 189.749C281.675 191.379 274.293 191.505 267.121 190.12C259.949 188.735 253.144 185.87 247.14 181.705C255.769 185.609 265.291 187.106 274.699 186.039C284.108 184.972 293.053 181.38 300.59 175.642Z" fill="#2F2E41"/>
<path d="M335.493 191.169C377.174 191.169 410.963 157.346 410.963 115.624C410.963 73.901 377.174 40.0781 335.493 40.0781C293.812 40.0781 260.023 73.901 260.023 115.624C260.023 157.346 293.812 191.169 335.493 191.169Z" fill="#2F2E41"/>
<path d="M335.964 202.029C357.847 202.029 375.586 184.272 375.586 162.367C375.586 140.463 357.847 122.706 335.964 122.706C314.082 122.706 296.342 140.463 296.342 162.367C296.342 184.272 314.082 202.029 335.964 202.029Z" fill="#FFDDAA"/>
<path d="M335.493 79.7397C357.375 79.7397 375.114 61.9827 375.114 40.0783C375.114 18.174 357.375 0.416992 335.493 0.416992C313.61 0.416992 295.871 18.174 295.871 40.0783C295.871 61.9827 313.61 79.7397 335.493 79.7397Z" fill="#2F2E41"/>
<path d="M365.972 64.1776C370.952 60.3887 374.965 55.4733 377.683 49.8338C380.401 44.1942 381.746 37.9907 381.609 31.7307C381.473 25.4706 379.857 19.332 376.895 13.8169C373.933 8.3019 369.709 3.56712 364.568 0C369.585 2.27027 374.075 5.5624 377.751 9.66638C381.426 13.7704 384.207 18.5961 385.916 23.8358C387.625 29.0756 388.223 34.6142 387.675 40.0986C387.126 45.583 385.441 50.8926 382.728 55.6889C380.015 60.4851 376.333 64.6628 371.917 67.9552C367.501 71.2477 362.448 73.5828 357.08 74.8116C351.712 76.0403 346.148 76.1358 340.741 75.0918C335.334 74.0479 330.204 71.8874 325.678 68.7483C332.183 71.691 339.361 72.8198 346.454 72.0152C353.546 71.2107 360.29 68.5027 365.972 64.1776Z" fill="#2F2E41"/>
<path d="M342.378 161.213C368.464 161.213 389.61 146.986 389.61 129.436C389.61 111.886 368.464 97.6582 342.378 97.6582C316.293 97.6582 295.147 111.886 295.147 129.436C295.147 146.986 316.293 161.213 342.378 161.213Z" fill="#2F2E41"/>
</svg>
