<svg width="681" height="444" viewBox="0 0 681 444" fill="none" xmlns="http://www.w3.org/2000/svg">
<path d="M585.263 394.424L580.435 439.413L580.215 441.47L525.584 441.257L525.296 439.193L519.512 397.969L585.263 394.424Z" fill="#FFDDAA"/>
<path d="M333.177 51.6638C333.286 55.3973 333.872 59.0942 334.318 62.8032C335.233 70.3736 335.611 78.0781 337.844 85.3683C340.272 93.2737 344.781 100.357 349.235 107.337C350.797 109.779 352.359 112.215 353.915 114.657C354.495 115.559 355.068 116.466 355.648 117.368C362.658 128.343 369.943 139.604 380.316 147.4C380.95 147.875 381.591 148.338 382.25 148.788C389.565 153.789 398.186 156.864 407.021 157.619C402.585 155.646 400.767 150.092 401.353 145.28C401.945 140.469 404.355 136.108 406.246 131.644C408.144 127.179 409.553 122.149 408.058 117.532C407.723 116.509 407.265 115.553 406.716 114.657C404.715 111.405 401.487 108.871 398.522 106.35C394.733 103.134 390.914 99.151 390.688 94.1934C390.389 87.701 386.234 89.8753 385.502 83.4194C384.995 78.9856 379.071 71.4273 378.79 66.9752C378.54 63.0164 380.974 53.4422 383.671 50.531C386.368 47.6197 383.891 38.9287 385.502 35.3049C387.112 31.6811 404.69 34.7141 401.255 32.7347L402.177 31.4252C409.748 29.8843 417.839 31.1328 424.648 34.7628C426.13 35.5484 427.546 36.4438 428.888 37.4548C432.128 31.547 428.284 24.0497 423.055 19.7925C417.936 15.6144 411.628 13.2026 405.368 11.077C404.288 10.7116 403.202 10.3462 402.109 9.99291C395.008 7.7029 387.704 5.83926 380.315 5.53473C378.442 5.44946 376.569 5.47385 374.69 5.61392C369.083 6.03412 363.58 7.55064 358.522 9.99291C353.299 12.5144 348.552 16.0164 344.671 20.3223C340.883 24.5248 337.942 29.4641 335.983 34.7628C333.982 40.1528 333 45.9205 333.177 51.6638Z" fill="#3F3D56"/>
<path d="M501.734 439.104C501.734 439.783 501.727 440.469 501.72 441.161L445.008 440.942L444.823 438.878L441.326 399.745L499.968 392.648C499.968 392.648 501.857 413.404 501.734 439.104Z" fill="#FFDDAA"/>
<path d="M356.528 88.8514C365.537 100.179 381.419 103.462 394.237 96.719C412.534 87.0945 418.585 80.0373 423 88.8514C430.108 103.043 440 100.5 440 100.5L456.146 278.233C456.146 278.233 459.7 345.013 415.273 339.118C370.847 333.224 301.541 358.058 301.541 358.058L308.62 284.788L327.524 257.163L335.181 177.908L321.977 114.147L337.971 107.052C337.971 107.052 339.748 94.6345 345.079 94.6345C350.41 94.6345 351.698 82.706 356.385 88.6703C356.432 88.7299 356.48 88.7903 356.528 88.8514Z" fill="#FF6363"/>
<path d="M591.803 441.518L580.215 441.47L525.584 441.257L518.474 441.23L518.062 439.166L507.072 383.783L505.354 439.118L505.292 441.175L501.721 441.161L445.008 440.942L440.942 440.921L440.928 438.864L440.688 399.752L440.468 363.534L440.434 358.055L440.44 358.048L457.421 323.688L462.374 313.664L463.39 311.606L473.309 291.536L563.062 279.132L564.436 278.94L588.822 275.573L589 285.55L589.103 291.214L589.468 311.606L589.509 313.664L589.55 316.015L591.762 439.454L591.803 441.518Z" fill="#3F3D56"/>
<path d="M385.38 93.9775C405.877 93.9775 422.493 77.3913 422.493 56.9311C422.493 36.471 405.877 19.8848 385.38 19.8848C364.883 19.8848 348.268 36.471 348.268 56.9311C348.268 77.3913 364.883 93.9775 385.38 93.9775Z" fill="#FFDDAA"/>
<path d="M424.701 112.792C416.039 125.127 411.609 140.366 412.312 155.413C402.491 150.664 395.862 140.631 393.606 129.973C391.35 119.315 393.071 108.124 396.697 97.8491C396.733 97.7464 396.769 97.6437 396.806 97.5411C402.31 82.119 397.196 64.8825 383.901 55.2956C374.933 48.829 367.155 40.7163 361.186 31.4169C357.816 26.167 354.952 19.5813 357.469 13.8749C359.789 8.61669 365.782 6.15908 371.297 4.51467C383.89 0.759774 397.271 -1.37681 410.196 0.999177C423.122 3.37517 435.565 10.7951 441.674 22.4114C447.783 34.0277 446.182 49.8809 436.267 58.4924C439.394 59.5017 441.607 62.8106 441.341 66.0807C441.076 69.3508 438.358 72.2606 435.109 72.7538C437.229 72.6788 438.48 75.4659 437.724 77.4444C436.968 79.4229 435.018 80.6519 433.158 81.6702C430.509 83.1208 427.572 84.6377 427.561 88.4364C427.557 89.9595 428.101 91.4377 428.99 92.6757C431.144 95.6756 434.622 97.0266 437.97 98.295C430.889 100.377 425.242 106.695 423.974 113.955L424.701 112.792Z" fill="#3F3D56"/>
<path d="M157.189 145.209L158.11 146.519C154.675 148.498 154.169 153.492 155.78 157.116C157.39 160.74 160.508 163.426 163.205 166.337C165.902 169.248 168.361 172.854 168.11 176.813C167.83 181.265 164.193 184.931 163.687 189.365C162.955 195.821 168.977 201.485 168.678 207.978C168.452 212.935 164.633 216.918 160.844 220.134C157.878 222.656 154.651 225.189 152.65 228.442C152.1 229.337 151.643 230.293 151.307 231.316C149.812 235.933 151.222 240.963 153.119 245.428C155.011 249.892 157.421 254.253 158.013 259.064C158.598 263.876 156.78 269.43 152.345 271.404C161.179 270.648 169.8 267.573 177.116 262.572C177.775 262.122 178.416 261.659 179.05 261.184C189.422 253.388 196.707 242.127 203.718 231.152C204.297 230.25 204.871 229.343 205.451 228.442C207.006 225.999 208.568 223.563 210.13 221.121C214.584 214.141 219.093 207.058 221.521 199.153C223.755 191.862 224.133 184.158 225.048 176.587C225.493 172.878 226.079 169.181 226.189 165.448C226.366 159.705 225.384 153.937 223.382 148.547C221.424 143.248 218.483 138.309 214.694 134.106C210.814 129.801 206.067 126.299 200.844 123.777C195.786 121.335 190.283 119.818 184.676 119.398C182.796 119.258 180.923 119.234 179.05 119.319C171.661 119.623 164.358 121.487 157.256 123.777C152.033 126.299 147.287 129.801 143.406 134.106C139.617 138.309 136.676 143.248 134.718 148.547C141.527 144.917 149.617 143.669 157.189 145.209Z" fill="#3F3D56"/>
<path d="M210.141 211.838L175.109 198.124L174.221 211.838L143.51 216.638L129.085 281.779L142.136 322.235L239.679 324.977L236.244 311.263C236.244 311.263 252.043 293.435 242.427 264.636L241.359 257.307C238.566 238.143 227.038 221.352 210.141 211.838Z" fill="#FF6363"/>
<path d="M190.643 197.508C207.829 197.508 221.76 183.601 221.76 166.447C221.76 149.292 207.829 135.385 190.643 135.385C173.458 135.385 159.526 149.292 159.526 166.447C159.526 183.601 173.458 197.508 190.643 197.508Z" fill="#FFDDAA"/>
<path d="M131.912 165.448C132.022 169.181 132.607 172.878 133.053 176.587C133.968 184.158 134.346 191.862 136.579 199.153C139.008 207.058 143.517 214.141 147.971 221.121C149.533 223.563 151.095 225.999 152.65 228.442C153.23 229.343 153.804 230.25 154.383 231.152C161.394 242.127 168.679 253.388 179.051 261.184C179.685 261.659 180.326 262.122 180.985 262.572C188.3 267.573 196.922 270.648 205.756 271.404C201.321 269.43 199.503 263.876 200.088 259.064C200.68 254.253 203.09 249.892 204.982 245.428C206.879 240.963 208.288 235.933 206.794 231.316C206.458 230.293 206 229.337 205.451 228.442C203.45 225.189 200.223 222.656 197.257 220.134C193.468 216.918 189.649 212.935 189.423 207.978C189.124 201.485 184.969 203.659 184.237 197.204C183.731 192.77 177.806 185.211 177.526 180.759C177.275 176.801 179.71 167.226 182.407 164.315C185.103 161.404 182.626 152.713 184.237 149.089C185.848 145.465 203.426 148.498 199.991 146.519L200.912 145.209C208.484 143.669 216.574 144.917 223.383 148.547C224.866 149.333 226.281 150.228 227.624 151.239C230.863 145.331 227.02 137.834 221.791 133.577C216.672 129.399 210.363 126.987 204.103 124.861C203.023 124.496 201.937 124.13 200.845 123.777C193.743 121.487 186.44 119.623 179.051 119.319C177.178 119.234 175.305 119.258 173.425 119.398C167.818 119.818 162.315 121.335 157.257 123.777C152.034 126.299 147.287 129.801 143.407 134.106C139.618 138.309 136.677 143.248 134.719 148.547C132.717 153.937 131.735 159.705 131.912 165.448Z" fill="#3F3D56"/>
<path d="M675.078 413.754L631.706 322.783C628.471 315.995 621.512 311.606 613.977 311.606H66.1451C64.0636 311.606 62.0374 311.929 60.1276 312.546C55.2987 314.089 51.1909 317.462 48.7592 322.098L2.26838 410.566C-0.946356 416.675 -0.73337 423.861 2.83857 429.772C6.40364 435.689 12.6616 439.241 19.5789 439.269L440.942 440.921L445.008 440.942L501.72 441.161L505.292 441.175L518.474 441.23L525.584 441.257L580.215 441.47L591.803 441.518L657.273 441.772H657.356C664.115 441.772 670.304 438.371 673.931 432.672C677.572 426.947 677.998 419.871 675.078 413.754Z" fill="white"/>
<path d="M678.513 415.51L635.141 324.539C631.905 317.75 624.947 313.362 617.411 313.362H69.5797C67.4982 313.362 65.472 313.684 63.5621 314.301C58.7332 315.844 54.6255 319.218 52.1938 323.853L5.70295 412.321C2.48821 418.431 2.7012 425.617 6.27315 431.527C9.83821 437.445 16.0961 440.997 23.0134 441.024L444.376 442.677L448.443 442.697L505.155 442.917L508.727 442.93L521.909 442.985L529.019 443.013L583.649 443.225L595.238 443.273L660.708 443.527H660.79C667.55 443.527 673.739 440.126 677.366 434.428C681.006 428.702 681.432 421.626 678.513 415.51Z" fill="white"/>
<path d="M675.078 413.754L631.706 322.783C628.471 315.995 621.512 311.606 613.977 311.606H66.1451C64.0636 311.606 62.0374 311.929 60.1276 312.546C55.2987 314.089 51.1909 317.462 48.7592 322.098L2.26838 410.566C-0.946356 416.675 -0.73337 423.861 2.83857 429.772C6.40364 435.689 12.6616 439.241 19.5789 439.269L440.942 440.921L445.008 440.942L501.72 441.161L505.292 441.175L518.474 441.23L525.584 441.257L580.215 441.47L591.803 441.518L657.273 441.772H657.356C664.115 441.772 670.304 438.371 673.931 432.672C677.572 426.947 677.998 419.871 675.078 413.754ZM672.193 431.569C668.944 436.677 663.408 439.715 657.356 439.715H657.28L591.762 439.454L580.435 439.413L525.296 439.193L518.062 439.166L505.354 439.118L501.734 439.104L444.823 438.878L440.928 438.864L19.5856 437.212C13.3966 437.184 7.79123 434.01 4.604 428.716C1.40972 423.422 1.21754 416.991 4.09569 411.519L50.5863 323.058C52.2624 319.869 54.8177 317.346 57.8746 315.721C60.368 314.39 63.1982 313.664 66.1451 313.664H613.977C620.722 313.664 626.946 317.593 629.845 323.668L673.217 414.632C675.834 420.117 675.449 426.446 672.193 431.569Z" fill="#3F3D56"/>
<path d="M194.686 377.433L298.411 339.72L246.548 318.898L143.167 345.891L194.686 377.433Z" fill="#F2F2F2"/>
<path d="M352.677 320.521L340.999 357.548L477.696 365.776L466.018 323.949L352.677 320.521Z" fill="#F2F2F2"/>
<path d="M191.545 326.854C201.156 327.806 208.454 333.527 207.847 339.632C207.239 345.738 198.956 349.915 189.342 348.962C185.496 348.633 181.785 347.391 178.519 345.337L137.848 340.793L140.391 321.787L180.216 328.284C183.823 326.911 187.708 326.421 191.545 326.854Z" fill="#FFDDAA"/>
<path d="M271.456 346.545C275.436 355.329 274.122 364.499 268.521 367.027C262.92 369.554 255.155 364.482 251.175 355.694C249.537 352.205 248.759 348.376 248.908 344.526L232.514 307.094L250.275 299.789L264.551 337.466C267.546 339.898 269.914 343.011 271.456 346.545Z" fill="#FFDDAA"/>
<path d="M199.821 220.798C199.821 220.798 219.368 209.359 224.632 219.966C229.895 230.572 262.059 323.99 262.059 323.99L240.421 336.332L199.821 220.798Z" fill="#FF6363"/>
<path d="M150.722 220.409L143.51 216.638C143.51 216.638 132.176 216.981 124.619 224.523C117.063 232.066 55.9275 318.463 55.9275 318.463C55.9275 318.463 40.8153 341.777 78.5958 345.205C116.376 348.634 158.278 348.634 158.278 348.634L161.713 320.52L104.699 314.349L144.624 261.551L150.722 220.409Z" fill="#FF6363"/>
<path d="M294.312 319.909C296.819 330.265 293.5 339.958 286.899 341.559C280.298 343.16 272.916 336.064 270.409 325.704C269.351 321.579 269.297 317.26 270.253 313.108L260.184 269.094L280.971 264.789L288.69 308.635C291.439 311.89 293.367 315.755 294.312 319.909Z" fill="#FFDDAA"/>
<path d="M382 112C382 112 328.762 114.552 321.667 117.831C314.572 121.11 272.5 195.5 272.5 195.5L259.5 240V284H290.532C290.532 284 282.567 241.442 306.5 209C332.143 183.931 371.864 141.508 371.864 141.508L382 112Z" fill="#FF6363"/>
<path d="M255.755 369.828L254.012 361.464C253.822 360.555 254.516 359.702 255.445 359.702C256.175 359.702 256.794 360.24 256.894 360.964L258.109 369.704C258.165 370.112 257.711 370.393 257.371 370.161C257.21 370.05 256.997 370.05 256.835 370.161L256.742 370.225C256.365 370.483 255.848 370.275 255.755 369.828Z" fill="#FFA071"/>
<path d="M209.608 347.524L201.621 348.627C200.842 348.734 200.158 348.106 200.2 347.321C200.233 346.692 200.729 346.185 201.357 346.138L209.611 345.52C209.958 345.493 210.167 345.897 209.944 346.166C209.833 346.3 209.823 346.491 209.919 346.637L209.972 346.716C210.186 347.037 209.99 347.471 209.608 347.524Z" fill="#FFA071"/>
<path d="M261.276 372.615L259.583 365.168C259.376 364.258 260.068 363.391 261.002 363.391C261.721 363.391 262.333 363.916 262.441 364.628L263.632 372.489C263.694 372.899 263.246 373.192 262.895 372.972C262.738 372.872 262.537 372.872 262.38 372.972L262.282 373.033C261.893 373.278 261.378 373.064 261.276 372.615Z" fill="#FFA071"/>
<path d="M213.04 342.201L205.053 343.304C204.274 343.411 203.59 342.783 203.632 341.998C203.665 341.369 204.16 340.862 204.788 340.815L213.042 340.196C213.39 340.17 213.598 340.574 213.376 340.842C213.265 340.977 213.254 341.168 213.351 341.313L213.404 341.393C213.618 341.714 213.422 342.148 213.04 342.201Z" fill="#FFA071"/>
<path d="M267.345 374.57L265.865 365.692C265.744 364.97 266.301 364.312 267.034 364.312C267.638 364.312 268.145 364.767 268.212 365.367L269.224 374.476C269.26 374.799 268.882 374.999 268.635 374.787C268.501 374.672 268.303 374.672 268.169 374.787L268.101 374.845C267.828 375.079 267.404 374.925 267.345 374.57Z" fill="#FFA071"/>
<path d="M214.88 336.786L206.115 337.878C205.339 337.975 204.664 337.346 204.705 336.565C204.738 335.929 205.242 335.418 205.878 335.377L214.884 334.783C215.23 334.76 215.429 335.169 215.199 335.428C215.078 335.563 215.067 335.764 215.173 335.912L215.228 335.989C215.452 336.301 215.261 336.739 214.88 336.786Z" fill="#FFA071"/>
<path d="M271.017 371.852L269.605 364.795C269.46 364.068 270.015 363.391 270.756 363.391C271.344 363.391 271.842 363.826 271.92 364.409L272.899 371.754C272.943 372.08 272.576 372.3 272.309 372.109C272.179 372.016 272.004 372.016 271.873 372.109L271.8 372.161C271.504 372.373 271.088 372.208 271.017 371.852Z" fill="#FFA071"/>
<path d="M212.768 332.761L205.561 333.869C204.78 333.989 204.086 333.361 204.128 332.572C204.16 331.951 204.646 331.449 205.266 331.396L212.769 330.755C213.118 330.725 213.336 331.124 213.123 331.402C213.021 331.534 213.012 331.715 213.099 331.858L213.149 331.94C213.352 332.271 213.152 332.702 212.768 332.761Z" fill="#FFA071"/>
<path d="M273.771 367.262L272.406 361.121C272.244 360.392 272.798 359.702 273.544 359.702C274.122 359.702 274.613 360.125 274.698 360.697L275.656 367.161C275.704 367.489 275.345 367.721 275.066 367.542C274.939 367.46 274.776 367.46 274.649 367.542L274.572 367.592C274.263 367.79 273.851 367.62 273.771 367.262Z" fill="#FFA071"/>
<mask id="path-32-inside-1_353_236" fill="white">
<path d="M274.187 363.917C281.206 361.693 280.709 361.249 280.496 360.576C280.282 359.902 280.433 359.253 273.413 361.477C266.394 363.702 255.883 367.633 256.097 368.307C256.31 368.981 267.167 366.142 274.187 363.917Z"/>
</mask>
<path d="M274.187 363.917C281.206 361.693 280.709 361.249 280.496 360.576C280.282 359.902 280.433 359.253 273.413 361.477C266.394 363.702 255.883 367.633 256.097 368.307C256.31 368.981 267.167 366.142 274.187 363.917Z" fill="#3F3D56"/>
<path d="M268.145 344.852C269.71 344.356 270.539 344.058 270.907 343.915C271.513 343.679 270.547 343.989 269.138 344.906C268.136 345.559 262.493 349.289 260.95 357.277C260.217 361.074 260.787 364.145 261.175 365.69C261.357 366.414 261.541 366.958 261.571 367.047C261.683 367.382 261.503 366.849 261.43 366.617L299.561 354.534C299.049 352.917 299.781 355.193 299.972 355.953C300.401 357.66 300.991 360.893 300.224 364.862C298.616 373.191 292.697 377.298 290.969 378.424C288.834 379.814 286.689 380.695 285.421 381.189C283.914 381.775 282.173 382.367 280.228 382.983L268.145 344.852ZM261.43 366.617C261.357 366.386 261.197 365.847 261.298 366.184C261.325 366.274 261.488 366.826 261.756 367.522C262.329 369.009 263.63 371.848 266.417 374.529C272.278 380.171 279.041 379.97 280.236 379.926C281.915 379.865 282.884 379.562 282.253 379.718C281.869 379.813 281.02 380.047 279.455 380.543L267.372 342.412C269.317 341.795 271.081 341.276 272.65 340.888C273.971 340.561 276.232 340.046 278.778 339.953C280.839 339.878 288.043 339.827 294.155 345.709C297.067 348.512 298.447 351.495 299.08 353.138C299.362 353.869 300.074 356.151 299.561 354.534L261.43 366.617ZM279.455 380.543C276.339 381.53 272.348 382.932 269.256 384.127C267.659 384.745 266.644 385.177 266.198 385.385C265.864 385.541 266.343 385.342 267.131 384.847C267.388 384.685 268.753 383.84 270.256 382.351C270.975 381.639 272.596 379.938 273.942 377.286C275.311 374.589 277.296 368.999 275.162 362.266L237.031 374.349C234.884 367.573 236.876 361.935 238.273 359.183C239.647 356.477 241.316 354.716 242.102 353.937C243.738 352.315 245.314 351.314 245.852 350.977C247.202 350.128 248.521 349.494 249.252 349.152C250.937 348.364 252.948 347.547 254.829 346.82C258.694 345.325 263.468 343.649 267.372 342.412L279.455 380.543ZM275.162 362.266C273.029 355.532 268.186 352.106 265.514 350.689C262.886 349.296 260.581 348.84 259.583 348.672C257.498 348.32 255.895 348.415 255.592 348.431C254.662 348.48 254.156 348.593 254.519 348.528C255.003 348.442 256.081 348.21 257.743 347.795C260.959 346.992 265.029 345.839 268.145 344.852L280.228 382.983C276.324 384.22 271.457 385.599 267.435 386.603C265.479 387.092 263.364 387.582 261.533 387.909C260.739 388.05 259.295 388.291 257.703 388.375C257.069 388.409 255.204 388.498 252.932 388.115C251.841 387.931 249.462 387.453 246.781 386.031C244.054 384.586 239.178 381.124 237.031 374.349L275.162 362.266Z" fill="#3F3D56" fill-opacity="0.8" mask="url(#path-32-inside-1_353_236)"/>
<ellipse cx="3.19965" cy="14.5051" rx="3.19965" ry="14.5051" transform="matrix(0.302079 0.953283 0.953283 -0.302079 278.214 357.814)" fill="#FF6363"/>
<path opacity="0.1" fill-rule="evenodd" clip-rule="evenodd" d="M293.692 358.608C297.515 357.396 300.841 355.971 303.124 354.66C304.273 354.001 305.109 353.397 305.614 352.896C305.833 352.679 305.959 352.509 306.026 352.392C305.904 352.335 305.703 352.269 305.398 352.217C304.698 352.098 303.666 352.087 302.347 352.209C299.726 352.453 296.186 353.203 292.363 354.414C288.539 355.626 285.214 357.052 282.931 358.362C281.782 359.022 280.945 359.625 280.441 360.126C280.222 360.344 280.095 360.513 280.029 360.63C280.151 360.688 280.351 360.753 280.656 360.805C281.357 360.924 282.388 360.935 283.707 360.813C286.328 360.569 289.868 359.82 293.692 358.608ZM306.079 352.273L306.078 352.276C306.079 352.274 306.079 352.273 306.079 352.273ZM306.136 352.457L306.138 352.459C306.138 352.459 306.137 352.458 306.136 352.457ZM279.976 360.749L279.976 360.747C279.976 360.748 279.976 360.749 279.976 360.749ZM279.919 360.565L279.917 360.564C279.917 360.564 279.917 360.564 279.919 360.565ZM307 351.963C307.017 351.997 307.031 352.032 307.043 352.069C307.067 352.144 307.078 352.222 307.077 352.304C307.059 354.049 301.478 357.189 294.182 359.501C286.545 361.921 279.582 362.605 279.049 360.92C278.523 359.262 284.423 355.927 291.892 353.515C291.948 353.497 292.004 353.479 292.061 353.461C299.633 351.062 306.216 350.413 307 351.963ZM307 351.963C306.221 350.411 299.72 351.033 292.249 353.4C292.13 353.438 292.01 353.476 291.892 353.515" fill="black"/>
<path d="M306.321 362.118C298.166 368.163 288.432 368.862 284.579 363.681C280.727 358.5 284.214 349.402 292.372 343.357C295.598 340.897 299.367 339.245 303.364 338.537L338.238 313.362L349.724 329.95L314.125 353.007C312.29 356.623 309.614 359.747 306.321 362.118Z" fill="#FFDDAA"/>
<path d="M440.243 100.111C440.243 100.111 468.375 100.998 473.706 120.511C479.038 140.024 489.7 181.615 487.923 239.362C487.923 239.362 496.808 276.614 473.706 274.84L324.913 350.047L317.356 325.704L438.165 239.362L440.243 100.111Z" fill="#FF6363"/>
<path d="M200.876 328.106L195.238 329.203C194.453 329.356 193.733 328.73 193.775 327.931C193.807 327.33 194.268 326.84 194.866 326.773L200.87 326.095C201.223 326.056 201.464 326.444 201.272 326.743C201.191 326.869 201.182 327.028 201.25 327.162L201.295 327.251C201.473 327.605 201.264 328.031 200.876 328.106Z" fill="#FFA071"/>
<path d="M540.708 264.081H530.689C530.689 264.081 533.772 227.864 530.689 224.525C530.689 224.525 502.685 221.443 474.424 252.266C474.424 252.266 479.305 218.618 515.787 216.82C527.482 216.244 534.242 220.893 538.023 227.479C546.044 241.437 540.708 264.081 540.708 264.081Z" fill="#3F3D56"/>
<path d="M600.313 363.999C600.502 367.968 599.724 371.923 598.046 375.525C596.368 379.127 593.839 382.267 590.679 384.676C590.679 384.676 462.991 414.985 448.861 412.416C447.123 412.091 445.436 411.538 443.843 410.772C432.58 405.43 425.482 390.84 425.482 390.84C425.482 390.84 425.268 387.07 424.952 380.926C424.346 369.044 423.364 348.282 422.822 328.737C422.288 309.427 422.183 291.308 423.298 284.116C426.124 265.879 445.649 264.338 445.649 264.338L575.649 258.687C579.919 258.644 584.174 259.201 588.289 260.342C602.343 264.562 600.313 275.383 600.313 275.383C600.313 275.383 599.799 350.129 600.313 363.999Z" fill="#FF6363"/>
<path d="M588.289 260.341C580.322 262.823 561.169 268.294 554.325 265.879C545.59 262.797 478.021 264.852 453.357 267.677C428.693 270.503 437.428 337.286 437.428 337.286L422.822 328.737C422.288 309.427 422.183 291.308 423.298 284.116C426.124 265.879 445.649 264.338 445.649 264.338L575.649 258.687C579.919 258.644 584.174 259.201 588.289 260.341Z" fill="#3F3D56"/>
<path d="M494.977 308.261C494.977 308.261 482.603 239.111 505.361 229.635L508.337 229.663C508.337 229.663 501.143 239.166 503.969 256.633C506.795 274.099 505.254 313.912 505.254 313.912C505.254 313.912 496.519 319.049 494.977 308.261Z" fill="#3F3D56"/>
<path d="M571.539 311.086L567.428 284.63L569.484 259.858L574.621 285.401L576.933 311.086H571.539Z" fill="#3F3D56"/>
<path d="M525.293 308.004L539.681 304.408L554.325 306.206V312.628L540.965 316.738L525.293 315.196V308.004Z" fill="#3F3D56"/>
<path d="M441.538 400.986C441.892 404.332 442.667 407.62 443.842 410.773C432.579 405.43 425.48 390.84 425.48 390.84C425.48 390.84 425.267 387.07 424.951 380.926L434.344 384.804L441.538 400.986Z" fill="#3F3D56"/>
<path d="M501.755 228.327C501.755 228.327 515.371 206.494 540.292 218.566C565.213 230.638 567.525 258.122 567.525 258.122C567.525 258.122 550.312 207.778 501.755 228.327Z" fill="#3F3D56"/>
<path opacity="0.15" d="M477.812 240.747L463.938 264.378H470.361C470.361 264.378 471.389 246.912 477.812 240.747Z" fill="black"/>
<path d="M352.66 371.114L354.257 372.934L335.01 392.485L313.789 409.789L311.533 407.22L331.439 388.418L352.66 371.114Z" fill="#DDDDDD"/>
<path d="M355.676 367.139L359.75 369.164L354.223 372.896L352.649 371.103L355.676 367.139Z" fill="#DDDDDD"/>
<path d="M311.669 407.374L313.653 409.634L307.247 413.924V413.924C306.947 413.754 306.705 413.496 306.555 413.185L306.503 413.077L311.669 407.374Z" fill="#DDDDDD"/>
<path fill-rule="evenodd" clip-rule="evenodd" d="M348.158 379.237L345.809 376.561L332.934 387.196L336.359 391.096L348.158 379.237ZM335.93 391.528L332.466 387.583L331.179 388.647L330.847 388.959L334.397 393.002L334.749 392.714L335.93 391.528ZM328.86 390.836L330.406 389.376L333.926 393.386L332.278 394.729L328.86 390.836ZM331.808 395.113L328.419 391.253L326.873 392.712L330.16 396.457L331.808 395.113ZM324.886 394.589L326.431 393.129L329.69 396.841L328.043 398.184L324.886 394.589ZM327.572 398.568L324.444 395.006L311.196 407.516L313.452 410.085L327.572 398.568Z" fill="#949494"/>
<path d="M373.452 414.591C380.157 411.312 385.231 407.914 386.144 409.782C387.058 411.65 381.811 414.694 375.105 417.973C368.4 421.251 350.009 412.356 349.095 410.488C348.182 408.62 366.746 417.869 373.452 414.591Z" fill="#F2F2F2"/>
<path d="M343.931 413.55L341.819 413.186L350.443 409.507L352.76 411.168L352.881 412.076L352.615 412.851L343.931 413.55Z" fill="#F2F2F2"/>
<path d="M359.63 386.318C366.335 383.04 372.133 381.123 371.22 379.255C370.307 377.387 364.682 379.658 357.976 382.936C351.271 386.214 346.995 406.191 347.909 408.059C348.822 409.927 352.924 389.596 359.63 386.318Z" fill="#F2F2F2"/>
<path d="M342.32 410.254L341.31 412.145L349.51 407.598L349.622 404.75L348.98 404.097L348.205 403.831L342.32 410.254Z" fill="#F2F2F2"/>
<path d="M364.579 401.044C371.944 401.441 379.531 411.539 379.531 411.539L377.894 412.339C377.894 412.339 371.824 404.034 364.815 403.274C358.39 402.577 351.825 398.537 351.825 398.537L351.921 397.424L352.618 396.23C352.618 396.23 359.865 400.79 364.579 401.044Z" fill="#FF6363"/>
<path d="M373.452 414.591C380.157 411.312 385.231 407.914 386.144 409.782C387.058 411.65 381.811 414.694 375.105 417.973C368.4 421.251 350.009 412.356 349.095 410.488C348.182 408.62 366.746 417.869 373.452 414.591Z" fill="#F2F2F2"/>
<path d="M343.931 413.55L341.819 413.186L350.443 409.507L352.76 411.168L352.881 412.076L352.615 412.851L343.931 413.55Z" fill="#F2F2F2"/>
<g opacity="0.1">
<path d="M373.452 414.591C380.157 411.312 385.231 407.914 386.144 409.782C387.058 411.65 381.811 414.694 375.105 417.973C368.4 421.251 350.009 412.356 349.095 410.488C348.182 408.62 366.746 417.869 373.452 414.591Z" fill="black"/>
<path d="M343.931 413.55L341.819 413.186L350.443 409.507L352.76 411.168L352.881 412.076L352.615 412.851L343.931 413.55Z" fill="black"/>
</g>
<path d="M359.63 386.318C366.335 383.04 372.133 381.123 371.22 379.255C370.307 377.387 364.682 379.658 357.976 382.936C351.271 386.214 346.995 406.191 347.909 408.059C348.822 409.927 352.924 389.596 359.63 386.318Z" fill="#F2F2F2"/>
<path d="M342.32 410.254L341.31 412.145L349.51 407.598L349.622 404.75L348.98 404.097L348.205 403.831L342.32 410.254Z" fill="#F2F2F2"/>
<circle cx="349.819" cy="408.807" r="2.07787" transform="rotate(-116.054 349.819 408.807)" fill="#F2F2F2"/>
<path d="M404.1 361H396.705L394.688 381.616H406.565L404.1 361Z" fill="#3F3D56"/>
<path d="M394.689 381.616L392 383.184L392.896 399.318L393.569 401.335H407.91L408.358 399.318L409.03 383.184L406.117 381.616H394.689Z" fill="#3F3D56"/>
<path d="M403.522 391.199L400.964 393.94L398.405 391.199C398.028 390.794 397.778 390.288 397.687 389.743C397.631 389.406 397.637 389.063 397.704 388.729L397.778 388.357C397.81 388.196 397.873 388.044 397.964 387.907C398.372 387.295 399.217 387.164 399.791 387.624L400.964 388.562L402.049 387.718C402.581 387.304 403.338 387.351 403.815 387.828C404.001 388.014 404.129 388.252 404.18 388.511L404.241 388.812C404.296 389.091 404.301 389.378 404.254 389.659L404.24 389.743C404.149 390.288 403.9 390.794 403.522 391.199Z" fill="#FF6363"/>
<path d="M403.686 380.093L397.14 380.229C395.908 380.255 394.791 380.961 394.24 382.064L395.955 381.941C398.991 381.724 402.038 381.724 405.074 381.941L406.789 382.064C406.246 380.842 405.023 380.065 403.686 380.093Z" fill="white"/>
</svg>
