<svg width="578" height="578" viewBox="0 0 578 578" fill="none" xmlns="http://www.w3.org/2000/svg">
<path d="M578 289C578 448.61 448.61 578 289 578C129.39 578 0 448.61 0 289C0 129.39 129.39 0 289 0C448.61 0 578 129.39 578 289Z" fill="#FB923C"/>
<path d="M470.22 265.859H458.426C458.426 265.859 462.055 223.228 458.426 219.298C458.426 219.298 425.463 215.67 392.197 251.951C392.197 251.951 397.943 212.344 440.886 210.227C454.652 209.55 462.608 215.023 467.06 222.775C476.501 239.204 470.22 265.859 470.22 265.859Z" fill="#3F3D56"/>
<path d="M540.379 383.47C540.602 388.142 539.686 392.798 537.711 397.037C535.735 401.277 532.76 404.973 529.039 407.809C529.039 407.809 378.74 443.485 362.107 440.462C360.062 440.079 358.076 439.428 356.201 438.527C342.943 432.238 334.588 415.065 334.588 415.065C334.588 415.065 334.337 410.627 333.965 403.395C333.251 389.408 332.096 364.97 331.458 341.964C330.829 319.234 330.705 297.907 332.017 289.441C335.344 267.975 358.327 266.161 358.327 266.161L511.348 259.509C516.374 259.459 521.383 260.114 526.227 261.457C542.769 266.424 540.379 279.162 540.379 279.162C540.379 279.162 539.775 367.144 540.379 383.47Z" fill="#FF6363"/>
<path d="M526.227 261.456C516.849 264.377 494.304 270.817 486.248 267.975C475.966 264.347 396.431 266.766 367.399 270.091C338.368 273.417 348.65 352.026 348.65 352.026L331.458 341.964C330.829 319.234 330.705 297.907 332.017 289.441C335.344 267.975 358.327 266.161 358.327 266.161L511.348 259.509C516.374 259.459 521.383 260.114 526.227 261.456Z" fill="#3F3D56"/>
<path d="M416.39 317.862C416.39 317.862 401.825 236.466 428.613 225.312L432.116 225.345C432.116 225.345 423.648 236.531 426.975 257.091C430.301 277.65 428.487 324.513 428.487 324.513C428.487 324.513 418.205 330.56 416.39 317.862Z" fill="#3F3D56"/>
<path d="M506.51 321.188L501.671 290.046L504.091 260.888L510.138 290.953L512.86 321.188H506.51Z" fill="#3F3D56"/>
<path d="M452.074 317.559L469.01 313.326L486.247 315.442V323.001L470.522 327.839L452.074 326.024V317.559Z" fill="#3F3D56"/>
<path d="M353.488 427.008C353.905 430.946 354.816 434.816 356.2 438.527C342.942 432.238 334.587 415.065 334.587 415.065C334.587 415.065 334.336 410.627 333.964 403.395L345.02 407.96L353.488 427.008Z" fill="#3F3D56"/>
<path d="M424.368 223.772C424.368 223.772 440.396 198.073 469.73 212.283C499.064 226.493 501.786 258.844 501.786 258.844C501.786 258.844 481.524 199.585 424.368 223.772Z" fill="#3F3D56"/>
<path opacity="0.15" d="M396.185 238.392L379.854 266.207H387.415C387.415 266.207 388.624 245.648 396.185 238.392Z" fill="black"/>
<path d="M324.574 195.689L303.83 187.324L274.851 242.872L308.166 256.307L324.574 195.689Z" fill="#3F3D56"/>
<g filter="url(#filter0_d_353_239)">
<path d="M274.851 242.872L265.533 244.23L249.796 290.502L249.4 296.92L289.63 313.144L293.168 307.994L313.306 263.496L306.909 255.8L274.851 242.872Z" fill="#3F3D56"/>
</g>
<path d="M289.746 279.3L278.509 284.542L274.053 272.972C273.7 272.054 273.625 271.053 273.838 270.093L274.206 268.434C274.337 267.843 274.574 267.28 274.907 266.773L275.888 265.277C276.16 264.863 276.51 264.506 276.92 264.227C278.756 262.972 281.274 263.559 282.365 265.498L284.593 269.456L288.593 268.316C290.554 267.757 292.624 268.746 293.421 270.622C293.734 271.356 293.822 272.167 293.674 272.951L293.431 274.244C293.319 274.839 293.1 275.409 292.784 275.926L291.898 277.376C291.385 278.215 290.637 278.884 289.746 279.3Z" fill="#FF6363"/>
<path d="M275.819 241.207L273.086 243.622L286.842 248.059C289.739 248.994 292.566 250.134 295.3 251.47L308.287 257.818L308.147 253.804C308.09 252.194 307.074 250.775 305.567 250.204L279.886 240.464C278.497 239.937 276.931 240.223 275.819 241.207Z" fill="white"/>
<mask id="path-15-inside-1_353_239" fill="white">
<path d="M137.688 262.496C129.631 277.761 131.19 277.683 132.656 278.456C134.121 279.23 134.937 280.562 142.994 265.297C151.052 250.033 162.128 226.174 160.662 225.4C159.197 224.627 145.746 247.232 137.688 262.496Z"/>
</mask>
<path d="M137.688 262.496C129.631 277.761 131.19 277.683 132.656 278.456C134.121 279.23 134.937 280.562 142.994 265.297C151.052 250.033 162.128 226.174 160.662 225.4C159.197 224.627 145.746 247.232 137.688 262.496Z" fill="#3F3D56"/>
<path d="M155.375 271.833C153.454 275.473 152.262 277.905 151.548 279.499C150.729 281.326 150.905 281.256 151.139 280.183C151.27 279.584 152.717 273.274 148.338 266.698C146.259 263.576 143.783 261.859 142.517 261.089C141.928 260.731 141.465 260.499 141.433 260.482C141.17 260.349 141.725 260.628 141.992 260.769L123.319 296.143C124.714 296.88 122.489 295.725 121.724 295.26C120.124 294.286 117.349 292.329 115.044 288.868C110.212 281.611 111.497 274.223 112.062 271.638C113.183 266.514 116.249 260.268 120.001 253.16L155.375 271.833ZM141.992 260.769C142.259 260.91 142.803 261.211 142.544 261.069C142.513 261.052 142.06 260.8 141.432 260.516C140.082 259.906 137.267 258.83 133.517 258.875C125.617 258.969 121.223 263.723 120.803 264.169C120.049 264.968 120.09 265.153 121.137 263.446C122.05 261.957 123.386 259.601 125.307 255.961L160.681 274.634C156.929 281.742 153.502 287.797 149.903 291.613C148.088 293.538 142.712 298.767 133.995 298.872C129.837 298.921 126.655 297.734 124.949 296.962C124.133 296.593 121.924 295.407 123.319 296.143L141.992 260.769ZM125.307 255.961C129.143 248.694 133.744 239.286 137.167 231.695C138.901 227.848 140.18 224.803 140.901 222.861C141.304 221.774 141.3 221.647 141.188 222.12C141.17 222.198 140.819 223.584 140.795 225.573C140.784 226.521 140.817 228.819 141.708 231.614C142.614 234.456 145.106 239.804 151.326 243.087L169.999 207.713C176.311 211.045 178.869 216.486 179.819 219.465C180.753 222.396 180.806 224.874 180.793 226.044C180.764 228.474 180.317 230.467 180.12 231.302C179.652 233.287 178.961 235.27 178.405 236.768C177.209 239.993 175.491 244.012 173.632 248.135C169.868 256.483 164.903 266.636 160.681 274.634L125.307 255.961ZM151.326 243.087C157.546 246.371 163.367 245.411 166.225 244.556C169.035 243.715 170.951 242.446 171.728 241.901C173.357 240.76 174.303 239.688 174.358 239.629C174.685 239.27 174.578 239.339 173.908 240.284C172.71 241.975 170.918 244.749 168.72 248.351C164.384 255.459 159.211 264.566 155.375 271.833L120.001 253.16C124.223 245.162 129.805 235.335 134.574 227.517C136.93 223.657 139.279 219.97 141.267 217.163C142.19 215.86 143.437 214.171 144.813 212.664C145.391 212.031 146.784 210.537 148.775 209.142C149.733 208.471 151.809 207.117 154.756 206.235C157.751 205.339 163.687 204.382 169.999 207.713L151.326 243.087Z" fill="#3F3D56" fill-opacity="0.8" mask="url(#path-15-inside-1_353_239)"/>
<ellipse cx="7.5" cy="34" rx="7.5" ry="34" transform="matrix(-0.88435 -0.466824 -0.466824 0.88435 141.009 279.312)" fill="#FF6363"/>
<path opacity="0.1" fill-rule="evenodd" clip-rule="evenodd" d="M112.675 302.829C108.256 311.202 105.007 319.145 103.32 325.207C102.475 328.246 102.037 330.759 102.017 332.594C102.008 333.513 102.104 334.207 102.271 334.693C102.435 335.172 102.638 335.371 102.802 335.457C102.965 335.544 103.244 335.599 103.733 335.464C104.228 335.328 104.855 335.016 105.608 334.49C107.112 333.439 108.94 331.659 110.972 329.246C115.026 324.434 119.752 317.27 124.172 308.898C128.592 300.525 131.84 292.581 133.527 286.519C134.372 283.48 134.81 280.967 134.83 279.132C134.839 278.213 134.743 277.52 134.576 277.034C134.412 276.554 134.209 276.355 134.045 276.269C133.882 276.183 133.603 276.127 133.114 276.262C132.619 276.399 131.992 276.71 131.239 277.237C129.735 278.288 127.907 280.067 125.875 282.48C121.822 287.293 117.095 294.456 112.675 302.829ZM102.667 336.474C102.552 336.441 102.442 336.397 102.337 336.342C102.142 336.239 101.969 336.099 101.818 335.924C99.1804 332.846 103.23 318.806 111.353 303.197C111.427 303.055 111.502 302.914 111.576 302.773C120.342 286.167 130.84 273.566 134.503 275.5C138.105 277.402 133.755 292.655 125.271 308.957C125.199 309.093 125.128 309.228 125.056 309.364C116.426 325.713 106.582 337.577 102.667 336.474Z" fill="black"/>
<path d="M243.097 123.793C242.689 128.456 241.015 132.368 238.871 134.942C236.714 137.531 234.408 138.451 232.49 138.283C230.572 138.116 228.461 136.809 226.786 133.884C225.121 130.977 224.153 126.834 224.561 122.171C224.969 117.508 226.642 113.596 228.786 111.022C230.944 108.433 233.249 107.512 235.167 107.68C237.086 107.848 239.196 109.155 240.871 112.079C242.536 114.986 243.505 119.129 243.097 123.793Z" stroke="#F2F2F2" stroke-width="9"/>
<path d="M214.777 119.55C212.799 123.792 209.889 126.896 206.993 128.581C204.08 130.276 201.599 130.353 199.854 129.539C198.109 128.725 196.572 126.775 195.999 123.454C195.429 120.153 195.935 115.928 197.914 111.686C199.892 107.444 202.802 104.34 205.698 102.655C208.611 100.959 211.092 100.883 212.837 101.697C214.582 102.511 216.119 104.46 216.692 107.781C217.262 111.083 216.756 115.307 214.777 119.55Z" stroke="#F2F2F2" stroke-width="9"/>
<path opacity="0.1" d="M215.155 119.223C213.176 123.465 210.249 126.609 207.279 128.338C204.296 130.074 201.595 130.239 199.582 129.3C197.569 128.362 195.959 126.186 195.372 122.785C194.787 119.399 195.314 115.136 197.292 110.893C199.27 106.651 202.198 103.507 205.167 101.779C208.15 100.042 210.852 99.8774 212.865 100.816C214.877 101.755 216.487 103.93 217.075 107.331C217.66 110.717 217.133 114.98 215.155 119.223Z" stroke="black" stroke-width="7"/>
<path d="M220.358 119.389L222.874 133.996L201.067 193.549L210.515 156.125L220.358 119.389Z" fill="#F2F2F2"/>
<path d="M219.12 119.655L210.057 131.287L201.068 193.549L210.466 156.841L219.12 119.655Z" fill="#F2F2F2"/>
<path opacity="0.1" d="M218.54 119.854L210.29 131.228L201.147 191.362L210.169 155.831L218.54 119.854Z" fill="black"/>
<circle cx="209.83" cy="158.129" r="1.83108" transform="rotate(15 209.83 158.129)" fill="#3F3D56"/>
<path d="M212.356 348.373L215.284 351.709L180.005 387.545L141.108 419.261L136.974 414.553L173.46 380.09L212.356 348.373Z" fill="#DDDDDD"/>
<path d="M217.885 341.087L225.352 344.799L215.222 351.639L212.337 348.353L217.885 341.087Z" fill="#DDDDDD"/>
<path d="M137.224 414.835L140.86 418.977L129.118 426.841V426.841C128.568 426.528 128.125 426.055 127.85 425.485L127.755 425.288L137.224 414.835Z" fill="#DDDDDD"/>
<path fill-rule="evenodd" clip-rule="evenodd" d="M204.104 363.261L199.798 358.357L176.202 377.85L182.478 384.999L204.104 363.261ZM181.692 385.79L175.343 378.559L172.983 380.509L172.376 381.082L178.881 388.492L179.528 387.964L181.692 385.79ZM168.733 384.522L171.567 381.846L178.019 389.195L174.999 391.658L168.733 384.522ZM174.136 392.362L167.924 385.286L165.091 387.961L171.116 394.825L174.136 392.362ZM161.45 391.4L164.281 388.726L170.254 395.528L167.236 397.99L161.45 391.4ZM166.373 398.694L160.64 392.164L136.357 415.095L140.491 419.804L166.373 398.694Z" fill="#949494"/>
<path d="M219.777 496.97C219.777 520.319 222.356 539.248 215.851 539.248C209.347 539.248 208 520.319 208 496.97C208 473.621 258.268 434.158 264.772 434.158C271.277 434.158 219.777 473.621 219.777 496.97Z" fill="#F2F2F2"/>
<path d="M263.262 415.436L267.188 410L265.678 439.292L257.827 443.52L255.109 442.614L253.297 440.802L263.262 415.436Z" fill="#F2F2F2"/>
<path d="M318.223 496.97C318.223 520.319 315.644 539.248 322.149 539.248C328.653 539.248 330 520.319 330 496.97C330 473.621 279.732 434.158 273.228 434.158C266.723 434.158 318.223 473.621 318.223 496.97Z" fill="#F2F2F2"/>
<path d="M274.738 415.436L270.812 410L272.322 439.292L280.173 443.52L282.891 442.614L284.703 440.802L274.738 415.436Z" fill="#F2F2F2"/>
<path d="M270.037 490.648C258.804 510.799 220 518.248 220 518.248V512.548C220 512.548 251.68 506.9 263.446 488.248C274.232 471.148 294.607 458.248 294.607 458.248L297.603 460.048L300 463.648C300 463.648 277.228 477.748 270.037 490.648Z" fill="#FF6363"/>
<path d="M219.777 496.97C219.777 520.319 222.356 539.248 215.851 539.248C209.347 539.248 208 520.319 208 496.97C208 473.621 258.268 434.158 264.772 434.158C271.277 434.158 219.777 473.621 219.777 496.97Z" fill="#F2F2F2"/>
<path d="M263.262 415.436L267.188 410L265.678 439.292L257.827 443.52L255.109 442.614L253.297 440.802L263.262 415.436Z" fill="#F2F2F2"/>
<g opacity="0.1">
<path d="M219.777 496.97C219.777 520.319 222.356 539.248 215.851 539.248C209.347 539.248 208 520.319 208 496.97C208 473.621 258.268 434.158 264.772 434.158C271.277 434.158 219.777 473.621 219.777 496.97Z" fill="black"/>
<path d="M263.262 415.436L267.188 410L265.678 439.292L257.827 443.52L255.109 442.614L253.297 440.802L263.262 415.436Z" fill="black"/>
</g>
<path d="M318.223 496.97C318.223 520.319 315.644 539.248 322.149 539.248C328.653 539.248 330 520.319 330 496.97C330 473.621 279.732 434.158 273.228 434.158C266.723 434.158 318.223 473.621 318.223 496.97Z" fill="#F2F2F2"/>
<path d="M274.738 415.436L270.812 410L272.322 439.292L280.173 443.52L282.891 442.614L284.703 440.802L274.738 415.436Z" fill="#F2F2F2"/>
<circle cx="268.5" cy="438.5" r="6.5" fill="#F2F2F2"/>
<defs>
<filter id="filter0_d_353_239" x="245.4" y="242.872" width="71.9053" height="78.272" filterUnits="userSpaceOnUse" color-interpolation-filters="sRGB">
<feFlood flood-opacity="0" result="BackgroundImageFix"/>
<feColorMatrix in="SourceAlpha" type="matrix" values="0 0 0 0 0 0 0 0 0 0 0 0 0 0 0 0 0 0 127 0" result="hardAlpha"/>
<feOffset dy="4"/>
<feGaussianBlur stdDeviation="2"/>
<feComposite in2="hardAlpha" operator="out"/>
<feColorMatrix type="matrix" values="0 0 0 0 0 0 0 0 0 0 0 0 0 0 0 0 0 0 0.25 0"/>
<feBlend mode="normal" in2="BackgroundImageFix" result="effect1_dropShadow_353_239"/>
<feBlend mode="normal" in="SourceGraphic" in2="effect1_dropShadow_353_239" result="shape"/>
</filter>
</defs>
</svg>
