<svg width="524" height="487" viewBox="0 0 524 487" fill="none" xmlns="http://www.w3.org/2000/svg">
<g opacity="0.9" clip-path="url(#clip0_127_585)">
<path d="M262 513.901L247.175 519L220 465.526L241.882 458L262 513.901Z" fill="#FFEACB"/>
<path d="M297.998 529L282.413 528.999L275 469L298 469.001L297.998 529Z" fill="#FFEACB"/>
<path d="M303.489 270.323C317.62 269.772 300.115 383.041 300.115 383.041C300.115 383.041 305.236 482.487 304.15 487.706C303.065 492.925 304.013 507 304.013 507C301.245 501.932 272.683 505.757 272.683 505.757L268.797 404.969L248.959 324.214L221.456 378.345L247.817 461.433C247.817 461.433 258.492 471.37 257.357 475.296C256.222 479.223 228.259 488.078 223.121 488.278C217.982 488.479 220.303 481.918 220.054 475.457C219.804 468.996 195.625 409.117 187.12 388.743C178.616 368.369 185.227 339.641 189.569 318.766C193.91 297.891 216.749 258.715 216.749 258.715C245.1 226.551 289.358 270.874 303.489 270.323Z" fill="#3F3D56"/>
<rect x="5.38574" y="342.56" width="519" height="131" rx="9" fill="#FAF3EB"/>
<path d="M307.758 76.6465C306.623 84.9585 302.247 92.4779 295.594 97.5525C288.94 102.627 280.553 104.842 272.274 103.711C263.995 102.579 256.502 98.194 251.441 91.5184C246.381 84.8427 244.166 76.4227 245.283 68.1083L245.344 67.6589C246.651 59.4555 251.116 52.0965 257.777 47.1692C264.437 42.242 272.76 40.1414 280.95 41.3207C289.139 42.5 296.538 46.8645 301.552 53.4729C306.565 60.0813 308.791 68.4038 307.749 76.6452L307.758 76.6465Z" fill="#FFEACB"/>
<path d="M484.278 346.046L484.405 360.783L427.605 368.29L427.417 346.539L484.278 346.046Z" fill="#FFDDAA"/>
<path d="M484.384 396.541C485.161 396.993 487.659 397.214 488.558 397.206C491.321 397.182 493.541 394.923 493.517 392.16L493.119 346.52C493.102 344.636 491.561 343.121 489.676 343.138L487.775 343.154C487.775 343.154 482.043 340.946 475.042 345.656C475.042 345.656 480.606 351.385 472.046 360.093L467.455 362.679L481.097 380.989L482.444 391.192C482.738 393.424 482.438 395.409 484.384 396.541Z" fill="#FFDDAA"/>
<path d="M486.323 387.62L486.039 402.356L429.054 408.268L429.472 386.52L486.323 387.62Z" fill="#FFDDAA"/>
<path d="M485.366 438.14C486.131 438.614 488.62 438.904 489.519 438.921C492.282 438.975 494.565 436.779 494.618 434.017L495.492 388.382C495.528 386.498 494.03 384.941 492.145 384.905L490.245 384.868C490.245 384.868 484.576 382.5 477.447 387.012C477.447 387.012 482.849 392.895 474.05 401.36L469.389 403.816L482.514 422.502L483.576 432.739C483.808 434.978 483.452 436.953 485.366 438.14Z" fill="#FFDDAA"/>
<path d="M158.5 347.5C158.541 350.324 197.524 350.518 203.244 346.052C207.936 342.388 203.792 408.821 203.792 408.821C202.467 402.591 158.831 393.277 157 400L147.159 372.526L158.5 347.5Z" fill="#FFDDAA"/>
<path d="M198.624 407.159L200.203 348.526C200.203 348.526 203.081 324.221 278.886 323.56L430.886 344.559L435.05 369.269L357.386 378.743L271.341 378.743L372.886 374.56L357.386 378.743L439.224 384.212L439.438 408.672L348.386 407.159L292.386 413.059C292.386 413.059 220.096 427.734 198.624 407.159Z" fill="#3F3D56"/>
<path d="M124 411.5L128.5 409L135 409L148 406.516L157.5 404.5L169.5 401C169.5 401 157.365 365.261 173.078 345.636L118.5 349L86.3079 347.32L79.2019 360.375L70.5574 362.615L70.7976 390.136L79.498 394.297L85.3806 406.516L89.5 416L116.5 414.5L124 411.5Z" fill="#FFDDAA"/>
<path d="M124.713 346.411C123.856 344.631 123.4 342.685 123.376 340.708C123.351 338.731 123.76 336.773 124.572 334.971C125.385 333.169 126.581 331.567 128.078 330.278C129.574 328.988 131.334 328.044 133.234 327.51L189.623 218.032L213.038 235.73L150.247 337.778C150.927 341.034 150.392 344.43 148.742 347.32C147.093 350.21 144.443 352.394 141.296 353.458C138.148 354.522 134.722 354.393 131.665 353.094C128.609 351.795 126.135 349.417 124.713 346.411Z" fill="#FFEACB"/>
<path d="M232.709 118.388C232.709 118.388 226.499 114.842 221.719 129.186C217.891 140.669 187.63 208.832 186.738 225.609C184.413 226.024 182.292 227.198 180.71 228.947C179.128 230.695 178.175 232.919 178 235.267L212.552 241C218.777 236.094 220.587 229.258 218.306 227.14L226.493 206.866L260 142.595L237.243 120.872L232.709 118.388Z" fill="white"/>
<path d="M65.1606 372.368C65.2876 386.917 53.5928 398.815 39.0395 398.942C24.4862 399.069 12.5855 387.377 12.4585 372.828C12.3315 358.279 24.0263 346.381 38.5796 346.254C53.1328 346.128 65.0336 357.819 65.1606 372.368Z" fill="#FFDDAA"/>
<path d="M24.9368 393.161C27.6748 389.029 32.3005 386.361 39.222 385.633C37.1501 383.071 33.4187 382.721 28.6574 383.744C33.5241 381.907 58.245 367.128 66.0921 366.099C71.0902 365.445 76.1511 367.402 80.1707 370.439C83.9183 373.277 86.873 376.993 89.6483 380.801C86.9536 373.621 81.1072 367.669 73.9575 364.88C63.6344 360.848 52.2079 363.399 41.4588 366.734C42.8832 365.962 45.4854 364.848 46.4952 363.579C47.7919 361.947 47.3648 360.03 48.9846 358.715C50.9522 357.117 53.7215 356.793 56.2174 357.261C58.7136 357.74 61.0056 358.92 63.2574 360.081C59.9703 343.406 40.8325 338.607 27.8907 346.353C36.6141 341.394 54.2569 340.18 62.1766 346.324C66.62 349.767 70.1064 354.779 75.4653 356.473C79.2285 357.661 83.4055 356.954 86.9633 355.242C90.5211 353.53 93.5402 350.873 96.3179 348.067C97.4587 346.917 98.5593 345.736 99.6294 344.506C98.2436 343.17 98.8736 340.875 100.729 340.361C101.76 340.075 102.822 339.629 103.905 339.067C104.984 334.114 103.368 327.453 110.309 326.375C112.161 326.087 111.308 322.744 111.592 320.881C110.201 321.394 108.952 319.786 109.834 318.595C110.987 317.038 111.657 315.385 111.93 313.654C111.651 309.255 110.493 304.953 108.278 301.15C100.789 313.401 103.074 324.072 89.5662 328.952C87.4532 329.717 83.0343 329.995 78.061 330.026C66.7852 330.094 55.6939 327.539 45.3447 323.064C44.082 322.518 42.8631 322.104 41.7983 321.93C34.1114 320.666 23.5822 322.829 18.6482 326.234C13.7241 329.638 10.5726 335.479 10.4648 341.473C10.4008 344.465 11.7273 346.234 10.3394 348.887C8.85298 351.722 10.8401 352.365 8.29501 354.298C3.75163 357.749 1.44077 363.582 1.29039 369.286C1.14002 374.99 -0.423641 378.195 2.01326 383.356C3.55286 386.615 12.0506 390.308 12.1336 393.913C12.3055 401.376 18.5803 402.753 24.9368 393.161Z" fill="#3F3D56"/>
<path d="M67.5909 402.357C67.3883 402.079 67.1958 401.811 66.9932 401.532C67.0852 401.752 67.1672 401.971 67.2391 402.19L67.5909 402.357Z" fill="#3F3D56"/>
<path d="M277.011 268.196C267.186 268.134 257.496 265.893 248.64 261.637L248.335 261.496L248.214 261.181L211.5 166.034L210.802 149.502C210.568 143.973 211.494 138.457 213.521 133.308C215.547 128.16 218.629 123.492 222.568 119.607C226.507 115.722 231.216 112.705 236.392 110.751C241.567 108.796 247.094 107.948 252.617 108.259L291.595 110.455C301.664 111.028 311.135 115.417 318.082 122.729C325.029 130.042 328.929 139.727 328.988 149.814C330 151.76 332.172 177.708 318.082 192C317.556 195.254 289.668 203.092 308.267 221.696V232.196H304.767C281.224 218.835 312.127 268.191 277.011 268.196Z" fill="white"/>
<path d="M198 381.046C198 381.046 198 375.013 198 385.983L198 411.513C198 411.513 214.002 419.818 246.372 422.013C278.741 424.207 369.176 491.865 369.176 491.865C369.176 491.865 370.822 518.198 380.697 519.844C390.573 521.49 403.191 510.517 414.164 512.712C425.137 514.906 456.958 497.001 454.764 459.047C452.569 421.094 431.172 303.692 406.483 302.046C381.795 300.4 198 343.513 198 343.513V374.013C198 374.013 198.001 366.278 198 377.013C198 387.748 198 381.046 198 381.046Z" fill="white"/>
<path d="M175.412 355.85C177.32 356.397 179.328 356.516 181.294 356.2C183.26 355.884 185.136 355.14 186.791 354.021C188.446 352.902 189.839 351.435 190.872 349.723C191.904 348.011 192.552 346.096 192.769 344.113L292.138 269.127L270.71 248.863L179.771 328.944C176.426 328.827 173.144 329.945 170.548 332.085C167.951 334.225 166.22 337.238 165.683 340.555C165.145 343.872 165.839 347.261 167.632 350.08C169.425 352.899 172.193 354.952 175.412 355.85Z" fill="#FFEACB"/>
<path d="M162 404.677L197.5 404.677L214 398L203 388.641L157 388.641L127.807 388.641L86.6036 381.851C83.7458 381.38 80.7594 382.155 78.2872 383.717C75.3286 385.587 73.1117 388.579 72.716 391.901C72.4689 393.959 72.8699 398.281 74.0631 399.785C76.8812 403.334 79.5452 409.559 89.0848 415.433L101.01 411.816L109.268 404.677L111.123 404.544L111.246 402.962L162 404.677Z" fill="#FFDDAA"/>
<path d="M239.954 399.415C236.525 398.552 233.185 398.535 230.407 399.206L198.261 388.919L193.808 404.358L226.897 413.132C229.025 415.038 231.974 416.604 235.404 417.468C243.237 419.44 250.606 416.998 251.863 412.013C253.119 407.028 247.787 401.388 239.954 399.415Z" fill="#FFDDAA"/>
<path d="M325.532 24.2912C321.664 20.5098 316.596 18.1878 312.45 14.7102C310.175 12.8021 308.181 10.5481 305.704 8.90957C301.101 5.86527 295.24 5.24623 289.754 5.92113C283.75 6.7132 278.017 8.90261 273.017 12.3122C268.017 15.7218 263.891 20.2557 260.974 25.5471C257.859 24.3317 254.743 23.1163 251.628 21.901C250.968 25.0341 250.309 28.1672 249.649 31.3004C248.598 30.6457 247.348 30.3833 246.12 30.5598C244.892 30.7363 243.766 31.3402 242.942 32.2646C242.117 33.1889 241.648 34.374 241.616 35.6097C241.584 36.8454 241.992 38.0519 242.768 39.0155C241.759 37.0329 238.579 37.0811 237.083 38.7326C235.587 40.3843 235.516 42.9132 236.14 45.0477C236.869 47.3825 238.282 49.4458 240.198 50.9725C242.114 52.4992 244.444 53.4195 246.89 53.615C250.743 53.8529 254.937 52.3003 258.29 54.2012C260.979 55.7252 262.247 59.0736 264.975 60.5269C268.336 62.3177 272.415 60.5991 276.227 60.5097C282.897 60.3534 289.12 66.192 289.366 72.836C289.632 70.6853 289.918 68.4704 290.995 66.5872C292.072 64.7041 294.152 63.2168 296.306 63.5061C299.867 63.9842 301.153 68.5144 300.873 72.0849C300.13 81.5545 294.178 97.6119 294.178 97.6119C305.601 100.139 317.782 94.1167 324.812 84.7836C331.842 75.4504 334.369 63.4088 334.455 51.7448C334.528 41.8538 332.614 31.2134 325.532 24.2912Z" fill="#F1E25C"/>
<path d="M323.03 149C323.03 149 328.5 149 323.03 162.191C320.234 173.928 309.966 247.552 301.938 262.232C303.672 263.804 304.837 265.912 305.249 268.223C305.662 270.535 305.299 272.919 304.217 275L272.225 261.721C269.568 254.297 271.626 247.556 274.648 246.96L278.385 225.488L283.894 153.457L308.5 145.5L314 145L323.03 149Z" fill="white"/>
</g>
<defs>
<clipPath id="clip0_127_585">
<rect width="487" height="524" fill="white" transform="matrix(0 1 1 0 0 0)"/>
</clipPath>
</defs>
</svg>
