<svg width="678" height="515" viewBox="0 0 678 515" fill="none" xmlns="http://www.w3.org/2000/svg">
<g clip-path="url(#clip0_375_15)">
<rect x="98" y="111" width="299" height="56" rx="14" fill="white"/>
<rect x="98" y="223" width="400" height="56" rx="14" fill="white"/>
<rect x="98" y="337" width="488" height="56" rx="14" fill="white"/>
<circle cx="598" cy="247" r="50" fill="white"/>
<rect x="578.886" y="258.514" width="43.3154" height="9.69747" rx="4.84873" transform="rotate(-45 578.886 258.514)" fill="#FB923C"/>
<rect x="609.514" y="265.372" width="43.3154" height="9.69747" rx="4.84873" transform="rotate(-135 609.514 265.372)" fill="#FB923C"/>
<circle cx="508" cy="139" r="50" fill="white"/>
<path d="M500.5 152C489.748 152 481 143.252 481 132.5C481 121.748 489.748 113 500.5 113C511.252 113 520 121.748 520 132.5C520 143.252 511.252 152 500.5 152ZM500.5 120.8C494.048 120.8 488.8 126.048 488.8 132.5C488.8 138.952 494.048 144.2 500.5 144.2C506.952 144.2 512.2 138.952 512.2 132.5C512.2 126.048 506.952 120.8 500.5 120.8Z" fill="#FB923C"/>
<path d="M530.115 165C529.163 165 528.209 164.665 527.46 163.985L509.229 147.489C507.663 146.074 507.583 143.7 509.051 142.189C510.515 140.673 512.974 140.597 514.54 142.017L532.771 158.513C534.337 159.929 534.417 162.302 532.949 163.813C532.185 164.603 531.151 165 530.115 165Z" fill="#FB923C"/>
<path d="M379.065 512.59L390.61 512.589L396.102 468.057L379.062 468.058L379.065 512.59Z" fill="#FFDDAA"/>
<path d="M418.62 512.328C418.979 512.933 419.169 514.887 419.169 515.591C419.169 517.755 417.414 519.51 415.25 519.51H379.496C378.02 519.51 376.823 518.313 376.823 516.836V515.348C376.823 515.348 375.054 510.874 378.696 505.36C378.696 505.36 383.222 509.677 389.985 502.915L391.979 499.302L406.415 509.859L414.416 510.844C416.167 511.06 417.719 510.811 418.62 512.328Z" fill="#2F2E41"/>
<path d="M299.33 512.59L310.876 512.589L316.368 468.057L299.328 468.058L299.33 512.59Z" fill="#FFDDAA"/>
<path d="M338.885 512.328C339.245 512.933 339.434 514.887 339.434 515.591C339.434 517.755 337.68 519.51 335.516 519.51H299.762C298.285 519.51 297.089 518.313 297.089 516.836V515.348C297.089 515.348 295.32 510.874 298.961 505.36C298.961 505.36 303.487 509.677 310.25 502.915L312.244 499.302L326.68 509.859L334.682 510.844C336.433 511.06 337.985 510.811 338.885 512.328Z" fill="#2F2E41"/>
<path d="M382.516 302.273L386.795 307.901C386.795 307.901 387.183 310.529 393.672 331.941L397.232 492.876H375.694L346.909 364.109L317.031 495.458L298.362 496.559L299.237 347.266C299.237 347.266 297.271 342.071 298.944 335.983C305.344 312.681 304.975 318.825 305.238 310.848C305.571 300.735 382.516 302.273 382.516 302.273Z" fill="#2F2E41"/>
<path d="M348.565 167.033C361.046 167.033 371.164 156.915 371.164 144.434C371.164 131.953 361.046 121.834 348.565 121.834C336.084 121.834 325.966 131.953 325.966 144.434C325.966 156.915 336.084 167.033 348.565 167.033Z" fill="#FFDDAA"/>
<path d="M336.415 171.285L323.91 178.196C313.477 178.951 305.994 181.727 299.346 185.074L306.678 249.359L305.344 312.68C305.344 312.68 346.925 341.166 386.797 307.899V221.86L384.925 187.644C384.707 183.655 381.179 180.56 377.218 181.084C374.956 181.383 372.351 181.325 369.69 180.438L361.414 170.833L336.415 171.285Z" fill="#3F3D56"/>
<path d="M388.447 129.596C391.047 131.305 393.045 133.46 394.261 135.66L420.053 150.381L412.689 162.449L387.319 146.216C384.817 145.97 382.047 144.99 379.447 143.28C373.509 139.375 370.71 133.145 373.195 129.367C375.68 125.588 382.509 125.69 388.447 129.596Z" fill="#FFDDAA"/>
<path d="M369.69 180.438L373.476 182.17C376.95 178.436 387.414 179.023 392.49 179.507L414.8 181.635L403.232 156.885L417.169 145.482L438.808 178.798C439.941 184.916 437.398 191.133 432.301 194.703L384.485 221.858L378.927 184.663L369.69 180.438Z" fill="#3F3D56"/>
<path d="M254.06 333.319C254.298 330.217 255.217 327.426 256.554 325.297L256.956 295.602L271.08 296.207L269.151 326.264C270.147 328.572 270.629 331.471 270.391 334.573C269.847 341.659 265.75 347.124 261.24 346.777C256.731 346.431 253.516 340.406 254.06 333.319Z" fill="#FFDDAA"/>
<path d="M309.812 193.197L303.322 183.338C303.322 183.338 292.736 185.359 287.112 193.34C281.487 201.322 260.226 250.271 260.226 250.271L256.144 305.529L271.957 302.272L279.588 260.365L304.123 226.838L309.812 193.197Z" fill="#3F3D56"/>
<path d="M371.164 147.431C372.013 143.123 358.914 136.853 358.937 136.861C360.971 137.51 357.773 141.235 355.684 140.796C355.684 140.796 352.615 142.357 354.287 143.7C348.523 143.206 340.82 137.727 335.055 137.233C332.737 137.031 331.839 142.622 330.381 144.434C328.177 147.208 325.966 141.69 326.782 149.042H326.452C325.249 146.14 324.045 143.188 323.652 140.071C323.272 136.955 323.804 133.597 325.794 131.164C326.452 130.341 323.864 127.63 324.561 126.844C326.778 124.298 331.077 122.904 333.053 120.18C335.67 116.571 338.646 119.118 344.094 116.083C345.519 115.289 347.996 115.004 349.575 115.416L353.262 116.379C352.543 117.457 353.432 118.879 354.716 118.704L359.521 118.051C361.333 118.634 363.056 119.495 363.867 121.155C364.361 122.143 364.449 123.296 364.829 124.335C365.526 126.248 367.173 127.63 368.491 129.175C372.033 130.207 372.223 132.855 372.223 137.295C375.525 139.147 372.08 143.288 371.164 147.431Z" fill="#2F2E41"/>
</g>
<defs>
<clipPath id="clip0_375_15">
<rect width="678" height="515" fill="white"/>
</clipPath>
</defs>
</svg>
