<svg width="227" height="227" viewBox="0 0 227 227" fill="none" xmlns="http://www.w3.org/2000/svg">
<circle cx="113.5" cy="113.5" r="110.5" stroke="#FB923C" stroke-width="6"/>
<path d="M78.2703 47.885C80.5374 49.0152 91.1629 67.4855 95.8861 76.6686C96.338 78.9216 95.8349 81.261 94.4967 83.129L93.0522 85.1454C90.2182 87.7355 84.4087 92.9157 83.8419 92.9157C83.1334 92.9157 78.8825 97.1541 79.591 100.686C80.2995 104.218 96.6908 126.294 99.5247 129.12C102.359 131.945 116.528 142.541 123.613 146.073C129.281 148.899 131.17 148.663 131.406 148.193C135.657 143.483 144.584 133.641 146.284 131.945C147.985 130.25 150.299 131.239 151.244 131.945L177.21 147.732C179.184 148.932 181 150.827 181 153.137C181 153.844 178.875 163.027 173.915 170.091C168.956 177.155 154.69 179.802 153.369 179.98C152.575 180.087 145.104 179.745 141.325 179.274L129.281 175.742L112.277 168.678L101.65 162.32L83.2297 146.78C78.2703 141.129 67.2201 129.922 66.2261 128.413C64.7129 126.116 59.8498 118.053 57.7243 113.579L49.9311 93.8001C49.4587 91.9164 48.2307 86.4536 47.0971 79.6722C46.1409 73.9518 52.4428 62.5088 57.2732 54.9694C58.8502 52.508 61.1968 50.6533 63.906 49.5551L69.7685 47.1786C71.6578 46.9432 76.0032 46.7548 78.2703 47.885Z" fill="#FB923C"/>
</svg>
