<svg width="382" height="569" viewBox="0 0 382 569" fill="none" xmlns="http://www.w3.org/2000/svg">
<g clip-path="url(#clip0_359_315)">
<path d="M0 61C0 44.4314 13.4315 31 30 31H351C367.569 31 381 44.4315 381 61V569H0V61Z" fill="#FAF3EB"/>
<path d="M238.499 248.5L243.357 179.732L163.719 188.242L168.499 248.5H238.499Z" fill="#FFDDAA"/>
<path d="M279.901 519.59V569.279L278.182 568.519H70.4453L76.4438 532.388L77.4555 526.294L78.2523 521.519L116.088 521.161L116.123 521.152L131.227 521.013L135.068 520.978L138.067 520.943L183.423 520.515L245.252 519.922L279.901 519.59Z" fill="#3F3D56"/>
<path d="M162.629 229.728L248.813 237.174L307.59 295.069L285.36 434.494L279.905 535.548L74.8086 532.357L98.8093 414.284L87.8999 253.661L162.629 229.728Z" fill="white"/>
<path d="M179.538 222.813C219.906 222.813 252.631 190.905 252.631 151.544C252.631 112.183 219.906 80.2744 179.538 80.2744C139.17 80.2744 106.445 112.183 106.445 151.544C106.445 190.905 139.17 222.813 179.538 222.813Z" fill="#FFDDAA"/>
<path opacity="0.7" d="M179.537 215.45C215.632 215.45 166 216.195 166 181C166 145.805 215.632 87.9971 179.537 87.9971C143.441 87.9971 114.18 116.528 114.18 151.723C114.18 186.919 143.441 215.45 179.537 215.45Z" fill="white"/>
<path d="M103.718 254.193C103.718 254.193 69.8986 247.811 55.7164 278.659C41.5341 309.507 32.8066 354.183 32.8066 354.183L109.172 357.374L103.718 254.193Z" fill="white"/>
<path d="M275.429 263.543C275.429 263.543 309.086 257.205 323.2 287.837C337.314 318.468 346 362.831 346 362.831L270 366L275.429 263.543Z" fill="white"/>
<path d="M193.227 568.519H126.008L112.534 556.062L112.498 556.088L112.722 555.87L134.281 534.657L135.65 533.304L141.918 527.15L142.079 526.984L144.666 529.629L148.453 533.505L148.65 533.706L169.35 554.866C177.989 557.311 185.895 561.745 192.412 567.777C192.69 568.022 192.959 568.275 193.227 568.519Z" fill="#FFDDAA"/>
<path d="M148.958 533.506L137.514 523.177L133.533 519.592L117.583 505.2L109.008 496.499L96.8115 484.138L90.7677 478.011L86.6876 473.884L82.9893 470.129L84.4839 455.003L87.5713 423.836L91.5314 383.808L94.6187 352.609L94.9897 348.865L81.833 330.34L32.5915 353.91L19.4749 449.259L17.2493 459.534C15.4059 468.036 18.4603 476.842 25.2178 482.507L70.4435 520.422L76.2473 525.283L84.8657 532.517L113.187 556.259L148.958 533.506Z" fill="white"/>
<path d="M154.094 284.89C154.094 284.89 216.298 224.973 240.899 235.689C265.5 246.404 307.39 297.103 307.39 297.103L246.98 344.802L154.094 284.89Z" fill="white"/>
<ellipse cx="234.5" cy="191.113" rx="15.5" ry="15.1133" fill="white"/>
<path opacity="0.1" fill-rule="evenodd" clip-rule="evenodd" d="M234.5 206.227C243.06 206.227 250 199.46 250 191.113C250 182.766 243.06 176 234.5 176C225.94 176 219 182.766 219 191.113C219 199.46 225.94 206.227 234.5 206.227ZM247.266 191.113C247.266 197.886 241.616 203.493 234.5 203.493C227.384 203.493 221.734 197.886 221.734 191.113C221.734 184.341 227.384 178.734 234.5 178.734C241.616 178.734 247.266 184.341 247.266 191.113Z" fill="#2F2E41"/>
<path d="M340.908 149.035L299.159 157.754C289.987 155.825 280.442 155.933 271.325 158.068C248.424 163.127 232.72 178.026 236.239 191.349C239.758 204.672 261.169 211.372 284.06 206.312C293.241 204.405 301.789 200.514 308.988 194.966L330.5 191.349L320.033 153.394L340.908 149.035Z" fill="#FF95A8"/>
<path d="M272.691 528.063L234.197 541.731C225.263 540.848 216.229 542.067 207.851 545.286C186.77 553.063 173.731 569.947 178.719 583.004C183.707 596.061 204.833 600.343 225.906 592.566C234.372 589.571 241.993 584.644 248.129 578.199L285.952 566.838L272.683 528.028L272.691 528.063Z" fill="#FFDDAA"/>
<path d="M243.5 538.977L255 533.5L262.017 530.908L276.439 515.009L284.097 505.502L294.991 491.996L300.389 485.301L304.034 480.79L307.337 476.688L304.358 461.777L298.213 431.056L290.326 391.599L284.177 360.846L283.439 357.155L294.678 337.418L345.919 356.027L368.366 449.652L371.592 459.661C374.263 467.943 372.098 477.009 365.946 483.315L324.767 525.516L319.482 530.927L311.636 538.977L285.849 565.404L243.5 538.977Z" fill="white"/>
<path d="M130.62 145.05L127.609 149.105L135.757 144.837L141.387 143.138C142.782 142.717 144.246 142.577 145.696 142.727L161.446 144.355C163.431 144.56 164.839 142.464 163.898 140.704C163.498 139.955 162.743 139.462 161.896 139.396L146.465 138.192C144.828 138.065 143.181 138.133 141.559 138.396C137.186 139.105 133.261 141.492 130.62 145.05Z" fill="#3F3D56"/>
<path d="M226.488 145.05L229.498 149.105L221.35 144.837L215.721 143.138C214.326 142.717 212.861 142.577 211.412 142.727L195.661 144.355C193.676 144.56 192.268 142.464 193.209 140.704C193.61 139.955 194.364 139.462 195.211 139.396L210.642 138.192C212.28 138.065 213.927 138.133 215.548 138.396C219.922 139.105 223.846 141.492 226.488 145.05Z" fill="#3F3D56"/>
<path d="M119.445 198.259L124.057 202.085L92.7204 239.127C91.8571 240.147 90.3329 240.282 89.3041 239.428V239.428C88.2779 238.577 88.1262 237.06 88.9636 236.022L119.445 198.259Z" fill="#2F2E41"/>
<path d="M129.385 184.263L135.973 189.728L124.268 202.262L119.57 198.364L129.385 184.263Z" fill="white"/>
<path d="M132.364 174.263C133.568 170.404 136.397 167.591 139.89 169.625C141.258 170.421 142.932 171.59 144.972 173.281C146.697 174.713 148.002 175.953 148.985 177.022C152.018 180.319 149.515 183.816 145.4 185.586L135.905 189.671L129.272 184.169L132.364 174.263Z" fill="#2F2E41"/>
<path d="M69.6348 167.747L86.5359 184.517C94.6685 187.423 102.028 192.193 108 198.428C123.157 213.838 127.593 233.843 117.914 243.119C108.235 252.395 88.1065 247.427 72.9569 232.021C66.8172 225.943 62.2035 218.538 59.5016 210.425L39.8415 191.265L69.6348 167.747Z" fill="#FF95A8"/>
<path d="M380.5 144.5V95.5L347.5 129.5L320 153L330.5 190.5L380.5 144.5Z" fill="#FFDDAA"/>
<path d="M46.5 198L-1 157V48.5L4.97581 41.9113C13.2944 32.7395 26.0057 28.9245 38 32L25.5 93.5L26.0926 97.0184C30.8513 125.273 46.1939 150.655 69 168L46.5 198Z" fill="#FFDDAA"/>
<path d="M223.5 110.858C223.5 110.858 193.952 108.478 165.38 110.858C136.807 113.238 112.5 118.5 112.5 118.5C112.5 118.5 113.273 84.0231 153.204 71.672C153.204 71.672 102.432 28.9674 162.88 8.01886C223.329 -12.9297 257.154 13.7875 257.154 13.7875C257.154 13.7875 301.898 51.9013 245.544 80.388C245.544 80.388 287.389 128.415 236.726 168C236.726 168 252.324 124.093 240.5 130C228.676 135.907 223.5 110.858 223.5 110.858Z" fill="#2F2E41"/>
<path d="M261.465 111.693C264.312 110.943 266.974 109.635 266.885 108.341C266.781 106.804 262.828 105.774 259.419 105.617C261.99 103.605 264.353 100.824 263.631 99.5659C262.966 98.4094 259.876 98.8574 257.024 99.876C258.712 97.4634 259.898 94.7449 258.995 93.8145C257.869 92.6556 253.875 94.6559 251.149 96.867C251.679 93.4224 251.411 89.0744 249.866 88.681C248.574 88.3519 246.742 90.8812 245.486 93.6364C244.931 90.745 243.807 88 242.51 88C240.663 88 239.165 93.5702 239.165 97.1991C239.165 97.4043 239.17 97.5974 239.18 97.7819C238.994 97.5669 238.782 97.3423 238.54 97.1069C235.936 94.5787 230.897 91.7724 229.61 93.0977C228.706 94.0281 229.893 96.7466 231.58 99.1592C228.729 98.1406 225.638 97.6927 224.974 98.8491C224.081 100.403 227.897 104.282 230.998 106.163C230.812 106.141 230.616 106.122 230.408 106.108C226.787 105.861 221.128 106.976 221.002 108.819C220.914 110.113 223.576 111.421 226.423 112.171C223.589 113.237 220.94 114.892 221.181 116.204C221.473 117.796 225.922 118.354 229.42 118.027C226.807 120.535 223.973 125.027 225.155 126.343C226.022 127.308 228.815 126.31 231.337 124.79C230.127 127.566 229.469 130.619 230.578 131.36C232.043 132.34 236.061 128.93 238.179 125.995C237.963 129.585 238.823 134.518 240.527 134.712C241.816 134.86 243.244 132.26 244.123 129.45C245.058 132.33 246.591 135.051 247.913 134.87C249.631 134.636 250.38 129.58 250.06 125.987C252.245 128.801 255.922 131.811 257.31 130.882C258.418 130.141 257.761 127.088 256.551 124.312C259.072 125.832 261.865 126.83 262.732 125.866C263.915 124.549 261.081 120.057 258.467 117.549C261.966 117.876 266.415 117.318 266.707 115.726C266.947 114.414 264.299 112.759 261.465 111.693ZM246.136 121.849C245.404 121.949 244.735 122.092 244.226 122.456C243.686 121.919 242.896 121.756 242.018 121.656C241.035 121.544 240.142 121.533 239.461 122.1C239.212 121.407 238.599 120.915 237.885 120.437C237.271 120.027 236.675 119.69 236.053 119.625C236.004 118.864 235.522 118.218 234.932 117.561C234.555 117.142 234.178 116.767 233.76 116.517C234.363 115.782 234.294 114.854 234.107 113.836C233.974 113.109 233.801 112.447 233.414 111.956C233.926 111.391 234.053 110.595 234.113 109.713C234.179 108.751 234.152 107.878 233.596 107.228C235.032 107.411 235.725 106.516 236.369 105.395C236.737 104.755 237.032 104.138 237.055 103.513C237.81 103.412 238.422 102.887 239.037 102.253C239.563 101.712 240.01 101.176 240.178 100.559C240.781 101.065 241.603 101.142 242.51 101.142C243.394 101.142 244.197 101.069 244.795 100.597C245.259 101.016 245.908 101.234 246.623 101.416C247.307 101.59 247.951 101.707 248.538 101.59C248.752 102.078 249.132 102.523 249.567 102.97C250.183 103.604 250.794 104.129 251.549 104.23C251.572 104.855 251.868 105.472 252.236 106.112C252.669 106.866 253.124 107.518 253.812 107.809C253.731 108.246 253.74 108.728 253.774 109.236C253.835 110.117 253.962 110.913 254.473 111.478C254.086 111.969 253.913 112.631 253.78 113.358C253.594 114.376 253.524 115.304 254.127 116.039C253.709 116.289 253.333 116.664 252.956 117.083C252.366 117.741 251.883 118.387 251.834 119.147C251.212 119.212 250.617 119.549 250.003 119.959C249.164 120.52 248.466 121.102 248.332 122.004C247.703 121.699 246.95 121.738 246.136 121.849Z" fill="#FF6884"/>
<path d="M238.153 279L243.876 248.998C245.757 239.137 238.198 230 228.159 230H170.5C169 230.5 160.5 228.5 160.5 239.5C160.5 248.709 168.333 268.833 170.5 279C176.167 286.333 175.8 292.3 179 299.5C183 308.5 220.5 299.5 227 299.5C232.2 299.5 237.32 290.167 238.153 279Z" fill="#FFDDAA"/>
<circle cx="244" cy="111" r="13" fill="#FF95A8"/>
<path d="M204 188.721C203.269 192.078 192.791 190.735 179.866 190.735C166.941 190.735 156.5 191.406 154.5 188.721C154.5 187.238 167.433 183.35 179.866 186.035C192.298 183.35 204 187.238 204 188.721Z" fill="#FF95A8"/>
<path d="M203 190.765C203 192.487 192.58 199 179.727 199C166.874 199 155 192.487 155 190.765C155 189.043 166.874 190.765 179.727 190.765C192.58 190.765 203 189.044 203 190.765Z" fill="#FF6884"/>
<path d="M246.5 78.8806C246.5 83.8512 219.457 76.8806 193.5 76.8806C167.543 76.8806 152 76.8512 152 71.8806C152 66.9101 169.043 69.8806 195 69.8806C220.957 69.8806 246.5 73.9101 246.5 78.8806Z" fill="#FF95A8"/>
<path d="M162.912 155.652C163.154 154.279 157.125 156.408 152.834 155.652C148.543 154.895 140.135 149.644 139.893 151.017C139.651 152.39 141.686 156.521 145.977 157.277C150.267 158.034 162.67 157.025 162.912 155.652Z" fill="#3F3D56"/>
<path d="M160.668 156.082C160.575 156.752 161.749 155.769 163.005 155.944C164.261 156.118 165.123 157.384 165.216 156.714C165.309 156.045 164.367 155.36 163.111 155.186C161.855 155.011 160.761 155.412 160.668 156.082Z" fill="#3F3D56"/>
<path d="M136.234 148.019C136.918 149.469 137.326 150.89 139.267 152.129C141.208 153.368 142.692 154.59 143.468 153.376C144.243 152.162 142.471 151.001 140.53 149.762C138.589 148.523 137.522 147.858 136.234 148.019Z" fill="#3F3D56"/>
<path d="M137.439 153.127C138.291 153.667 138.969 154.252 140.498 154.429C142.028 154.605 143.282 154.869 143.367 154.133C143.452 153.397 142.047 153.222 140.517 153.046C138.988 152.869 138.152 152.78 137.439 153.127Z" fill="#3F3D56"/>
<path d="M137.421 157.074C138.428 157.139 139.303 157.326 140.73 156.747C142.156 156.167 143.383 155.797 143.104 155.11C142.825 154.424 141.509 154.945 140.082 155.525C138.656 156.104 137.88 156.427 137.421 157.074Z" fill="#3F3D56"/>
<path d="M160.663 160.274C160.226 159.55 159.919 158.906 158.917 157.947C157.916 156.988 157.128 156.15 156.871 156.418C156.614 156.687 157.53 157.573 158.531 158.532C159.532 159.491 160.081 160.012 160.663 160.274Z" fill="#3F3D56"/>
<path d="M158.669 159.436C158.51 158.831 158.44 158.295 157.865 157.485C157.291 156.674 156.863 155.967 156.56 156.182C156.257 156.397 156.78 157.146 157.355 157.957C157.929 158.768 158.245 159.208 158.669 159.436Z" fill="#3F3D56"/>
<path d="M139.984 157.132C140.975 157.321 141.82 157.616 143.308 157.217C144.795 156.819 146.058 156.603 145.866 155.887C145.674 155.171 143.917 155.229 143.308 156.217C141.82 156.615 140.519 156.547 139.984 157.132Z" fill="#3F3D56"/>
<path d="M141.795 158.357C142.801 158.293 144.173 158.725 145.514 157.969C146.855 157.212 147.545 156.331 147.181 155.685C146.816 155.04 145.129 155.533 144.785 156.642C143.444 157.399 142.167 157.657 141.795 158.357Z" fill="#3F3D56"/>
<path d="M145.965 159.454C146.882 159.165 148.127 159.185 149.358 158.261C150.589 157.336 151.229 156.466 150.905 156.035C150.582 155.604 149.038 156.4 148.711 157.37C147.48 158.295 146.313 158.805 145.965 159.454Z" fill="#3F3D56"/>
<path d="M146.176 160.323C147.093 160.034 146.543 161.248 147.774 160.323C149.005 159.399 151.44 157.336 151.116 156.905C150.793 156.474 149.249 157.269 148.922 158.24C147.69 159.164 146.524 159.674 146.176 160.323Z" fill="#3F3D56"/>
<path d="M149.017 160.84C149.877 160.571 150.854 160.911 151.549 159.92C152.244 158.928 153.418 156.69 152.659 156.158C151.9 155.626 150.718 156.442 151.152 157.558C150.457 158.55 148.882 160.103 149.017 160.84Z" fill="#3F3D56"/>
<path d="M153.19 158.858C153.792 158.567 153.148 160.448 153.717 159.636C154.285 158.825 155.305 157.036 154.855 156.721C154.405 156.405 153.53 157.137 153.702 157.921C153.133 158.733 153.178 158.324 153.19 158.858Z" fill="#3F3D56"/>
<path d="M155.352 159.321C155.657 158.726 156.277 160.615 156.242 159.625C156.207 158.635 155.943 156.592 155.393 156.612C154.844 156.631 154.587 157.743 155.196 158.265C155.232 159.255 155.021 158.903 155.352 159.321Z" fill="#3F3D56"/>
<path d="M157.635 159.55C157.697 158.884 157.778 159.387 157.378 158.48C156.979 157.574 156.508 156.601 156.005 156.823C155.502 157.045 155.675 158.172 156.435 158.432C156.835 159.338 157.172 159.284 157.635 159.55Z" fill="#3F3D56"/>
<path d="M196.022 157.652C195.78 156.279 201.809 158.408 206.1 157.652C210.39 156.895 218.799 151.644 219.041 153.017C219.283 154.39 217.248 158.521 212.957 159.277C208.666 160.034 196.264 159.025 196.022 157.652Z" fill="#3F3D56"/>
<path d="M198.266 158.082C198.359 158.752 197.184 157.769 195.928 157.944C194.672 158.118 193.81 159.384 193.717 158.714C193.624 158.045 194.567 157.36 195.823 157.186C197.079 157.011 198.172 157.412 198.266 158.082Z" fill="#3F3D56"/>
<path d="M222.7 150.019C222.015 151.469 221.608 152.89 219.667 154.129C217.726 155.368 216.241 156.59 215.466 155.376C214.691 154.162 216.463 153.001 218.404 151.762C220.345 150.523 221.411 149.858 222.7 150.019Z" fill="#3F3D56"/>
<path d="M221.494 155.127C220.643 155.667 219.965 156.252 218.435 156.429C216.906 156.605 215.652 156.869 215.567 156.133C215.482 155.397 216.887 155.222 218.417 155.046C219.946 154.869 220.782 154.78 221.494 155.127Z" fill="#3F3D56"/>
<path d="M221.512 159.074C220.506 159.139 219.63 159.326 218.204 158.747C216.778 158.167 215.551 157.797 215.83 157.11C216.109 156.424 217.425 156.945 218.851 157.525C220.278 158.104 221.054 158.427 221.512 159.074Z" fill="#3F3D56"/>
<path d="M198.27 162.274C198.708 161.55 199.015 160.906 200.016 159.947C201.017 158.988 201.806 158.15 202.063 158.418C202.32 158.687 201.404 159.573 200.402 160.532C199.401 161.491 198.852 162.012 198.27 162.274Z" fill="#3F3D56"/>
<path d="M200.265 161.436C200.423 160.831 200.494 160.295 201.068 159.485C201.643 158.674 202.07 157.967 202.373 158.182C202.677 158.397 202.153 159.146 201.579 159.957C201.005 160.768 200.688 161.208 200.265 161.436Z" fill="#3F3D56"/>
<path d="M218.949 159.132C217.959 159.321 217.113 159.616 215.626 159.217C214.139 158.819 212.876 158.603 213.067 157.887C213.259 157.171 215.016 157.229 215.626 158.217C217.113 158.615 218.414 158.547 218.949 159.132Z" fill="#3F3D56"/>
<path d="M217.139 160.357C216.132 160.293 214.76 160.725 213.42 159.969C212.079 159.212 211.389 158.331 211.753 157.685C212.117 157.04 213.804 157.533 214.149 158.642C215.489 159.399 216.766 159.657 217.139 160.357Z" fill="#3F3D56"/>
<path d="M212.969 161.454C212.051 161.165 210.807 161.185 209.576 160.261C208.344 159.336 207.704 158.466 208.028 158.035C208.352 157.604 209.895 158.4 210.223 159.37C211.454 160.295 212.621 160.805 212.969 161.454Z" fill="#3F3D56"/>
<path d="M212.758 162.323C211.84 162.034 212.391 163.248 211.159 162.323C209.928 161.399 207.494 159.336 207.817 158.905C208.141 158.474 209.684 159.269 210.012 160.24C211.243 161.164 212.41 161.674 212.758 162.323Z" fill="#3F3D56"/>
<path d="M209.917 162.84C209.057 162.571 208.08 162.911 207.385 161.92C206.689 160.928 205.515 158.69 206.274 158.158C207.033 157.626 208.215 158.442 207.781 159.558C208.477 160.55 210.052 162.103 209.917 162.84Z" fill="#3F3D56"/>
<path d="M205.744 160.858C205.142 160.567 205.786 162.448 205.217 161.636C204.648 160.825 203.628 159.036 204.078 158.721C204.529 158.405 205.403 159.137 205.232 159.921C205.801 160.733 205.756 160.324 205.744 160.858Z" fill="#3F3D56"/>
<path d="M203.581 161.321C203.276 160.726 202.657 162.615 202.692 161.625C202.727 160.635 202.991 158.592 203.54 158.612C204.09 158.631 204.347 159.743 203.737 160.265C203.702 161.255 203.913 160.903 203.581 161.321Z" fill="#3F3D56"/>
<path d="M201.299 161.55C201.236 160.884 201.155 161.387 201.555 160.48C201.955 159.574 202.426 158.601 202.929 158.823C203.432 159.045 203.258 160.172 202.498 160.432C202.099 161.338 201.762 161.284 201.299 161.55Z" fill="#3F3D56"/>
</g>
<defs>
<clipPath id="clip0_359_315">
<rect width="382" height="569" fill="white"/>
</clipPath>
</defs>
</svg>
