<svg width="382" height="856" viewBox="0 0 382 856" fill="none" xmlns="http://www.w3.org/2000/svg">
<g clip-path="url(#clip0_359_315)">
<path d="M0 348C0 331.431 13.4315 318 30 318H351C367.569 318 381 331.431 381 348V856H0V348Z" fill="#FAF3EB"/>
<path d="M238.499 535.5L243.357 466.732L163.719 475.242L168.499 535.5H238.499Z" fill="#FFDDAA"/>
<path d="M279.901 806.59V856.279L278.182 855.519H70.4453L76.4438 819.388L77.4555 813.294L78.2523 808.519L116.088 808.161L116.123 808.152L131.227 808.013L135.068 807.978L138.067 807.943L183.423 807.515L245.252 806.922L279.901 806.59Z" fill="#3F3D56"/>
<path d="M162.629 516.728L248.813 524.174L307.59 582.069L285.36 721.494L279.905 822.548L74.8086 819.357L98.8093 701.284L87.8999 540.661L162.629 516.728Z" fill="white"/>
<path d="M179.538 509.813C219.906 509.813 252.631 477.905 252.631 438.544C252.631 399.183 219.906 367.274 179.538 367.274C139.17 367.274 106.445 399.183 106.445 438.544C106.445 477.905 139.17 509.813 179.538 509.813Z" fill="#FFDDAA"/>
<path opacity="0.7" d="M179.537 502.45C215.632 502.45 166 503.195 166 468C166 432.805 215.632 374.997 179.537 374.997C143.441 374.997 114.18 403.528 114.18 438.723C114.18 473.919 143.441 502.45 179.537 502.45Z" fill="white"/>
<path d="M103.718 541.193C103.718 541.193 69.8986 534.811 55.7164 565.659C41.5341 596.507 32.8066 641.183 32.8066 641.183L109.172 644.374L103.718 541.193Z" fill="white"/>
<path d="M275.429 550.543C275.429 550.543 309.086 544.205 323.2 574.837C337.314 605.468 346 649.831 346 649.831L270 653L275.429 550.543Z" fill="white"/>
<path d="M193.227 855.519H126.008L112.534 843.062L112.498 843.088L112.722 842.87L134.281 821.657L135.65 820.304L141.918 814.15L142.079 813.984L144.666 816.629L148.453 820.505L148.65 820.706L169.35 841.866C177.989 844.311 185.895 848.745 192.412 854.777C192.69 855.022 192.959 855.275 193.227 855.519Z" fill="#FFDDAA"/>
<path d="M148.958 820.506L137.514 810.177L133.533 806.592L117.583 792.2L109.008 783.499L96.8115 771.138L90.7677 765.011L86.6876 760.884L82.9893 757.129L84.4839 742.003L87.5713 710.836L91.5314 670.808L94.6187 639.609L94.9897 635.865L81.833 617.34L32.5915 640.91L19.4749 736.259L17.2493 746.534C15.4059 755.036 18.4603 763.842 25.2178 769.507L70.4435 807.422L76.2473 812.283L84.8657 819.517L113.187 843.259L148.958 820.506Z" fill="white"/>
<path d="M154.094 571.89C154.094 571.89 216.298 511.973 240.899 522.689C265.5 533.404 307.39 584.103 307.39 584.103L246.98 631.802L154.094 571.89Z" fill="white"/>
<ellipse cx="234.5" cy="478.113" rx="15.5" ry="15.1133" fill="white"/>
<path opacity="0.1" fill-rule="evenodd" clip-rule="evenodd" d="M234.5 493.227C243.06 493.227 250 486.46 250 478.113C250 469.766 243.06 463 234.5 463C225.94 463 219 469.766 219 478.113C219 486.46 225.94 493.227 234.5 493.227ZM247.266 478.113C247.266 484.886 241.616 490.493 234.5 490.493C227.384 490.493 221.734 484.886 221.734 478.113C221.734 471.341 227.384 465.734 234.5 465.734C241.616 465.734 247.266 471.341 247.266 478.113Z" fill="#2F2E41"/>
<path d="M340.908 436.035L299.159 444.754C289.987 442.825 280.442 442.933 271.325 445.068C248.424 450.127 232.72 465.026 236.239 478.349C239.758 491.672 261.169 498.372 284.06 493.312C293.241 491.405 301.789 487.514 308.988 481.966L330.5 478.349L320.033 440.394L340.908 436.035Z" fill="#FF95A8"/>
<path d="M272.691 815.063L234.197 828.731C225.263 827.848 216.229 829.067 207.851 832.286C186.77 840.063 173.731 856.947 178.719 870.004C183.707 883.061 204.833 887.343 225.906 879.566C234.372 876.571 241.993 871.644 248.129 865.199L285.952 853.838L272.683 815.028L272.691 815.063Z" fill="#FFDDAA"/>
<path d="M243.5 825.977L255 820.5L262.017 817.908L276.439 802.009L284.097 792.502L294.991 778.996L300.389 772.301L304.034 767.79L307.337 763.688L304.358 748.777L298.213 718.056L290.326 678.599L284.177 647.846L283.439 644.155L294.678 624.418L345.919 643.027L368.366 736.652L371.592 746.661C374.263 754.943 372.098 764.009 365.946 770.315L324.767 812.516L319.482 817.927L311.636 825.977L285.849 852.404L243.5 825.977Z" fill="white"/>
<path d="M130.62 432.05L127.609 436.105L135.757 431.837L141.387 430.138C142.782 429.717 144.246 429.577 145.696 429.727L161.446 431.355C163.431 431.56 164.839 429.464 163.898 427.704C163.498 426.955 162.743 426.462 161.896 426.396L146.465 425.192C144.828 425.065 143.181 425.133 141.559 425.396C137.186 426.105 133.261 428.492 130.62 432.05Z" fill="#3F3D56"/>
<path d="M226.488 432.05L229.498 436.105L221.35 431.837L215.721 430.138C214.326 429.717 212.861 429.577 211.412 429.727L195.661 431.355C193.676 431.56 192.268 429.464 193.209 427.704C193.61 426.955 194.364 426.462 195.211 426.396L210.642 425.192C212.28 425.065 213.927 425.133 215.548 425.396C219.922 426.105 223.846 428.492 226.488 432.05Z" fill="#3F3D56"/>
<path d="M119.445 485.259L124.057 489.085L92.7204 526.127C91.8571 527.147 90.3329 527.282 89.3041 526.428V526.428C88.2779 525.577 88.1262 524.06 88.9636 523.022L119.445 485.259Z" fill="#2F2E41"/>
<path d="M129.385 471.263L135.973 476.728L124.268 489.262L119.57 485.364L129.385 471.263Z" fill="white"/>
<path d="M132.364 461.263C133.568 457.404 136.397 454.591 139.89 456.625C141.258 457.421 142.932 458.59 144.972 460.281C146.697 461.713 148.002 462.953 148.985 464.022C152.018 467.319 149.515 470.816 145.4 472.586L135.905 476.671L129.272 471.169L132.364 461.263Z" fill="#2F2E41"/>
<path d="M69.6348 454.747L86.5359 471.517C94.6685 474.423 102.028 479.193 108 485.428C123.157 500.838 127.593 520.843 117.914 530.119C108.235 539.395 88.1065 534.427 72.9569 519.021C66.8172 512.943 62.2035 505.538 59.5016 497.425L39.8415 478.265L69.6348 454.747Z" fill="#FF95A8"/>
<path d="M380.5 431.5V382.5L347.5 416.5L320 440L330.5 477.5L380.5 431.5Z" fill="#FFDDAA"/>
<path d="M46.5 485L-1 444V335.5L4.97581 328.911C13.2944 319.739 26.0057 315.925 38 319L25.5 380.5L26.0926 384.018C30.8513 412.273 46.1939 437.655 69 455L46.5 485Z" fill="#FFDDAA"/>
<path d="M223.5 397.858C223.5 397.858 193.952 395.478 165.38 397.858C136.807 400.238 112.5 405.5 112.5 405.5C112.5 405.5 113.273 371.023 153.204 358.672C153.204 358.672 102.432 315.967 162.88 295.019C223.329 274.07 257.154 300.788 257.154 300.788C257.154 300.788 301.898 338.901 245.544 367.388C245.544 367.388 287.389 415.415 236.726 455C236.726 455 252.324 411.093 240.5 417C228.676 422.907 223.5 397.858 223.5 397.858Z" fill="#2F2E41"/>
<path d="M261.465 398.693C264.312 397.943 266.974 396.635 266.885 395.341C266.781 393.804 262.828 392.774 259.419 392.617C261.99 390.605 264.353 387.824 263.631 386.566C262.966 385.409 259.876 385.857 257.024 386.876C258.712 384.463 259.898 381.745 258.995 380.815C257.869 379.656 253.875 381.656 251.149 383.867C251.679 380.422 251.411 376.074 249.866 375.681C248.574 375.352 246.742 377.881 245.486 380.636C244.931 377.745 243.807 375 242.51 375C240.663 375 239.165 380.57 239.165 384.199C239.165 384.404 239.17 384.597 239.18 384.782C238.994 384.567 238.782 384.342 238.54 384.107C235.936 381.579 230.897 378.772 229.61 380.098C228.706 381.028 229.893 383.747 231.58 386.159C228.729 385.141 225.638 384.693 224.974 385.849C224.081 387.403 227.897 391.282 230.998 393.163C230.812 393.141 230.616 393.122 230.408 393.108C226.787 392.861 221.128 393.976 221.002 395.819C220.914 397.113 223.576 398.421 226.423 399.171C223.589 400.237 220.94 401.892 221.181 403.204C221.473 404.796 225.922 405.354 229.42 405.027C226.807 407.535 223.973 412.027 225.155 413.343C226.022 414.308 228.815 413.31 231.337 411.79C230.127 414.566 229.469 417.619 230.578 418.36C232.043 419.34 236.061 415.93 238.179 412.995C237.963 416.585 238.823 421.518 240.527 421.712C241.816 421.86 243.244 419.26 244.123 416.45C245.058 419.33 246.591 422.051 247.913 421.87C249.631 421.636 250.38 416.58 250.06 412.987C252.245 415.801 255.922 418.811 257.31 417.882C258.418 417.141 257.761 414.088 256.551 411.312C259.072 412.832 261.865 413.83 262.732 412.866C263.915 411.549 261.081 407.057 258.467 404.549C261.966 404.876 266.415 404.318 266.707 402.726C266.947 401.414 264.299 399.759 261.465 398.693ZM246.136 408.849C245.404 408.949 244.735 409.092 244.226 409.456C243.686 408.919 242.896 408.756 242.018 408.656C241.035 408.544 240.142 408.533 239.461 409.1C239.212 408.407 238.599 407.915 237.885 407.437C237.271 407.027 236.675 406.69 236.053 406.625C236.004 405.864 235.522 405.218 234.932 404.561C234.555 404.142 234.178 403.767 233.76 403.517C234.363 402.782 234.294 401.854 234.107 400.836C233.974 400.109 233.801 399.447 233.414 398.956C233.926 398.391 234.053 397.595 234.113 396.713C234.179 395.751 234.152 394.878 233.596 394.228C235.032 394.411 235.725 393.516 236.369 392.395C236.737 391.755 237.032 391.138 237.055 390.513C237.81 390.412 238.422 389.887 239.037 389.253C239.563 388.712 240.01 388.176 240.178 387.559C240.781 388.065 241.603 388.142 242.51 388.142C243.394 388.142 244.197 388.069 244.795 387.597C245.259 388.016 245.908 388.234 246.623 388.416C247.307 388.59 247.951 388.707 248.538 388.59C248.752 389.078 249.132 389.523 249.567 389.97C250.183 390.604 250.794 391.129 251.549 391.23C251.572 391.855 251.868 392.472 252.236 393.112C252.669 393.866 253.124 394.518 253.812 394.809C253.731 395.246 253.74 395.728 253.774 396.236C253.835 397.117 253.962 397.913 254.473 398.478C254.086 398.969 253.913 399.631 253.78 400.358C253.594 401.376 253.524 402.304 254.127 403.039C253.709 403.289 253.333 403.664 252.956 404.083C252.366 404.741 251.883 405.387 251.834 406.147C251.212 406.212 250.617 406.549 250.003 406.959C249.164 407.52 248.466 408.102 248.332 409.004C247.703 408.699 246.95 408.738 246.136 408.849Z" fill="#FF6884"/>
<path d="M238.153 566L243.876 535.998C245.757 526.137 238.198 517 228.159 517H170.5C169 517.5 160.5 515.5 160.5 526.5C160.5 535.709 168.333 555.833 170.5 566C176.167 573.333 175.8 579.3 179 586.5C183 595.5 220.5 586.5 227 586.5C232.2 586.5 237.32 577.167 238.153 566Z" fill="#FFDDAA"/>
<circle cx="244" cy="398" r="13" fill="#FF95A8"/>
<path d="M204 475.721C203.269 479.078 192.791 477.735 179.866 477.735C166.941 477.735 156.5 478.406 154.5 475.721C154.5 474.238 167.433 470.35 179.866 473.035C192.298 470.35 204 474.238 204 475.721Z" fill="#FF95A8"/>
<path d="M203 477.765C203 479.487 192.58 486 179.727 486C166.874 486 155 479.487 155 477.765C155 476.043 166.874 477.765 179.727 477.765C192.58 477.765 203 476.044 203 477.765Z" fill="#FF6884"/>
<path d="M246.5 365.881C246.5 370.851 219.457 363.881 193.5 363.881C167.543 363.881 152 363.851 152 358.881C152 353.91 169.043 356.881 195 356.881C220.957 356.881 246.5 360.91 246.5 365.881Z" fill="#FF95A8"/>
<path d="M162.912 442.652C163.154 441.279 157.125 443.408 152.834 442.652C148.543 441.895 140.135 436.644 139.893 438.017C139.651 439.39 141.686 443.521 145.977 444.277C150.267 445.034 162.67 444.025 162.912 442.652Z" fill="#3F3D56"/>
<path d="M160.668 443.082C160.575 443.752 161.749 442.769 163.005 442.944C164.261 443.118 165.123 444.384 165.216 443.714C165.309 443.045 164.367 442.36 163.111 442.186C161.855 442.011 160.761 442.412 160.668 443.082Z" fill="#3F3D56"/>
<path d="M136.234 435.019C136.918 436.469 137.326 437.89 139.267 439.129C141.208 440.368 142.692 441.59 143.468 440.376C144.243 439.162 142.471 438.001 140.53 436.762C138.589 435.523 137.522 434.858 136.234 435.019Z" fill="#3F3D56"/>
<path d="M137.439 440.127C138.291 440.667 138.969 441.252 140.498 441.429C142.028 441.605 143.282 441.869 143.367 441.133C143.452 440.397 142.047 440.222 140.517 440.046C138.988 439.869 138.152 439.78 137.439 440.127Z" fill="#3F3D56"/>
<path d="M137.421 444.074C138.428 444.139 139.303 444.326 140.73 443.747C142.156 443.167 143.383 442.797 143.104 442.11C142.825 441.424 141.509 441.945 140.082 442.525C138.656 443.104 137.88 443.427 137.421 444.074Z" fill="#3F3D56"/>
<path d="M160.663 447.274C160.226 446.55 159.919 445.906 158.917 444.947C157.916 443.988 157.128 443.15 156.871 443.418C156.614 443.687 157.53 444.573 158.531 445.532C159.532 446.491 160.081 447.012 160.663 447.274Z" fill="#3F3D56"/>
<path d="M158.669 446.436C158.51 445.831 158.44 445.295 157.865 444.485C157.291 443.674 156.863 442.967 156.56 443.182C156.257 443.397 156.78 444.146 157.355 444.957C157.929 445.768 158.245 446.208 158.669 446.436Z" fill="#3F3D56"/>
<path d="M139.984 444.132C140.975 444.321 141.82 444.616 143.308 444.217C144.795 443.819 146.058 443.603 145.866 442.887C145.674 442.171 143.917 442.229 143.308 443.217C141.82 443.615 140.519 443.547 139.984 444.132Z" fill="#3F3D56"/>
<path d="M141.795 445.357C142.801 445.293 144.173 445.725 145.514 444.969C146.855 444.212 147.545 443.331 147.181 442.685C146.816 442.04 145.129 442.533 144.785 443.642C143.444 444.399 142.167 444.657 141.795 445.357Z" fill="#3F3D56"/>
<path d="M145.965 446.454C146.882 446.165 148.127 446.185 149.358 445.261C150.589 444.336 151.229 443.466 150.905 443.035C150.582 442.604 149.038 443.4 148.711 444.37C147.48 445.295 146.313 445.805 145.965 446.454Z" fill="#3F3D56"/>
<path d="M146.176 447.323C147.093 447.034 146.543 448.248 147.774 447.323C149.005 446.399 151.44 444.336 151.116 443.905C150.793 443.474 149.249 444.269 148.922 445.24C147.69 446.164 146.524 446.674 146.176 447.323Z" fill="#3F3D56"/>
<path d="M149.017 447.84C149.877 447.571 150.854 447.911 151.549 446.92C152.244 445.928 153.418 443.69 152.659 443.158C151.9 442.626 150.718 443.442 151.152 444.558C150.457 445.55 148.882 447.103 149.017 447.84Z" fill="#3F3D56"/>
<path d="M153.19 445.858C153.792 445.567 153.148 447.448 153.717 446.636C154.285 445.825 155.305 444.036 154.855 443.721C154.405 443.405 153.53 444.137 153.702 444.921C153.133 445.733 153.178 445.324 153.19 445.858Z" fill="#3F3D56"/>
<path d="M155.352 446.321C155.657 445.726 156.277 447.615 156.242 446.625C156.207 445.635 155.943 443.592 155.393 443.612C154.844 443.631 154.587 444.743 155.196 445.265C155.232 446.255 155.021 445.903 155.352 446.321Z" fill="#3F3D56"/>
<path d="M157.635 446.55C157.697 445.884 157.778 446.387 157.378 445.48C156.979 444.574 156.508 443.601 156.005 443.823C155.502 444.045 155.675 445.172 156.435 445.432C156.835 446.338 157.172 446.284 157.635 446.55Z" fill="#3F3D56"/>
<path d="M196.022 444.652C195.78 443.279 201.809 445.408 206.1 444.652C210.39 443.895 218.799 438.644 219.041 440.017C219.283 441.39 217.248 445.521 212.957 446.277C208.666 447.034 196.264 446.025 196.022 444.652Z" fill="#3F3D56"/>
<path d="M198.266 445.082C198.359 445.752 197.184 444.769 195.928 444.944C194.672 445.118 193.81 446.384 193.717 445.714C193.624 445.045 194.567 444.36 195.823 444.186C197.079 444.011 198.172 444.412 198.266 445.082Z" fill="#3F3D56"/>
<path d="M222.7 437.019C222.015 438.469 221.608 439.89 219.667 441.129C217.726 442.368 216.241 443.59 215.466 442.376C214.691 441.162 216.463 440.001 218.404 438.762C220.345 437.523 221.411 436.858 222.7 437.019Z" fill="#3F3D56"/>
<path d="M221.494 442.127C220.643 442.667 219.965 443.252 218.435 443.429C216.906 443.605 215.652 443.869 215.567 443.133C215.482 442.397 216.887 442.222 218.417 442.046C219.946 441.869 220.782 441.78 221.494 442.127Z" fill="#3F3D56"/>
<path d="M221.512 446.074C220.506 446.139 219.63 446.326 218.204 445.747C216.778 445.167 215.551 444.797 215.83 444.11C216.109 443.424 217.425 443.945 218.851 444.525C220.278 445.104 221.054 445.427 221.512 446.074Z" fill="#3F3D56"/>
<path d="M198.27 449.274C198.708 448.55 199.015 447.906 200.016 446.947C201.017 445.988 201.806 445.15 202.063 445.418C202.32 445.687 201.404 446.573 200.402 447.532C199.401 448.491 198.852 449.012 198.27 449.274Z" fill="#3F3D56"/>
<path d="M200.265 448.436C200.423 447.831 200.494 447.295 201.068 446.485C201.643 445.674 202.07 444.967 202.373 445.182C202.677 445.397 202.153 446.146 201.579 446.957C201.005 447.768 200.688 448.208 200.265 448.436Z" fill="#3F3D56"/>
<path d="M218.949 446.132C217.959 446.321 217.113 446.616 215.626 446.217C214.139 445.819 212.876 445.603 213.067 444.887C213.259 444.171 215.016 444.229 215.626 445.217C217.113 445.615 218.414 445.547 218.949 446.132Z" fill="#3F3D56"/>
<path d="M217.139 447.357C216.132 447.293 214.76 447.725 213.42 446.969C212.079 446.212 211.389 445.331 211.753 444.685C212.117 444.04 213.804 444.533 214.149 445.642C215.489 446.399 216.766 446.657 217.139 447.357Z" fill="#3F3D56"/>
<path d="M212.969 448.454C212.051 448.165 210.807 448.185 209.576 447.261C208.344 446.336 207.704 445.466 208.028 445.035C208.352 444.604 209.895 445.4 210.223 446.37C211.454 447.295 212.621 447.805 212.969 448.454Z" fill="#3F3D56"/>
<path d="M212.758 449.323C211.84 449.034 212.391 450.248 211.159 449.323C209.928 448.399 207.494 446.336 207.817 445.905C208.141 445.474 209.684 446.269 210.012 447.24C211.243 448.164 212.41 448.674 212.758 449.323Z" fill="#3F3D56"/>
<path d="M209.917 449.84C209.057 449.571 208.08 449.911 207.385 448.92C206.689 447.928 205.515 445.69 206.274 445.158C207.033 444.626 208.215 445.442 207.781 446.558C208.477 447.55 210.052 449.103 209.917 449.84Z" fill="#3F3D56"/>
<path d="M205.744 447.858C205.142 447.567 205.786 449.448 205.217 448.636C204.648 447.825 203.628 446.036 204.078 445.721C204.529 445.405 205.403 446.137 205.232 446.921C205.801 447.733 205.756 447.324 205.744 447.858Z" fill="#3F3D56"/>
<path d="M203.581 448.321C203.276 447.726 202.657 449.615 202.692 448.625C202.727 447.635 202.991 445.592 203.54 445.612C204.09 445.631 204.347 446.743 203.737 447.265C203.702 448.255 203.913 447.903 203.581 448.321Z" fill="#3F3D56"/>
<path d="M201.299 448.55C201.236 447.884 201.155 448.387 201.555 447.48C201.955 446.574 202.426 445.601 202.929 445.823C203.432 446.045 203.258 447.172 202.498 447.432C202.099 448.338 201.762 448.284 201.299 448.55Z" fill="#3F3D56"/>
</g>
<defs>
<clipPath id="clip0_359_315">
<rect width="382" height="856" fill="white"/>
</clipPath>
</defs>
</svg>
