<svg width="723" height="425" viewBox="0 0 723 425" fill="none" xmlns="http://www.w3.org/2000/svg">
<rect x="162.968" y="243.274" width="397.816" height="13.2605" rx="6.63027" fill="white"/>
<rect x="162.968" y="269.795" width="397.816" height="13.2605" rx="6.63027" fill="white"/>
<rect x="162.968" y="296.316" width="191.331" height="14.2077" rx="7.10387" fill="white"/>
<path d="M399.65 246.988C391.381 236 379.399 229.067 366.063 229.067C352.726 229.067 340.744 236 332.476 246.988C334.303 251.471 337.008 255.545 340.432 258.969C344.662 263.198 349.873 266.314 355.6 268.04C361.327 269.767 367.392 270.049 373.255 268.863C379.117 267.677 384.596 265.059 389.201 261.242C393.806 257.425 397.396 252.528 399.65 246.988Z" fill="#3F3D56"/>
<path d="M328.107 253.419C327.518 253.166 326.959 252.848 326.44 252.472C325.655 251.829 325.026 251.016 324.602 250.094C325.144 248.981 325.372 247.741 325.261 246.508C325.15 245.275 324.704 244.095 323.972 243.097C323.24 242.098 322.249 241.319 321.107 240.842C319.964 240.365 318.713 240.209 317.489 240.391C316.264 240.572 315.112 241.085 314.157 241.873C313.203 242.662 312.481 243.696 312.071 244.864C311.661 246.032 311.577 247.29 311.829 248.502C312.081 249.714 312.659 250.835 313.501 251.742C313.976 252.246 314.518 252.683 315.111 253.04C315.882 253.486 316.51 254.144 316.92 254.934C317.695 256.499 318.763 257.901 320.065 259.064C321.401 260.21 322.844 261.225 324.375 262.095C322.268 268.057 321.074 274.303 320.832 280.622C318.383 280.663 315.952 281.056 313.615 281.787C312.418 282.159 311.289 282.722 310.271 283.454C309.998 283.421 309.723 283.402 309.447 283.397C308.204 283.397 306.985 283.737 305.922 284.381C304.858 285.024 303.991 285.946 303.415 287.047C302.838 288.148 302.573 289.385 302.65 290.626C302.726 291.866 303.14 293.062 303.848 294.084C304.555 295.106 305.529 295.915 306.663 296.423C307.797 296.931 309.049 297.119 310.283 296.966C311.516 296.814 312.684 296.327 313.661 295.558C314.637 294.789 315.384 293.767 315.822 292.604C316.091 291.854 316.561 291.192 317.18 290.691C317.8 290.189 318.546 289.868 319.336 289.762C319.917 289.692 320.502 289.654 321.088 289.649C321.902 298.561 324.666 307.186 329.186 314.91C325.17 318.026 322.698 321.427 321.656 325.196C321.462 325.304 321.281 325.435 321.116 325.585C320.831 325.808 320.565 326.055 320.321 326.323C319.509 327.216 318.95 328.308 318.699 329.488C318.449 330.669 318.517 331.894 318.897 333.039C319.277 334.184 319.954 335.207 320.86 336.004C321.765 336.801 322.866 337.343 324.051 337.574C325.235 337.805 326.459 337.717 327.597 337.318C328.736 336.92 329.748 336.226 330.53 335.308C331.312 334.389 331.836 333.279 332.048 332.092C332.259 330.904 332.151 329.681 331.734 328.549C331.425 327.727 331.365 326.832 331.562 325.976C331.759 325.12 332.205 324.342 332.842 323.738C333.297 323.311 333.79 322.857 334.453 322.355C342.134 331.325 351.275 337.074 362.688 337.756V276.9C347.6 276.075 334.453 266.253 328.107 253.419ZM422.664 283.464C422.388 283.467 422.113 283.486 421.84 283.52C420.812 282.805 419.686 282.243 418.496 281.853C416.159 281.119 413.728 280.727 411.279 280.688C411.016 274.375 409.822 268.135 407.736 262.171C409.267 261.301 410.71 260.286 412.046 259.14C413.39 257.91 414.495 256.443 415.304 254.811C415.684 254.103 416.268 253.525 416.981 253.154C418.136 252.504 419.077 251.531 419.686 250.354C420.296 249.177 420.549 247.848 420.413 246.529C420.277 245.21 419.759 243.96 418.923 242.932C418.086 241.904 416.967 241.143 415.703 240.743C414.44 240.342 413.087 240.319 411.81 240.678C410.534 241.036 409.39 241.759 408.52 242.759C407.649 243.758 407.09 244.991 406.91 246.304C406.73 247.617 406.939 248.954 407.509 250.151C407.092 251.077 406.462 251.892 405.671 252.529C405.14 252.968 404.583 253.376 404.004 253.75C397.658 266.575 384.521 276.123 369.451 276.947V337.86C380.817 337.178 390.014 331.4 397.687 322.459C398.283 322.933 398.785 323.359 399.212 323.757C399.876 324.373 400.344 325.172 400.556 326.053C400.768 326.935 400.716 327.859 400.405 328.71C399.991 329.841 399.884 331.062 400.096 332.247C400.307 333.433 400.83 334.541 401.611 335.458C402.391 336.375 403.401 337.069 404.537 337.468C405.674 337.867 406.896 337.957 408.078 337.729C409.261 337.501 410.362 336.963 411.268 336.17C412.175 335.377 412.854 334.357 413.237 333.216C413.621 332.074 413.694 330.851 413.45 329.671C413.205 328.492 412.652 327.399 411.847 326.503C411.603 326.235 411.337 325.988 411.051 325.765C410.739 325.518 410.511 325.376 410.511 325.376C409.47 321.588 407.007 318.206 402.934 315.09C407.454 307.366 410.219 298.741 411.032 289.829C411.593 289.835 412.153 289.873 412.709 289.942C413.515 290.047 414.279 290.365 414.92 290.865C415.562 291.365 416.057 292.027 416.356 292.784C416.921 294.225 417.962 295.43 419.305 296.2C420.648 296.97 422.214 297.258 423.744 297.017C425.273 296.777 426.675 296.021 427.717 294.876C428.758 293.731 429.378 292.264 429.474 290.719C429.521 289.791 429.381 288.863 429.061 287.991C428.741 287.118 428.248 286.32 427.613 285.642C426.977 284.965 426.211 284.423 425.36 284.048C424.51 283.674 423.593 283.475 422.664 283.464Z" fill="#3F3D56"/>
<path d="M602.037 65.2041H548.782C548.397 65.2041 548.047 65.4246 547.88 65.7713L519.795 124.273C519.477 124.936 519.96 125.705 520.697 125.705H546.263L527.264 186.057C526.908 187.187 527.752 188.338 528.937 188.338C529.443 188.338 529.925 188.119 530.258 187.738L598.183 109.959C598.748 109.312 598.289 108.301 597.43 108.301H563.738L602.765 66.89C603.366 66.2519 602.914 65.2041 602.037 65.2041Z" fill="white"/>
<path d="M122.661 67.0986H175.916C176.301 67.0986 176.652 67.3192 176.818 67.6658L204.903 126.167C205.222 126.831 204.738 127.6 204.001 127.6H178.435L197.434 187.952C197.79 189.082 196.946 190.232 195.761 190.232C195.255 190.232 194.773 190.013 194.44 189.632L126.515 111.853C125.95 111.206 126.409 110.195 127.268 110.195H160.96L121.933 68.7845C121.332 68.1465 121.784 67.0986 122.661 67.0986Z" fill="white"/>
<path d="M489.94 92.7646L469.917 113.226C468.203 114.978 469.284 117.934 471.724 118.166L489.939 119.898L473.702 130.234C471.601 131.57 472.036 134.755 474.418 135.481L495.481 141.894L478.041 154.024C475.944 155.483 476.605 158.743 479.105 159.269L503.341 164.372L504.142 160.569L482.108 155.93L499.344 143.941C501.343 142.551 500.858 139.469 498.529 138.76L477.57 132.378L494.413 121.658C496.753 120.168 495.885 116.56 493.123 116.297L474.117 114.49L492.717 95.4829L489.94 92.7646Z" fill="#3F3D56"/>
<path d="M218.421 39.8777L245.476 49.2378C247.793 50.0389 248.146 53.1671 246.067 54.4646L230.544 64.1523L249.689 66.1443C252.165 66.4019 253.199 69.4455 251.392 71.1586L235.414 86.3068L256.436 89.3676C258.963 89.7357 259.828 92.9471 257.827 94.535L238.425 109.928L236.009 106.884L253.649 92.8889L232.872 89.8638C230.463 89.5131 229.52 86.5391 231.287 84.8642L247.186 69.7911L227.328 67.7249C224.569 67.4375 223.733 63.822 226.087 62.3531L242.283 52.2451L217.151 43.5503L218.421 39.8777Z" fill="white"/>
<path d="M638.873 34.3662L650.655 64.0495C651.664 66.5904 649.277 69.1663 646.666 68.3532L627.178 62.2835L639.43 79.9164C641.015 82.1972 639.195 85.2867 636.431 85.0062L611.996 82.5259L624.71 102.524C626.239 104.928 624.154 107.997 621.355 107.461L619.705 102.731L607.139 82.9663C605.682 80.675 607.509 77.7131 610.211 77.9873L634.526 80.4555L621.818 62.1655C620.052 59.6239 622.5 56.2859 625.455 57.2061L645.788 63.5392L634.844 35.9659L638.873 34.3662Z" fill="#3F3D56"/>
<path d="M85.9968 36.2969L74.2152 65.9801C73.2065 68.5211 75.5935 71.097 78.2037 70.2839L97.6918 64.2141L85.4403 81.847C83.8555 84.1278 85.6756 87.2173 88.4389 86.9369L112.874 84.4566L100.16 104.454C98.6311 106.859 100.716 109.928 103.515 109.392L105.165 104.662L117.731 84.897C119.188 82.6057 117.361 79.6437 114.659 79.9179L90.3445 82.3862L103.052 64.0962C104.818 61.5546 102.37 58.2166 99.4154 59.1367L79.0817 65.4699L90.0258 37.8966L85.9968 36.2969Z" fill="#3F3D56"/>
<path d="M622.129 133.174C623.652 135.011 622.367 137.794 619.98 137.824L602.163 138.05L617.096 149.378C619.028 150.843 618.352 153.899 615.982 154.413L595.027 158.955L610.984 172.121C612.902 173.704 612 176.815 609.532 177.126L606.885 173.645L591.114 160.632C589.286 159.124 590.003 156.171 592.32 155.669L613.171 151.15L597.681 139.4C595.529 137.767 596.659 134.335 599.361 134.3L617.951 134.065L622.129 133.174Z" fill="white"/>
<path d="M206.347 164.698C204.823 166.535 206.109 169.318 208.495 169.348L226.313 169.574L211.379 180.902C209.448 182.367 210.124 185.423 212.494 185.937L233.448 190.479L217.492 203.645C215.573 205.228 216.475 208.339 218.944 208.65L221.591 205.169L237.361 192.156C239.19 190.648 238.473 187.695 236.156 187.193L215.305 182.674L230.795 170.924C232.947 169.291 231.816 165.858 229.115 165.824L210.525 165.589L206.347 164.698Z" fill="white"/>
<path d="M273.664 155.773V141.966L299.999 100.545H312.528V118.955H305.368L291.178 141.455V141.966H330.042V155.773H273.664ZM305.496 166V151.554L305.88 145.545V100.545H322.499V166H305.496ZM366.005 167.79C360.06 167.768 354.925 166.394 350.6 163.667C346.275 160.94 342.94 157.009 340.597 151.874C338.253 146.739 337.092 140.581 337.113 133.401C337.134 126.199 338.306 120.084 340.629 115.055C342.972 110.027 346.296 106.202 350.6 103.582C354.925 100.961 360.06 99.6506 366.005 99.6506C371.95 99.6506 377.085 100.972 381.41 103.614C385.735 106.234 389.07 110.059 391.413 115.087C393.757 120.116 394.918 126.22 394.897 133.401C394.897 140.624 393.725 146.803 391.381 151.938C389.038 157.072 385.703 161.004 381.378 163.731C377.074 166.437 371.95 167.79 366.005 167.79ZM366.005 153.344C369.073 153.344 371.587 151.746 373.548 148.55C375.529 145.332 376.509 140.283 376.488 133.401C376.488 128.905 376.04 125.229 375.146 122.374C374.251 119.519 373.015 117.41 371.438 116.046C369.861 114.661 368.05 113.969 366.005 113.969C362.937 113.969 360.433 115.524 358.494 118.635C356.555 121.746 355.565 126.668 355.522 133.401C355.501 137.982 355.937 141.753 356.832 144.714C357.727 147.655 358.963 149.828 360.54 151.234C362.138 152.641 363.96 153.344 366.005 153.344ZM402.599 155.773V141.966L428.935 100.545H441.463V118.955H434.304L420.114 141.455V141.966H458.977V155.773H402.599ZM434.432 166V151.554L434.815 145.545V100.545H451.435V166H434.432Z" fill="white"/>
</svg>
