<svg xmlns="http://www.w3.org/2000/svg" width="455" height="565" fill="none" viewBox="0 0 455 555"><path fill="#FDA" d="M389.294 195.226c-5.042 2.13-10.097 4.268-14.792 7.082-2.133 1.273-4.179 2.68-6.372 3.839-2.361 1.259-4.869 2.211-7.356 3.229a163.799 163.799 0 0 0-19.954 9.796c.555-7.203-.495-15.029-4.795-20.643a18.03 18.03 0 0 0-2.1-2.318c-3.042-2.828-7.356-3.558-10.345-6.031 1.819-3.202 5.858-6.11 8.607-8.556a134.376 134.376 0 0 1 9.241-7.484 131.62 131.62 0 0 1 20.295-12.348c4.521-2.218 9.242-4.201 14.23-4.877a3.08 3.08 0 0 1 1.879.167c.776.429 1.057 1.394 1.244 2.258.93 4.322 1.405 8.757 2.18 13.112.38 2.238.896 4.451 1.545 6.626a80.915 80.915 0 0 0 2.882 7.578 2816.54 2816.54 0 0 1 3.611 8.57Zm-143.11 122.129a42.262 42.262 0 0 1-8.016 24.762 42.132 42.132 0 0 1-20.991 15.341 42.05 42.05 0 0 1-25.981.085 42.133 42.133 0 0 1-21.091-15.204 42.158 42.158 0 0 1-8.178-24.984 42.256 42.256 0 0 1 12.339-29.848 42.09 42.09 0 0 1 29.79-12.363 42.087 42.087 0 0 1 29.789 12.363 42.252 42.252 0 0 1 12.339 29.848Z"/><path fill="#FDA" d="M188.963 354.554c2.254 3.893 4.527 7.819 5.972 12.06 1.444 4.241 2.006 8.938.815 13.273 14.351-7.571 31.43-6.961 47.224-10.794a1.692 1.692 0 0 0 1.09-.576 1.725 1.725 0 0 0 0-1.394 116.056 116.056 0 0 1-3.764-37.654l-8.246 4.884a105.29 105.29 0 0 1-11.2 6.03c-5.45 2.392-11.235 3.839-16.925 5.514-4.507 1.34-13.455 3.076-16.29 7.022a7.954 7.954 0 0 1 1.324 1.635Z"/><path fill="#3F3D56" d="M165.752 297.79c-2.741 1.106-5.965 2.379-8.486.831-1.852-1.146-2.614-3.524-2.501-5.702.114-2.177.943-4.241 1.599-6.318 1.337-4.268 2.059-8.71 3.55-12.958 1.492-4.248 3.926-8.341 7.791-10.586 7.115-4.127 16.323-.717 24.22-3.002 3.344-.958 6.253-2.887 9.362-4.402 3.11-1.514 6.607-2.68 9.964-1.869 3.932.918 6.834 4.235 10.499 5.923 4.012 1.849 8.813 1.722 12.464 4.194 2.588 1.756 4.22 4.59 5.671 7.37a140.044 140.044 0 0 1 10.933 28.074 42.656 42.656 0 0 1 1.786 10.72c.033 4.65-1.224 9.206-2.468 13.695l-2.006 7.102c-.742 2.68-1.504 5.36-2.909 7.786-1.404 2.425-3.571 4.469-6.252 5.172-3.344.864-7.236-.811-8.693-3.946-.896-1.943-.856-4.168-.903-6.305a70.387 70.387 0 0 0-1.337-12.462c-.415-2.057-.97-4.195-2.368-5.749-1.805-2.01-4.681-2.68-7.355-2.727-3.13-.04-6.56.811-8.386 3.35-1.465 2.05-1.719 4.931-3.665 6.533a6.048 6.048 0 0 1-2.975 1.212 9.925 9.925 0 0 1-6.351-1.346 9.959 9.959 0 0 1-4.168-4.985c-.615-1.769-.916-3.967-2.588-4.797-.869-.436-1.906-.356-2.835-.637-2.849-.864-3.598-4.482-3.859-7.45-.301-3.478.856-10.345-3.457-10.58-4.647-.254-10.004 2.432-14.277 3.859Zm10.104 45.756c-1.484.717-3.109 1.554-3.691 3.095-.227.603-.267 1.266-.475 1.883-.943 2.727-4.62 3.263-6.52 5.434a8.569 8.569 0 0 0-1.678 3.758 27.301 27.301 0 0 0 1.177 16.241 13.104 13.104 0 0 0 2.675 4.422c3.397 3.471 9.255 3.404 13.488 1.039 4.232-2.365 7.155-6.513 9.636-10.72a37.372 37.372 0 0 0 3.283-6.7 40.95 40.95 0 0 0 1.625-7.297c1.484-9.655 3.424-20.361 2.755-30.15-2.006-.127-5.838-.268-7.61.991-2.22 1.582-1.605 4.771-2.407 7.082-1.899 5.562-7.409 8.496-12.258 10.922Z"/><path fill="#3F3D56" d="M177.595 344.825c-2.508.154-7.001-2.626-9.516-2.486a78.532 78.532 0 0 1-4.527-9.286c1.338-1.923 3.491-2.392 6.747 0 2.615 1.843 6.226 8.214 7.296 11.772Z"/><path fill="#fff" d="M215.397 238.964c-2.722 1.44-4.407 1.507-5.751 1.219-1.344-.288-4.012 1.052-4.012 1.052-23.572 8.08-24.502 11.893-24.502 11.893l27.29-9.655c5.25-2.305 5.35-1.494 5.35-1.494 4.012 3.778 9.121 1.219 9.121 1.219s7.068-3.35 4.989-6.573c-2.08-3.222-9.757.925-12.485 2.339Zm11.368-.603s-2.006 5.36-9.221 4.489c0 0-3.545-.523-2.047-3.17 0 0 7.356-3.095 9.302-2.874 1.946.221 1.946 1.581 1.946 1.581l.02-.026Z"/><path fill="#000" d="M215.397 238.964c-2.722 1.44-4.407 1.507-5.751 1.219-1.344-.288-4.012 1.052-4.012 1.052-23.572 8.08-24.502 11.893-24.502 11.893l27.29-9.655c5.25-2.305 5.35-1.494 5.35-1.494 4.012 3.778 9.121 1.219 9.121 1.219s7.068-3.35 4.989-6.573c-2.08-3.222-9.757.925-12.485 2.339Zm11.368-.603s-2.006 5.36-9.221 4.489c0 0-3.545-.523-2.047-3.17 0 0 7.356-3.095 9.302-2.874 1.946.221 1.946 1.581 1.946 1.581l.02-.026Z" opacity=".1"/><path fill="#fff" d="M216.895 224.023c-4.079.134-4.928 3.189-4.928 3.189a5.899 5.899 0 0 0-.382 7.055l-7.242 7.216a7.283 7.283 0 0 0-3.383 2.68s-15.902 14.07-15.668 15.35c0 0 2.594 1.34 19.051-13.688l4.32-3.833s.956-7.162 7.704-8.522c0 0 .668.295 1.023-1.3a7.586 7.586 0 0 1 1.491-2.057c.896-.831 2.093-6.231-1.986-6.09Zm1.143 4.844s-2.186 5.655-5.303 4.02c-3.116-1.635-.086-5.407-.086-5.407 5.403-5.266 5.389 1.387 5.389 1.387Z"/><path fill="#000" d="M204.484 244.297a.863.863 0 0 0 .862-.864.863.863 0 1 0-.862.864Z" opacity=".1"/><path fill="#FDA" d="M279.947 216.103a56.907 56.907 0 0 0-7.817-3.403 51.91 51.91 0 0 0-10.947-1.876 440.87 440.87 0 0 0-35.227-1.943c-2.08 0-4.206-.047-6.179.67a13.177 13.177 0 0 0-4.681 3.075 23.359 23.359 0 0 0-5.35 7.759 3.451 3.451 0 0 0-.334 2.398c.268.777 1.337 1.293 1.946.744a9.99 9.99 0 0 0-3.282 4.87 10.01 10.01 0 0 0 .019 5.877 6.111 6.111 0 0 0-3.257 5.025c4.862.902 9.866.659 14.618-.71-1.418-.362-2.882.971-2.969 2.432a3.974 3.974 0 0 0 2.213 3.517 8.883 8.883 0 0 0 4.253.845c5.664 0 11.174-1.923 16.825-2.171 4.32-.195 8.773.589 12.899-.67 4.788-1.488 9.061-5.702 13.996-4.824 3.939.703 6.507 4.368 9.075 7.437 4.106 4.898 9.181 8.864 14.216 12.797 3.879 3.028 7.931 6.137 12.739 7.162a7.06 7.06 0 0 0 4.36-.207 7.45 7.45 0 0 0 2.836-2.68c5.182-7.37 5.189-16.65 4.888-25.286-.154-4.416-1.117-5.012-5.196-6.841a755.356 755.356 0 0 1-14.15-6.546 837.374 837.374 0 0 1-15.494-7.451Z"/><path fill="#fff" d="M334.146 232.639c-.797.477-1.64.874-2.515 1.186-1.464.348-2.955-.275-4.38-.758-6.018-2.01-12.705-1.534-18.523-4.02a42.272 42.272 0 0 1-6.948 31.39c-1.203 1.716-2.788 3.471-4.874 3.605.929 2.861 3.791 4.59 6.506 5.876a69.778 69.778 0 0 0 13.535 4.784c1.337.315 2.969.469 3.744-.67.469-.67.669-1.816 1.492-1.776 1.257 1.34.842 4.087 2.581 4.69.542.139 1.11.139 1.652 0l3.878-.67a7.098 7.098 0 0 0 3.263-1.125 6.405 6.405 0 0 0 1.492-1.903c4.346-7.417 6.018-16 6.687-24.476.327-4.207.735-8.669.448-12.891-.268-3.618-4.895-4.71-8.038-3.242Z"/><path fill="#000" d="M334.146 232.639c-.797.477-1.64.874-2.515 1.186-1.464.348-2.955-.275-4.38-.758-6.018-2.01-12.705-1.534-18.523-4.02a42.272 42.272 0 0 1-6.948 31.39c-1.203 1.716-2.788 3.471-4.874 3.605.929 2.861 3.791 4.59 6.506 5.876a69.778 69.778 0 0 0 13.535 4.784c1.337.315 2.969.469 3.744-.67.469-.67.669-1.816 1.492-1.776 1.257 1.34.842 4.087 2.581 4.69.542.139 1.11.139 1.652 0l3.878-.67a7.098 7.098 0 0 0 3.263-1.125 6.405 6.405 0 0 0 1.492-1.903c4.346-7.417 6.018-16 6.687-24.476.327-4.207.735-8.669.448-12.891-.268-3.618-4.895-4.71-8.038-3.242Z" opacity=".1"/><path fill="#FDA" d="M109.975 449.97c-1.905-2.453-3.865-5.052-6.687-6.345a18.292 18.292 0 0 0-5.082-1.247c-9.409-1.34-18.837-2.733-28.333-2.994-3.103-.088-6.433 0-8.96 1.815-2.896 2.071-4.013 5.883-4.173 9.441a26.666 26.666 0 0 0 2.448 12.298 26.618 26.618 0 0 0 7.796 9.812c5.684 4.342 12.866 6.157 19.874 7.591 3.685.757 7.39 1.434 11.108 2.01 3.717.576 7.502 1.032 11.093 2.184 7.677 2.466 14.451 8.041 22.502 8.503a1.77 1.77 0 0 0 1.104-.188c.353-.286.591-.69.668-1.139 1.772-6.264 7.918-21.266 0-25.648-4.139-2.284-8.733-2.385-12.785-5.286-4.053-2.901-7.497-6.848-10.573-10.807Zm-67.599 41.587c-5.21-4.542-12.398-6.948-16.183-12.73-1.665-2.546-2.507-5.534-3.343-8.469l-2.461-8.857a4.635 4.635 0 0 1-.254-1.696c.187-1.849 2.36-2.726 4.192-3.015 9.362-1.46 19.112 2.319 26.12 8.711 7.008 6.391 11.509 15.209 14.15 24.348.186.465.214.978.08 1.46a2.25 2.25 0 0 1-1.03.979c-3.383 2.01-7.93 4.938-11.883 5.554-3.952.616-6.573-3.859-9.388-6.285Z"/><path fill="#3F3D56" d="m270.926 453.367 27.417 10.995a11.686 11.686 0 0 1 6.033 5.478 11.724 11.724 0 0 1 .995 8.096l-20.402 85.982H233.96l8.881-97.821s19.392-16.08 28.085-12.73Z"/><path fill="#fff" d="M297.407 443.049c-.508 1.112-1.257 2.211-1.143 3.423.067.724.441 1.407.387 2.124-.107 1.407-1.731 2.191-3.136 2.205-1.404.013-2.815-.443-4.199-.201-2.274.388-3.812 2.485-5.778 3.698-2.742 1.689-6.165 1.588-9.362 1.876-6.687.603-13.013 3.116-19.065 5.977-4.112 1.943-8.479 4.435-10.03 8.71-2.227 6.03 2.093 12.381 3.049 18.76.256 2.147.319 4.314.187 6.472-.702 22.526-1.912 45.313-3.196 67.812L0 564.193l12.07-21.192c11.77-20.67 23.853-41.729 41.607-57.534a37.397 37.397 0 0 1 8.787-5.923l14.237 12.73a14.321 14.321 0 0 0 3.912 2.767c2.674 1.092 5.67.469 8.539.563 5.517.181 10.559 3.002 15.347 5.756a87.988 87.988 0 0 1 10.111 6.425c1.885 1.447 4.607 2.352 6.573 3.685l-.461-24.053c-.047-2.171-.081-4.396.568-6.466 1.257-4.02 4.848-6.861 6.573-10.687.783-1.722 1.164-3.598 1.819-5.36a36.57 36.57 0 0 1 3.437-6.465l8.874-14.285c2.193-3.524 4.38-7.048 6.761-10.445 10.411-14.881 24.428-26.801 38.062-38.76a15.988 15.988 0 0 1 2.241-9.756 15.026 15.026 0 0 0 1.725-3.142c.289-1.319.372-2.675.247-4.02v-1.032a9.343 9.343 0 0 1 2.582-5.842c1.564-1.629 3.657-2.62 5.717-3.545a186.48 186.48 0 0 1 33.101-11.242c1.812-.429 3.731-.831 5.517-.289.541 1.749 2.387 2.366 4.233 2.808l1.183.274a19.82 19.82 0 0 1 8.52 4.168c2.587 2.265 4.366 5.293 6.098 8.274 13.02 22.399 19.018 51.786 39.16 68.06.976.771.775 2.312.267 3.384Z"/><path fill="#000" d="M379.544 167.943c-7.048 15.524-20.937 30.82-39.072 30.82a44.057 44.057 0 0 1-4.434-.221 17.956 17.956 0 0 0-2.1-2.318c-3.042-2.828-7.355-3.558-10.344-6.03 1.819-3.203 5.857-6.111 8.606-8.556a133.784 133.784 0 0 1 9.241-7.484 131.509 131.509 0 0 1 20.296-12.349c4.52-2.217 9.241-4.201 14.23-4.877a3.081 3.081 0 0 1 1.879.167c.775.429 1.056 1.394 1.244 2.258.929 4.288-.321 4.235.454 8.59Z" opacity=".1"/><path fill="#FDA" d="M340.472 197.417c24.744 0 44.803-20.099 44.803-44.891 0-24.793-20.059-44.891-44.803-44.891-24.744 0-44.804 20.098-44.804 44.891 0 24.792 20.06 44.891 44.804 44.891Z"/><path fill="#fff" d="M432.166 301.629a81.711 81.711 0 0 1-3.799 15.939c-.668 1.883-1.491 3.719-2.34 5.528-4.982 10.579-7.717 22.017-9.021 33.648-.1.916-.267 1.823-.501 2.713-.983 3.752-3.056 7.102-4.641 10.633a86.864 86.864 0 0 0-4.013 11.746 6.56 6.56 0 0 0-.374 3.155c.247 1.133 1.063 2.01 1.638 3.036 2.969 5.125-.461 11.39-1.618 17.192-.394 2.01-.568 4.194-1.872 5.762-1.11 1.34-2.836 1.957-4.474 2.519a505.463 505.463 0 0 1-71.511 18.653c-3.618.67-7.356 1.294-10.947.624-3.591-.67-7.169-2.895-8.399-6.366-.709-2.01-.589-4.194-.528-6.324.133-4.476 0-8.979-.241-13.488-.776-14.84-2.534-29.735 1.337-43.952 1.157-4.195 2.789-8.241 4.1-12.389 2.561-8.087 3.089 8.389 3.731 0 .528-6.914-6.27 9.809-4.725 2.989 6.756 24.837-1.492-7.016-4.443-27.5-14.263-4.907 1.337-70.087 22.241-70.087 1.157-1.709 2.427-3.397 3.036-5.361.856-2.814.267-5.835-.12-8.757a61.59 61.59 0 0 1 1.163-22.318 22.814 22.814 0 0 1 3.083-7.698c1.665-2.432 4.052-4.268 6.44-5.997a169.042 169.042 0 0 1 45.358-23.282c1.491 3.778 2.922 8.194 4.066 12.06.153.522.26 1.186-.168 1.521-.427.335-.869.154-1.337.167a2.41 2.41 0 0 0-2.066 1.776 4.387 4.387 0 0 0 .254 2.841c.909 2.345 2.869 4.093 4.754 5.748l9.483 8.288a23.227 23.227 0 0 0 3.698 2.828c1.19.67 2.487 1.145 3.711 1.762 4.908 2.486 8.299 7.33 10.191 12.502 1.892 5.173 1.036 11.39 3.504 16.302 8.198 16.281 8.131 35.544 5.35 53.587Z"/><path fill="#3F3D56" d="M427.544 472.181a71.971 71.971 0 0 1-.207 35.41c-.542 2.07-1.177 4.214-.749 6.311.247 1.193.829 2.312.963 3.524a10.33 10.33 0 0 1-.355 3.283c-2.969 14.071-1.905 28.69-.708 43.049-.509 0-.669.234-1.204.234h-12.886c-.227-3.772-4.908-6.6-7.195-9.608a24.895 24.895 0 0 1-4.26-20.897c2.006-8.041 7.917-14.466 10.947-22.151 3.343-8.456 3.056-18.03 6.606-26.392 2.04-4.83 5.852-8.603 9.048-12.763Z"/><path fill="#000" d="M427.544 472.181a71.971 71.971 0 0 1-.207 35.41c-.542 2.07-1.177 4.214-.749 6.311.247 1.193.829 2.312.963 3.524a10.33 10.33 0 0 1-.355 3.283c-2.969 14.071-1.905 28.69-.708 43.049-.509 0-.669.234-1.204.234h-12.886c-.227-3.772-4.908-6.6-7.195-9.608a24.895 24.895 0 0 1-4.26-20.897c2.006-8.041 7.917-14.466 10.947-22.151 3.343-8.456 3.056-18.03 6.606-26.392 2.04-4.83 5.852-8.603 9.048-12.763Z" opacity=".1"/><path fill="#3F3D56" d="M400.717 404.747c-14.5 4-21.781 6.717-32.36 10.074-16.163 5.126-33.957 5.441-48.889 13.487a12.494 12.494 0 0 0-3.571 2.587 10.249 10.249 0 0 0-2.2 5.239 18.62 18.62 0 0 0 2.32 12.295c.93 1.581 2.1 3.035 2.822 4.73 1.712 4.02.569 8.657.274 13.052-.668 9.815 3.13 19.37 3.892 29.179.455 5.782-.14 11.691 1.217 17.333.849 3.538 2.448 6.874 3.11 10.452.662 3.578.374 7.075.595 10.613.622 10.137 5.229 19.986 4.106 30.083h81.684c-7.247-9.913-2.922-18.767 0-30.083 1.014-3.578 16.503-7.209 18-10.613 7.5-10.452 16.819-24.98 19.5-37.429 8-17 .041-40.1-4.5-51.999-8.009-20.99-27.752-23-38.5-29-4.012-.536.216 0-7.5 0Zm-158.512-45.852c-3.657 1.173-6.988 3.297-10.545 4.791-6.266 2.62-13.154 3.229-19.727 4.904a81 81 0 0 0-18.129 7.317c-.421.228-1.745 1.34-2.801 2.104v-1.032a9.345 9.345 0 0 1 2.581-5.842c1.565-1.629 3.658-2.62 5.717-3.545a186.442 186.442 0 0 1 33.128-11.222c1.812-.429 3.731-.831 5.517-.289.568 1.749 2.414 2.366 4.259 2.814Z"/><path fill="#000" d="M147.403 530.719c7.195 8.04 13.648 16.817 22.02 23.598-9.662-12.858-23.525-21.44-36.056-31.135-2.541-1.97-7.623-4.764-9.162-7.612-2.427-4.462 2.936-1.293 5.163-.08 6.954 3.785 12.786 9.373 18.035 15.229Zm258.89-234.69c-.342 2.894-1.418 5.641-2.508 8.335-2.675 6.7-5.544 13.333-9.583 19.276-2.782 4.093-6.092 7.792-8.994 11.792a135.303 135.303 0 0 0-8.185 13.219 972.195 972.195 0 0 0-13.334 24.482c-2.066 3.94-4.119 7.913-6.787 11.471a79.23 79.23 0 0 1-6.018 6.861c-4.681 4.944-9.489 9.514-13.676 14.874-2.073 2.68-5.53 3.712-8.76 4.623-1.08.36-2.206.563-3.343.603a11.54 11.54 0 0 1-3.344-.744 84.627 84.627 0 0 1-10.565-4.02c-.776-14.84-2.535-29.735 1.337-43.952 1.157-4.195 2.789-8.241 4.099-12.389 2.562-8.087 3.224-16.449 3.866-24.837.795-1.682 1.645-3.35 2.467-4.972 5.577-11.041 10.278-23.202 8.827-35.51a66.395 66.395 0 0 1-.769-6.7 25.29 25.29 0 0 1 1.371-8.087 44.718 44.718 0 0 1 9.696-16.529 44.631 44.631 0 0 1 15.715-10.942 14.208 14.208 0 0 1 6.018-1.34c2.675.141 5.236 1.535 7.844 1.026 8.833 3.892 15.982 10.539 21.325 18.592 5.343 8.054 5.637 18.814 11.448 26.533 1.719 2.345 2.187 5.447 1.853 8.335Z" opacity=".1"/><path fill="#000" d="m212.943 259.667-.281-.61-10.927 5.052-1.825.844-1.819.838 15.407 33.467 1.819-.845 1.825-.844 10.927-5.052-.281-.603-10.927 5.052-.28-.609 10.926-5.052-.281-.61-10.926 5.052-.281-.61 10.927-5.052-.275-.609-10.933 5.051-.281-.603 10.933-5.051-.28-.61-10.934 5.052-.281-.61 10.934-5.052-.281-.61-10.927 5.052-.281-.609 10.927-5.052-.281-.603-10.926 5.052-.281-.61 10.926-5.052-.28-.61-10.927 5.052-.281-.61 10.933-5.051-.281-.61-10.933 5.052-.281-.603 10.934-5.059-.281-.603-10.934 5.052-.274-.61 10.927-5.052-.281-.609-10.927 5.052-.28-.61 10.926-5.052-.281-.61-10.926 5.052-.281-.603 10.926-5.052-.274-.609-10.933 5.051-.281-.609 10.933-5.052-.28-.61-10.934 5.052-.274-.61 10.927-5.045-.281-.61-10.927 5.052-.281-.609 10.927-5.052-.281-.61-10.927 5.052-.28-.61 10.926-5.052-.274-.609-10.933 5.058-.281-.61 10.933-5.051-.281-.61-10.933 5.052-.281-.61 10.934-5.052-.281-.609-10.927 5.051-.281-.609 10.927-5.052-.281-.603-10.927 5.052-.281-.61 10.927-5.052-.281-.61-10.926 5.052-.281-.609 10.933-5.052-.281-.603-10.933 5.045-.281-.603 10.933-5.052-.28-.61-10.934 5.052-.274-.61 10.927-5.051-.281-.61-10.927 5.052-.281-.61 10.927-5.052-.281-.603-10.927 5.052-.28-.61 10.926-5.052-.274-.609-10.933 5.052-.281-.61 10.933-5.052-.281-.61-10.933 5.052-.281-.603 10.934-5.052-.281-.609-10.934 5.051-.274-.609 10.927-5.052Z"/><path fill="#000" d="M247.247 333.274c-1.411 2.392-3.57 4.469-6.252 5.173-3.344.864-7.235-.811-8.693-3.947-.896-1.943-.856-4.167-.903-6.304a70.315 70.315 0 0 0-1.337-12.463c-.415-2.056-.97-4.194-2.368-5.748-1.805-2.01-4.68-2.68-7.355-2.727-3.13-.04-6.56.811-8.386 3.35-1.464 2.05-1.718 4.931-3.664 6.532a6.058 6.058 0 0 1-2.976 1.213 9.925 9.925 0 0 1-6.351-1.346 9.964 9.964 0 0 1-4.168-4.985c-.615-1.769-.916-3.967-2.588-4.798-.869-.435-1.906-.355-2.835-.636-2.849-.864-3.598-4.483-3.859-7.451-.3-3.477.856-10.345-3.457-10.579-4.614-.255-9.97 2.432-14.243 3.859-2.742 1.106-5.965 2.379-8.486.831-1.852-1.146-2.615-3.524-2.501-5.702.114-2.177.943-4.241 1.598-6.318 1.124-3.511 1.799-7.156 2.829-10.72a31.956 31.956 0 0 0-1.291 3.095c-1.484 4.228-2.18 8.71-3.544 12.958-.669 2.077-1.484 4.141-1.598 6.318-.114 2.178.669 4.557 2.501 5.702 2.521 1.548 5.744.275 8.486-.831 4.273-1.427 9.629-4.113 14.243-3.859 4.313.235 3.156 7.102 3.457 10.58.261 2.968 1.01 6.586 3.859 7.45.929.282 1.966.201 2.835.637 1.672.83 2.006 3.028 2.588 4.797a9.959 9.959 0 0 0 4.168 4.985 9.925 9.925 0 0 0 6.351 1.346 6.055 6.055 0 0 0 2.976-1.212c1.945-1.602 2.2-4.483 3.664-6.533 1.826-2.553 5.256-3.403 8.386-3.35 2.674.04 5.583.71 7.355 2.727 1.398 1.554 1.953 3.692 2.368 5.749a70.397 70.397 0 0 1 1.337 12.462c.047 2.137 0 4.362.903 6.305 1.451 3.135 5.349 4.81 8.693 3.946 2.675-.703 4.841-2.78 6.252-5.172a26.84 26.84 0 0 0 2.461-6.191c-.147.308-.294.583-.455.857Z" opacity=".1"/><path fill="#FDA" d="M281.646 328.825c-5.35-5.145-10.185-10.84-14.986-16.522-4.601-5.434-9.215-10.894-12.919-16.971-2.294-3.759-4.34-7.86-7.864-10.493-2.675-2.01-5.945-2.948-8.901-4.482-2.126-1.106-4.086-2.506-6.185-3.652a29.387 29.387 0 0 0-14.939-3.531c-2.16.074-4.614.577-5.724 2.439-.382.637-.562 1.381-.95 2.01-1.197 2.01-4.079 2.58-5.062 4.69-1.659 3.551 3.343 6.814 3.658 10.721.147 1.956-.93 3.778-1.244 5.715-.535 3.35 1.197 6.546 2.869 9.467 3.577 6.258 7.931 13.112 14.959 14.687 2.487.556 5.115.375 7.543 1.165a17.843 17.843 0 0 1 5.349 3.196 87.728 87.728 0 0 1 17.28 18.231c2.26 3.196 4.306 6.533 6.586 9.709a78.827 78.827 0 0 0 27.799 23.946l8.205-26.13c1.263-4.021 2.26-9.535-1.338-12.67-4.507-4.067-9.703-7.277-14.136-11.525Z"/><path fill="#fff" d="M370.965 239.245c-2.608.503-5.196-.884-7.844-1.025a14.168 14.168 0 0 0-6.019 1.34 44.67 44.67 0 0 0-15.712 10.943 44.754 44.754 0 0 0-9.698 16.528 25.524 25.524 0 0 0-1.351 8.113c.04 2.245.508 4.456.769 6.701 1.451 12.287-3.25 24.455-8.82 35.51-3.083 6.104-6.56 12.543-5.832 19.343.094.911.241 1.936-.314 2.68-.668.885-2.113.932-2.735 1.863-.622.931-.053 2.338-.548 3.39-.669 1.488-2.849 1.307-4.407.777a35.408 35.408 0 0 1-11.655-6.633c-5.557 3.25-11.502 7.122-13.328 13.3a29.53 29.53 0 0 0-.889 4.811l-2.869 23.986c-.381 3.176-.568 6.901 1.826 9.018 4.126 3.658 11.475-1.078 15.888 2.231 1.13.845 1.866 2.104 2.675 3.25 4.821 6.626 13.12 9.541 20.904 12.06a11.73 11.73 0 0 0 3.343.737 11.334 11.334 0 0 0 3.344-.603c3.236-.911 6.687-1.97 8.76-4.616 4.193-5.36 9.001-9.93 13.682-14.875a81.174 81.174 0 0 0 6.018-6.86c2.675-3.565 4.721-7.538 6.787-11.478a940.764 940.764 0 0 1 13.321-24.482 135.425 135.425 0 0 1 8.258-13.159c2.909-4.02 6.213-7.705 8.995-11.792 4.012-5.95 6.894-12.61 9.582-19.276 1.09-2.68 2.167-5.447 2.514-8.335.348-2.888-.12-5.99-1.872-8.315-5.811-7.725-6.099-18.479-11.441-26.532-5.343-8.054-12.492-14.714-21.332-18.6Z"/><path fill="#3F3D56" d="M213.123 262.414a1.268 1.268 0 0 0-.575.905c0 .335.274.596.422.898.407.857-.248 1.849-.997 2.438-.749.59-1.658 1.046-2.066 1.91a.662.662 0 0 0-.08.375.8.8 0 0 0 .294.442 3.64 3.64 0 0 0 1.652 1.086c1.023.214 2.006-.463 2.875-1.019a15.606 15.606 0 0 1 2.996-1.474c.324-.096.63-.248.903-.449.334-.333.54-.775.581-1.246.228-1.682-.668-3.296-1.691-4.69-1.231-1.641-3.264-.08-4.314.824ZM110.53 460.972l-69.412-35.497a1.029 1.029 0 0 0-1.386.45l-17.69 34.726a1.033 1.033 0 0 0 .45 1.388l69.412 35.498a1.03 1.03 0 0 0 1.385-.45l17.69-34.727a1.032 1.032 0 0 0-.449-1.388Z"/><path fill="#fff" d="m104.14 461.865-59.883-30.624-15.194 29.827 59.883 30.624 15.194-29.827Z"/><path fill="#494C54" d="M35.343 445.491c.183-.359-.109-.875-.652-1.153-.542-.277-1.13-.211-1.314.148-.183.359.109.876.652 1.153.542.278 1.13.212 1.314-.148Zm65.485 33.577c.301-.59-.181-1.439-1.076-1.897-.895-.458-1.864-.35-2.164.24-.3.59.181 1.439 1.076 1.896.894.458 1.863.351 2.164-.239Z"/><path fill="#000" d="M392.47 154.355c-1.391 5.909-4.012 11.685-3.704 17.749a142.844 142.844 0 0 1-16.905 3.745c-2.675.422-5.764.67-7.724-1.226a7.679 7.679 0 0 1-1.765-3.136c-2.12-6.278-1.411-13.447-4.614-19.249a16.135 16.135 0 0 0-5.565-5.781 16.092 16.092 0 0 0-7.655-2.38c-2.1-.074-4.487.442-5.564 2.245a13.876 13.876 0 0 0-.95 2.76c-1.484 4.482-7.563 6.7-11.568 4.201-2.006-1.26-3.377-3.35-5.189-4.918-2.301-1.976-5.25-2.995-7.831-4.589-2.327-1.434-3.444-2.881-3.919-4.376-.588 3.223-.755 6.185 3.919 9.066 2.581 1.594 5.53 2.613 7.831 4.589 1.812 1.555 3.156 3.658 5.189 4.918 4.012 2.486 10.084.281 11.568-4.201.219-.951.537-1.876.95-2.76 1.077-1.803 3.464-2.319 5.564-2.245 2.711.135 5.344.953 7.655 2.38a16.135 16.135 0 0 1 5.565 5.781c3.203 5.802 2.494 12.971 4.614 19.249a7.661 7.661 0 0 0 1.792 3.156c1.959 1.876 5.055 1.648 7.724 1.226a142.844 142.844 0 0 0 16.905-3.745c-.328-6.064 2.313-11.839 3.704-17.749a56.379 56.379 0 0 0 1.277-14.74 51.753 51.753 0 0 1-1.304 10.03Zm-82.551-21.849a10.496 10.496 0 0 0-.669-6.566c-.843-1.769-3.23-2.935-4.835-1.816s-1.377 3.618-1.772 5.628c-.762 3.953-4.681 6.647-8.693 7.277-1.879.301-3.972.181-5.43-1.039a7.567 7.567 0 0 1-2.006-3.276 31.173 31.173 0 0 1-1.852-8.67 31.97 31.97 0 0 0 1.852 13.36 7.567 7.567 0 0 0 2.006 3.276c1.458 1.22 3.551 1.34 5.43 1.039 3.965-.63 7.904-3.35 8.693-7.277.381-2.01.12-4.442 1.779-5.594 1.658-1.153 4.012.047 4.835 1.816.286.588.508 1.206.662 1.842Z" opacity=".1"/><path fill="#2F2E41" d="M300.59 175.642a52.6 52.6 0 0 0 15.535-19.027 52.665 52.665 0 0 0-1.045-47.777 52.6 52.6 0 0 0-16.352-18.328 52.572 52.572 0 0 1 17.488 12.822 52.652 52.652 0 0 1-7.739 77.322 52.509 52.509 0 0 1-41.356 9.466 52.527 52.527 0 0 1-19.981-8.415 52.502 52.502 0 0 0 53.45-6.063Z"/><path fill="#2F2E41" d="M335.493 191.169c41.681 0 75.47-33.823 75.47-75.545 0-41.723-33.789-75.546-75.47-75.546s-75.47 33.823-75.47 75.546c0 41.722 33.789 75.545 75.47 75.545Z"/><path fill="#FDA" d="M335.964 202.029c21.883 0 39.622-17.757 39.622-39.662 0-21.904-17.739-39.661-39.622-39.661-21.882 0-39.622 17.757-39.622 39.661 0 21.905 17.74 39.662 39.622 39.662Z"/><path fill="#2F2E41" d="M335.493 79.74c21.882 0 39.621-17.757 39.621-39.662 0-21.904-17.739-39.661-39.621-39.661-21.883 0-39.622 17.757-39.622 39.661 0 21.905 17.739 39.662 39.622 39.662Z"/><path fill="#2F2E41" d="M365.972 64.178a39.657 39.657 0 0 0 11.711-14.344A39.697 39.697 0 0 0 364.568 0a39.637 39.637 0 0 1 21.348 23.836 39.697 39.697 0 0 1-3.188 31.853 39.65 39.65 0 0 1-10.811 12.266 39.608 39.608 0 0 1-31.176 7.137 39.603 39.603 0 0 1-15.063-6.344 39.58 39.58 0 0 0 40.294-4.57Zm-23.594 97.035c26.086 0 47.232-14.227 47.232-31.777s-21.146-31.778-47.232-31.778c-26.085 0-47.231 14.228-47.231 31.778 0 17.55 21.146 31.777 47.231 31.777Z"/></svg>