<svg xmlns="http://www.w3.org/2000/svg" width="84" height="123" fill="none"><circle cx="41.5" cy="42.5" r="19" stroke="#fff" stroke-width="7"/><path stroke="#fff" stroke-width="7" d="m42.823 118.234-.204.179-.158-.143c-1.18-1.079-2.84-2.775-4.833-5.011-3.977-4.459-9.13-10.891-14.227-18.441C13.09 79.548 3.5 60.42 3.5 43.998c0-16.848 4.863-26.746 11.488-32.51C21.706 5.645 30.86 3.5 40.5 3.5c9.646 0 19.63 2.148 27.137 8.092C74.993 17.417 80.5 27.31 80.5 43.998c0 16.472-9.138 35.625-19.059 50.87-4.91 7.546-9.902 13.965-13.816 18.406-1.965 2.229-3.61 3.903-4.802 4.96Zm-1.273.999.008-.004-.008.004Zm2.184.09-.01-.006a.037.037 0 0 1 .01.006Z"/></svg>