<svg xmlns="http://www.w3.org/2000/svg" width="95" height="95" fill="none"><path fill="#fff" d="M22.068.626c1.6.8 9.099 13.874 12.432 20.374a5.885 5.885 0 0 1-.982 4.575L32.5 27c-2 1.833-6.1 5.5-6.5 5.5-.5 0-3.5 3-3 5.5s12.068 18.126 14.068 20.126 12 9.5 17 12c4 2 5.333 1.833 5.5 1.5 3-3.333 9.3-10.3 10.5-11.5 1.2-1.2 2.833-.5 3.5 0l18.32 11.171c1.397.852 2.68 2.194 2.68 3.829 0 .5-1.5 7-5 12S76 94 75.068 94.126c-.56.076-5.833-.167-8.5-.5l-8.5-2.5-12-5-7.5-4.5-13-11c-3.5-4-11.299-11.932-12-13-1.068-1.626-4.5-7.333-6-10.5l-5.5-14c-.333-1.333-1.2-5.2-2-10-.63-3.777 3.198-11.078 6.482-16.373 1.541-2.486 3.894-4.34 6.603-5.442L16.068.126c1.333-.166 4.4-.3 6 .5Z"/></svg>